<?xml version="1.0" standalone="no"?>
<!DOCTYPE svg PUBLIC "-//W3C//DTD SVG 1.1//EN" "http://www.w3.org/Graphics/SVG/1.1/DTD/svg11.dtd" >
<svg xmlns="http://www.w3.org/2000/svg" xmlns:xlink="http://www.w3.org/1999/xlink" version="1.1">
<metadata>
Created by FontForge 20190801 at Wed Mar  2 07:15:22 2016
 By www-data
Copyright (c) 2016 by Ivan Petrov. All rights reserved.
</metadata>
<defs>
<font id="Tavolga" horiz-adv-x="694" >
  <font-face 
    font-family="Tavolga"
    font-weight="400"
    font-stretch="normal"
    units-per-em="1000"
    panose-1="2 0 5 3 4 0 0 2 0 4"
    ascent="750"
    descent="-250"
    x-height="501"
    cap-height="706"
    bbox="-92 -230 1081 927"
    underline-thickness="50"
    underline-position="-100"
    unicode-range="U+0020-FB04"
  />
<missing-glyph horiz-adv-x="618" 
d="M567 0h-495v699h495v-699zM264 200q-2 -6 -4 -19.5t-2 -27.5q0 -9 2.5 -18.5t9.5 -15.5q7 -8 17.5 -10.5t18.5 -2.5q10 0 17.5 1t13.5 3l12 4q1 6 3 12q2 5 3 12.5t1 15.5q0 29 -10.5 41.5t-36.5 12.5q-9 0 -17 -1t-14 -3zM271 278q0 -24 26 -24q11 0 19 1t14 3q7 2 13 4
q0 29 17 52t38 46.5t38 50.5t17 65q0 54 -33 86t-95 32q-25 0 -42.5 -2t-32.5 -4.5t-28.5 -4t-30.5 -0.5q-2 -36 1.5 -59.5t22.5 -23.5q20 0 41.5 8.5t54.5 8.5q29 0 41.5 -14.5t12.5 -34.5q0 -27 -14.5 -48t-32.5 -41.5t-32.5 -44t-14.5 -56.5z" />
    <glyph glyph-name=".notdef" horiz-adv-x="618" 
d="M567 0h-495v699h495v-699zM264 200q-2 -6 -4 -19.5t-2 -27.5q0 -9 2.5 -18.5t9.5 -15.5q7 -8 17.5 -10.5t18.5 -2.5q10 0 17.5 1t13.5 3l12 4q1 6 3 12q2 5 3 12.5t1 15.5q0 29 -10.5 41.5t-36.5 12.5q-9 0 -17 -1t-14 -3zM271 278q0 -24 26 -24q11 0 19 1t14 3q7 2 13 4
q0 29 17 52t38 46.5t38 50.5t17 65q0 54 -33 86t-95 32q-25 0 -42.5 -2t-32.5 -4.5t-28.5 -4t-30.5 -0.5q-2 -36 1.5 -59.5t22.5 -23.5q20 0 41.5 8.5t54.5 8.5q29 0 41.5 -14.5t12.5 -34.5q0 -27 -14.5 -48t-32.5 -41.5t-32.5 -44t-14.5 -56.5z" />
    <glyph glyph-name=".null" horiz-adv-x="0" 
 />
    <glyph glyph-name="nonmarkingreturn" horiz-adv-x="333" 
 />
    <glyph glyph-name="space" unicode=" " horiz-adv-x="245" 
 />
    <glyph glyph-name="exclam" unicode="!" horiz-adv-x="269" 
d="M97 236q-2 96 -4 171t-4 132t-6 98t-11 70q11 2 23 4q11 2 23.5 3t25.5 1q29 0 40 -8t11 -32q0 -35 -1.5 -88.5t-4.5 -115.5t-7.5 -126.5t-10.5 -119.5q-4 -3 -10 -6q-5 -2 -13.5 -4t-19.5 -2q-17 0 -24 4.5t-7 18.5zM71 55q0 13 1 24.5t3 19.5q2 10 4 18q3 2 22.5 6
t37.5 4q30 0 45 -15.5t15 -53.5q0 -21 -3.5 -37t-5.5 -18q-1 -1 -19 -5t-36 -4q-11 0 -25 2.5t-24 13.5q-8 8 -11.5 20t-3.5 25z" />
    <glyph glyph-name="quotedbl" unicode="&#x22;" horiz-adv-x="429" 
d="M152 454h-13t-18 1q-17 1 -22.5 9t-7.5 33q-1 11 -3 36.5t-5 57t-6 64.5t-6 60l28 2q12 1 24.5 2t23.5 1q25 0 31.5 -8t6.5 -28q0 -15 -3 -44t-6.5 -62.5t-7.5 -67t-6 -56.5h-10zM324 454h-13t-18 1q-17 1 -22.5 9t-7.5 33q-1 11 -3 37t-5 57.5t-6 64.5t-6 59l28 2
q12 1 24.5 2t23.5 1q25 0 32 -8t7 -28q0 -14 -3 -43t-7 -62.5t-8 -67.5t-6 -57h-10z" />
    <glyph glyph-name="numbersign" unicode="#" horiz-adv-x="763" 
d="M614 471q20 0 36.5 1t28.5 3q1 -6 2 -14q1 -7 2 -15.5t1 -17.5q0 -24 -9 -32t-36 -8h-77q-8 -21 -20.5 -50.5t-26.5 -63.5q17 0 47 0.5t54 1.5q1 -6 2 -13q1 -6 2 -14.5t1 -18.5q0 -23 -7 -31.5t-30 -8.5h-105q-15 -38 -29.5 -73t-26 -63.5t-19 -48t-9.5 -25.5
q-23 7 -37.5 12t-23 9.5t-12 10.5t-3.5 14t3 17.5t10.5 27t20.5 46t33 74.5q-51 0 -78.5 1t-49.5 2q-16 -38 -31 -73.5t-27 -64.5t-20 -49t-10 -27q-21 7 -35 12t-21.5 9.5t-10.5 10.5t-3 14q0 3 2.5 11.5t9.5 27.5t20.5 50.5t35.5 79.5q-29 1 -53.5 1.5t-32.5 1.5v13
q0 6 0.5 14t0.5 17q0 17 3.5 25t26.5 8h90l51 117q-16 0 -32.5 0.5t-31 1.5t-25.5 1.5t-15 0.5v13q0 6 0.5 13.5t0.5 17.5q0 17 3.5 25t26.5 8q14 0 40.5 -0.5t58.5 -0.5h9q14 33 27 64t23.5 57t18 44.5t9.5 25.5q11 -3 23.5 -7t23.5 -9.5t18.5 -12t7.5 -15.5q0 -5 -3 -13.5
t-10 -24.5t-18.5 -42t-29.5 -68h66t64 -1q11 26 22.5 54t22 54t19 48t13.5 37q12 -5 24.5 -9t23.5 -9t18 -11t7 -15q0 -8 -15.5 -46t-44.5 -102h15zM297 274q30 0 64 -0.5t60 -0.5q16 35 29 65t22 50q-12 0 -29.5 0.5t-35.5 1t-35 1t-29 0.5l-50 -117h4z" />
    <glyph glyph-name="dollar" unicode="$" horiz-adv-x="544" 
d="M275 108q55 0 84.5 19t29.5 59q0 34 -24.5 53.5t-61.5 32.5t-79.5 25.5t-79.5 32.5t-61.5 54t-24.5 90q0 40 13.5 72t36.5 54.5t54.5 36.5t67.5 20q-1 21 -3 44t-7 42q8 3 18 7q8 3 20 5.5t27 2.5q24 0 28.5 -7t4.5 -18v-33.5t-1 -39.5q45 -3 83.5 -8t64.5 -5
q0 -1 0.5 -6t0.5 -13q0 -13 -1 -28t-5 -28t-12 -21.5t-22 -8.5q-26 0 -64 9t-84 9q-50 0 -79 -17t-29 -59q0 -32 24.5 -49t61.5 -29.5t79.5 -25t79.5 -34.5t61.5 -58t24.5 -96q0 -38 -13.5 -68t-37.5 -52.5t-56 -37.5t-69 -22q0 -103 9 -101q-17 -2 -34 -3.5t-28 -1.5
q-26 0 -33.5 6.5t-7.5 30.5q0 14 0.5 31t1.5 33q-41 1 -74.5 8t-57.5 17.5t-37 24t-13 28.5q0 44 28 88q16 -11 34.5 -22.5t42 -21t52.5 -15.5t67 -6z" />
    <glyph glyph-name="percent" unicode="%" horiz-adv-x="785" 
d="M191 403q27 0 46 25t19 70q0 46 -17.5 70t-49.5 24q-30 0 -47.5 -25t-17.5 -72t17.5 -69.5t49.5 -22.5zM188 327q-76 0 -113 44.5t-37 118.5q0 34 10.5 65.5t30 55.5t48 38.5t65.5 14.5q76 0 112.5 -44.5t36.5 -119.5q0 -34 -10 -65t-29.5 -55t-48 -38.5t-65.5 -14.5z
M596 67q28 0 46.5 25t18.5 71q0 45 -17.5 69t-48.5 24t-48.5 -25t-17.5 -71q0 -47 17.5 -70t49.5 -23zM594 -9q-77 0 -113.5 44.5t-36.5 119.5q0 34 10.5 65.5t30 55.5t48 38t64.5 14q76 0 112.5 -44.5t36.5 -118.5q0 -34 -10 -65.5t-29.5 -55.5t-47.5 -38.5t-65 -14.5z
M616 595q-51 -80 -95 -146.5t-85.5 -129t-83 -125.5t-86.5 -136q-7 -11 -14 -24t-13 -24q-7 -13 -13 -26q-13 5 -28.5 11t-27.5 12q-15 10 -15 19t5 17q14 24 32.5 53t38.5 59t40 59.5t36 55.5q39 60 73.5 113t65 101.5t56.5 93t46 88.5q14 -6 22.5 -9.5t14.5 -6.5t11 -6
t11 -7q14 -8 15.5 -18.5t-6.5 -23.5z" />
    <glyph glyph-name="ampersand" unicode="&#x26;" horiz-adv-x="714" 
d="M652 97q0 -58 -7.5 -81.5t-33.5 -23.5q-22 0 -53.5 17.5t-69.5 49.5q-40 -32 -91 -51.5t-116 -19.5q-50 0 -87.5 13.5t-63 36t-38.5 53t-13 65.5q0 60 32 106t91 88q-36 44 -57 84t-21 84q0 34 13 62.5t37 49t57 32t74 11.5q86 0 133 -38.5t47 -100.5q0 -31 -10 -56.5
t-29.5 -48t-47.5 -44.5t-64 -45q29 -32 66.5 -70t82.5 -78q14 27 22 58t8 64q0 9 -1 17t-2 15q-2 8 -3 15l28 6q12 2 24.5 4t22.5 2q22 0 28 -12.5t6 -35.5q0 -45 -15.5 -95.5t-47.5 -97.5q29 -22 53 -28.5t46 -6.5zM305 77q68 0 116 39q-42 39 -84 83t-82 88
q-32 -25 -48.5 -52t-16.5 -61q0 -19 7 -36.5t21 -31t36 -21.5t51 -8zM225 519q0 -33 15.5 -60.5t39.5 -56.5q30 19 50.5 35t32.5 31t17 29.5t5 29.5q0 32 -21 51.5t-57 19.5q-37 0 -59.5 -20.5t-22.5 -58.5z" />
    <glyph glyph-name="quotesingle" unicode="'" horiz-adv-x="256" 
d="M151 454h-12.5t-17.5 1q-17 1 -23 8.5t-8 33.5q-1 16 -3 42.5t-5 56.5t-5.5 61.5t-5.5 57.5l28 2q12 1 24.5 2t23.5 1q25 0 31.5 -7.5t6.5 -27.5q0 -15 -3 -44t-7 -62t-8 -66.5t-6 -58.5h-10z" />
    <glyph glyph-name="parenleft" unicode="(" horiz-adv-x="317" 
d="M309 -141q-9 -14 -25 -29.5t-29 -15.5q-10 0 -20 7q-40 33 -76 83.5t-63 110.5t-43 127t-16 134q0 79 16.5 147t44 126t64.5 108t79 93l21 -7q9 -4 18.5 -8.5t16.5 -12.5q8 -8 8 -16q0 -5 -4 -11t-9 -12q-31 -36 -58 -81t-47.5 -96.5t-32 -109t-11.5 -118.5
q0 -67 13 -126t35.5 -111t52.5 -97.5t65 -84.5z" />
    <glyph glyph-name="parenright" unicode=")" horiz-adv-x="317" 
d="M8 -141q35 39 65 84.5t52.5 97.5t35.5 111t13 126q0 61 -12 118.5t-32 109t-47 96.5t-58 81q-13 15 -13 23t7 16t17 12.5t19 8.5l21 7q42 -43 79 -93t64.5 -108t44 -126t16.5 -147q0 -67 -16 -134t-43 -127t-63 -110.5t-76 -83.5q-10 -7 -20 -7q-12 0 -23 9.5t-31 35.5z
" />
    <glyph glyph-name="asterisk" unicode="*" horiz-adv-x="303" 
d="M194 599q13 -19 32.5 -43t32.5 -39l-16.5 -16.5t-20.5 -9.5q-8 0 -17.5 9t-18.5 21t-18 25t-15 22q-8 -10 -16.5 -22.5t-16.5 -24.5l-15 -22.5t-10 -16.5q-12 2 -25 10t-13 20q0 6 5.5 16t13.5 22t18 24t19 23q-23 8 -50.5 15t-47.5 15q-1 3 0 7q0 3 1 8t3 10q2 7 7 13.5
t14 6.5q8 0 35 -8.5t54 -18.5q0 26 -1 51.5t-3 51.5q5 1 11.5 2t13.5 1q11 0 20 -4t9 -15q0 -22 -0.5 -44t-1.5 -45q31 10 57.5 19.5t39.5 14.5q3 -5 7 -10q2 -5 4.5 -11t2.5 -13q0 -18 -27 -25.5t-67 -18.5z" />
    <glyph glyph-name="plus" unicode="+" horiz-adv-x="604" 
d="M55 277q0 6 0.5 14t0.5 18q0 17 8.5 29.5t31.5 12.5q14 0 34.5 -0.5t42.5 -0.5t43.5 -0.5t39.5 -0.5v8q0 15 -0.5 38.5t-1 49.5t-2.5 50.5t-5 41.5q10 2 21 5q9 2 20.5 4t22.5 2q17 0 24 -6.5t8 -28.5q1 -15 1.5 -37t0.5 -45v-45.5v-38.5h16q19 0 43.5 0.5t49.5 1t48 2
t41 3.5q1 -7 3 -15q1 -7 2 -16t1 -19q0 -24 -9.5 -34t-37.5 -11q-13 0 -32.5 -0.5t-41 -1t-42 -0.5h-35.5h-7q-1 -24 -2 -52t-2 -55.5t-2.5 -53t-2.5 -46.5q-9 -1 -19 -2q-8 -1 -18 -1h-20q-18 0 -24.5 10t-6.5 33q1 29 2 59q1 26 1.5 54.5t1.5 54.5q-20 1 -46 1.5t-53 1.5
t-53 2t-45 2v12z" />
    <glyph glyph-name="comma" unicode="," horiz-adv-x="236" 
d="M189 72q0 -33 -15 -69t-36 -66t-42 -49.5t-33 -19.5q-15 0 -27 5q-6 2 -12 5q22 40 33 67.5t15.5 51.5t4 48.5t-1.5 59.5q11 2 23 5q11 2 23 3.5t24 1.5q22 0 33 -8.5t11 -34.5z" />
    <glyph glyph-name="hyphen" unicode="-" horiz-adv-x="384" 
d="M57 252q-1 8 -1 17q-1 8 -1 16.5v16.5q0 16 3 24t8 12q4 4 12.5 5t23 1.5t35.5 1t50 2.5q54 5 85.5 14t50.5 23q2 -8 4 -21.5t2 -28.5q0 -12 -2 -24t-9 -20q-13 -17 -47.5 -27.5t-99.5 -12.5q-31 -2 -59.5 -1.5t-54.5 2.5z" />
    <glyph glyph-name="period" unicode="." horiz-adv-x="228" 
d="M50 54q0 13 1 24.5t3 19.5q2 10 4 18q3 2 22.5 6.5t37.5 4.5q30 0 45 -16t15 -54q0 -21 -3.5 -37t-5.5 -17q-1 -2 -19 -6t-36 -4q-11 0 -25 3t-24 13q-8 8 -11.5 20.5t-3.5 24.5z" />
    <glyph glyph-name="slash" unicode="/" horiz-adv-x="374" 
d="M381 674q-10 -25 -29.5 -68.5t-39.5 -89t-36.5 -83.5t-21.5 -52q-6 -15 -18.5 -43.5t-27.5 -64t-32 -75t-32.5 -75.5t-28 -65.5t-18.5 -46.5q-5 -12 -8.5 -25t-6.5 -24q-4 -13 -6 -25q-13 3 -33 6.5t-33 8.5q-17 7 -19.5 15t-0.5 17q1 6 8.5 25.5t18.5 46t24 56.5t25 58
t21.5 50t13.5 33q16 38 36.5 85.5t41 97t39 96t31.5 82.5q16 42 23 66.5t12 51.5q27 -4 46.5 -8.5t34.5 -9.5t18 -15t-2 -25z" />
    <glyph glyph-name="zero" unicode="0" horiz-adv-x="597" 
d="M303 671q64 0 110 -24.5t75 -68t42.5 -104.5t13.5 -133q0 -70 -16.5 -133.5t-49 -112t-79 -77t-106.5 -28.5q-65 0 -110.5 24.5t-74 68t-42 104.5t-13.5 133q0 70 16.5 133.5t48.5 112t78.5 77t106.5 28.5zM299 83q27 0 51 16.5t42 48.5t28.5 79t10.5 107
q0 119 -35 181.5t-99 62.5q-27 0 -51 -16.5t-41.5 -48.5t-28 -79t-10.5 -107q0 -119 34.5 -181.5t98.5 -62.5z" />
    <glyph glyph-name="one" unicode="1" horiz-adv-x="427" 
d="M64 585q24 7 43.5 14t38.5 15.5t40 20t47 28.5h28q17 0 22 -5.5t5 -18.5q0 -38 -0.5 -83.5t-0.5 -93.5v-371l90 2l2 -20q1 -9 2 -19t1 -19q0 -17 -7 -27t-33 -10q-31 0 -59 0.5t-58 0.5t-63.5 0.5t-74.5 0.5h-14q-1 6 -2 14q-1 7 -1.5 15t-0.5 17q0 26 7.5 37.5
t33.5 11.5h30.5t37.5 -1q1 106 1.5 210.5t0.5 210.5q-12 -7 -37.5 -16.5t-51.5 -9.5q-18 0 -25 7.5t-7 21.5q0 8 0.5 19.5t1.5 22t2 18z" />
    <glyph glyph-name="two" unicode="2" horiz-adv-x="498" 
d="M29 103q31 25 66 55t70 62t67 66t57 68t39.5 66.5t14.5 62.5q0 42 -26 64t-68 22q-26 0 -47.5 -3.5t-41 -8t-37 -8t-35.5 -3.5q-30 0 -36 28.5t-3 80.5q55 0 104 7.5t95 7.5q102 0 152.5 -49.5t50.5 -136.5q0 -54 -26.5 -108t-68.5 -104.5t-94.5 -96t-104.5 -82.5
q36 -1 79.5 -0.5t82.5 2.5q26 2 47 6t38 9q18 5 35 12q2 -11 4 -23q2 -11 3.5 -24.5t1.5 -30.5q0 -23 -9 -31t-32 -11q-28 -3 -73.5 -4.5t-95.5 -1.5q-70 0 -117 2t-64 5q-17 2 -24 8.5t-7 25.5v19.5t1 22.5z" />
    <glyph glyph-name="three" unicode="3" horiz-adv-x="523" 
d="M105 325q0 15 2 33t5 26q59 42 114 87.5t105 97.5q-28 -2 -62.5 -4t-69.5 -3.5t-67.5 -3t-56.5 -1.5q-21 0 -27.5 8t-6.5 23q0 14 2.5 38t6.5 44q17 -3 35 -5q15 -2 31.5 -3t30.5 -1q26 0 57 0.5t59.5 1.5t50 1.5t28.5 0.5h34.5t26.5 -1t23 -2t23 -3q2 -17 2.5 -34.5
t0.5 -29.5q0 -19 -4 -30.5t-17 -26.5q-37 -41 -86 -84.5t-94 -78.5h31q41 0 77 -9.5t63 -30.5t43 -54t16 -81q0 -50 -20 -89t-55 -66t-84 -41.5t-106 -14.5q-23 0 -56 2.5t-64 10t-52.5 21t-21.5 34.5q0 17 4 33.5t9 29.5q5 15 13 28q43 -34 83.5 -46.5t84.5 -12.5
q69 0 107.5 27t38.5 78q0 57 -35 78t-95 21q-29 0 -55.5 -2t-46.5 -2q-16 0 -20.5 10t-4.5 26z" />
    <glyph glyph-name="four" unicode="4" horiz-adv-x="570" 
d="M334 661q20 5 43 8t40 3q36 0 43 -29q3 -14 3 -35q0 -84 -1.5 -169t-3.5 -176q23 1 37.5 1.5t33.5 2.5q2 -13 4 -24t3 -22t1 -22q0 -34 -35 -34h-45v-59q0 -14 1 -32.5t3 -35.5q2 -19 5 -40q-17 -2 -36.5 -3.5t-38.5 -1.5q-40 0 -40 27v145h-84.5t-79 0.5t-65.5 0.5h-44
q-11 0 -22.5 2.5t-19.5 16.5q-5 8 -7.5 20t-4.5 23q-2 12 -3 26q37 44 78.5 95t83 104.5t80 106.5t71.5 101zM357 418v63t-1 61q-54 -80 -108 -150t-109 -133q54 0 108 0.5t108 0.5q1 40 1.5 82.5t0.5 75.5z" />
    <glyph glyph-name="five" unicode="5" horiz-adv-x="529" 
d="M238 324q-46 0 -79 -9t-61 -9q-16 0 -16 22q0 25 1.5 56.5t3 62.5t3 57.5t1.5 41.5q0 21 -0.5 36t-2 28t-3.5 24t-6 24q18 5 36 6.5t36 1.5q47 0 95.5 -2t105.5 -2q35 0 62 2.5t47 11.5q4 -23 5 -43t1 -28q0 -17 -9.5 -29t-33.5 -14q-18 -1 -45 -0.5t-58 2t-64 3t-63 1.5
l-6 -165q13 2 30 5q14 2 34 3.5t44 1.5q94 0 144 -52.5t50 -141.5q0 -59 -20 -102.5t-55.5 -71.5t-83 -41.5t-101.5 -13.5q-27 0 -57.5 2.5t-56.5 10t-43 21t-17 35.5q0 19 7 42.5t12 35.5q39 -23 78 -35t81 -12q68 0 105 30.5t37 86.5q0 55 -34 86t-104 31z" />
    <glyph glyph-name="six" unicode="6" horiz-adv-x="566" 
d="M354 570q-34 0 -64 -10t-54 -33.5t-40 -62.5t-23 -96q8 7 22.5 16.5t35 18.5t46.5 15.5t57 6.5q88 0 140.5 -51t52.5 -152q0 -46 -15.5 -88t-45.5 -74t-74 -51t-102 -19q-60 0 -104.5 23t-74 62.5t-44 92t-14.5 111.5q0 99 25 172.5t68.5 122t101 73t123.5 24.5
q51 0 77.5 -12t26.5 -34q0 -15 -2.5 -29.5t-5.5 -25.5q-4 -13 -7 -24q-12 7 -29 12q-14 5 -34 8.5t-43 3.5zM299 331q-23 0 -43.5 -5.5t-37.5 -13.5t-30 -16.5t-20 -14.5q0 -53 9 -90.5t26 -61.5t41 -35t54 -11q27 0 49 10t37 27.5t23 41t8 49.5q0 56 -26.5 88t-89.5 32z
" />
    <glyph glyph-name="seven" unicode="7" horiz-adv-x="481" 
d="M223 0q-15 -4 -35.5 -7t-50.5 -3q-46 0 -32 40q28 76 56.5 144t59 133t63 129.5t68.5 133.5l-69 -5q-29 -2 -62.5 -4t-65.5 -3.5t-59 -2.5t-43 -1q-22 0 -27.5 8t-5.5 23q0 14 1.5 38t6.5 44l32 -4q14 -2 27.5 -2.5t24.5 -0.5h64.5t74.5 1q42 1 88 2q41 0 69 -0.5
t51 -4.5q1 -8 1.5 -14.5t0.5 -12.5q0 -23 -3 -39.5t-12 -35.5q-32 -62 -60 -122t-54.5 -122.5t-51.5 -129t-49 -141.5q-3 -9 -4.5 -17t-2.5 -13q-1 -6 -1 -11z" />
    <glyph glyph-name="eight" unicode="8" horiz-adv-x="578" 
d="M508 513q0 -55 -29.5 -93.5t-91.5 -66.5q29 -14 55 -30.5t46 -37.5t31.5 -49t11.5 -65q0 -42 -18 -76.5t-50.5 -58.5t-79 -37.5t-103.5 -13.5q-115 0 -174 47t-59 122q0 33 11.5 61t31 50.5t45 40t54.5 30.5q-54 29 -86.5 68t-32.5 101q0 38 16 69.5t45.5 54t71 35
t92.5 12.5q53 0 93 -13t66.5 -35t40 -51.5t13.5 -63.5zM420 166q0 22 -11 40t-31 33.5t-48.5 30t-64.5 30.5q-59 -29 -83.5 -62t-24.5 -70q0 -35 31 -61.5t100 -26.5q63 0 97.5 25t34.5 61zM178 510q0 -22 9.5 -39t27 -31t42.5 -27t55 -26q45 22 66 51.5t21 58.5
q0 40 -29 64t-86 24q-55 0 -80.5 -23t-25.5 -52z" />
    <glyph glyph-name="nine" unicode="9" horiz-adv-x="566" 
d="M212 91q34 0 64 10t53.5 33.5t39.5 62t23 96.5q-8 -7 -22.5 -16.5t-34.5 -18.5t-46 -15.5t-57 -6.5q-88 0 -140.5 51t-52.5 152q0 46 15.5 88t45.5 74t74 51t102 19q60 0 104.5 -23t74 -62.5t44 -92t14.5 -111.5q0 -99 -25 -172.5t-68.5 -122t-101.5 -73t-123 -24.5
q-51 0 -77.5 12t-26.5 34q0 15 2 29t5 25q3 12 7 24q12 -7 29 -12q14 -5 34 -8t44 -3zM267 329q23 0 43.5 5.5t37 13.5t29.5 17t21 15q0 106 -36 151.5t-94 45.5q-27 0 -49 -10t-37 -27.5t-23 -40.5t-8 -49q0 -57 26.5 -89t89.5 -32z" />
    <glyph glyph-name="colon" unicode=":" horiz-adv-x="228" 
d="M58 484q9 2 19 5q8 2 19 3.5t22 1.5q32 0 46 -15.5t14 -53.5q0 -11 -1.5 -20.5t-3.5 -17.5q-2 -9 -4 -17q-7 -3 -16 -5q-17 -5 -39 -5q-11 0 -25 3t-24 13q-9 9 -12 21.5t-3 25.5q0 17 3 36t5 25zM58 116q9 2 19 5q8 2 19 4t22 2q32 0 46 -16t14 -54q0 -11 -1.5 -20.5
t-3.5 -17.5q-2 -9 -4 -17q-7 -3 -16 -5q-8 -2 -17.5 -3t-21.5 -1q-11 0 -25 3t-24 13q-9 9 -12 21t-3 25q0 18 3 36.5t5 24.5z" />
    <glyph glyph-name="semicolon" unicode=";" horiz-adv-x="219" 
d="M77 484q9 2 19 5q8 2 19 4t22 2q32 0 46 -16t14 -54q0 -11 -1.5 -20.5t-3.5 -17.5q-2 -9 -4 -16q-7 -3 -16 -5q-17 -5 -39 -5q-11 0 -25 3t-24 13q-9 8 -12 21t-3 26q0 17 3 35.5t5 24.5zM194 72q0 -33 -15 -69t-36 -66t-42 -49.5t-33 -19.5q-15 0 -27 5q-6 2 -12 5
q22 40 33 67.5t15.5 51.5t4 48.5t-1.5 59.5q11 2 23 5q11 2 23 3.5t24 1.5q22 0 33 -8.5t11 -34.5z" />
    <glyph glyph-name="less" unicode="&#x3c;" horiz-adv-x="479" 
d="M71 263q-15 10 -19.5 20.5t-4.5 19.5v11q0 3 1 5l350 223q6 -5 12 -12q5 -6 11.5 -14t12.5 -16q5 -7 6 -11.5t1 -9.5q0 -8 -7 -14t-21 -15q-21 -14 -51 -32.5t-63 -38.5t-66 -41t-61 -39v-2q28 -17 63.5 -38t73.5 -43t75.5 -44.5t70.5 -42.5l-6 -14q-3 -6 -6 -14t-7 -15
q-7 -13 -15 -20.5t-19 -7.5q-10 0 -26 11z" />
    <glyph glyph-name="equal" unicode="=" horiz-adv-x="598" 
d="M59 374q-1 6 -2 13q-1 6 -1.5 14t-0.5 17q0 16 9 26t32 10q47 0 104 -2.5t109 -2.5q21 0 51 0.5t61.5 2t60.5 4t50 6.5q2 -6 4 -14q2 -7 3 -15.5t1 -19.5q0 -24 -10 -35t-38 -17q-17 -1 -38.5 -1.5t-43.5 -1t-43 -0.5h-37q-28 0 -62.5 1.5t-70.5 4l-72 5t-66 5.5zM56 177
q0 6 0.5 14t0.5 18q0 17 8 25t31 8q19 0 43.5 -0.5t51.5 -0.5t54.5 -0.5t52.5 -0.5q26 0 57 0.5t62.5 2t61.5 4.5t54 8q2 -8 5 -17q2 -8 3.5 -17.5t1.5 -19.5q0 -18 -8 -31.5t-36 -18.5q-13 -1 -31 -2t-38.5 -1.5t-41 -0.5h-38.5q-32 0 -69.5 1t-76.5 3.5t-77.5 5.5t-70.5 8
v12z" />
    <glyph glyph-name="greater" unicode="&#x3e;" horiz-adv-x="479" 
d="M102 69q-14 -10 -26 -10q-19 0 -33 26q-5 7 -8.5 15t-5.5 14q-3 7 -5 14q33 20 70.5 42.5l75 45t73 43.5t63.5 38v1q-28 18 -61 39t-66 41.5t-63 39t-51 32.5q-14 9 -21 15t-7 14q0 7 7 21q6 8 12.5 16t11.5 14q6 7 12 12l350 -223q0 -2 1 -4q0 -2 0.5 -4.5t0.5 -5.5
q0 -10 -5 -20.5t-19 -20.5z" />
    <glyph glyph-name="question" unicode="?" horiz-adv-x="440" 
d="M165 242q0 32 11 59t28 50t36 44.5t36 43t28 44.5t11 51q0 39 -23 63.5t-71 24.5q-26 0 -46 -3.5t-37.5 -7.5t-32.5 -7.5t-30 -3.5q-18 0 -25 14t-7 46q0 11 0.5 21.5t1.5 18.5q26 -2 46 0t41 5.5t46 6.5t61 3q90 0 138.5 -46.5t48.5 -127.5q0 -38 -12.5 -68t-31.5 -55.5
t-40.5 -48t-40.5 -46t-31.5 -48t-12.5 -54.5q-6 -3 -15 -6q-17 -5 -41 -5q-20 0 -28 8t-8 24zM150 54q0 13 1 24.5t3 19.5q2 10 4 18q3 2 22.5 6.5t37.5 4.5q30 0 45 -16t15 -54q0 -21 -3.5 -37t-5.5 -17q-1 -2 -19 -6t-36 -4q-12 0 -23.5 2.5t-20.5 9.5t-14.5 19t-5.5 30z
" />
    <glyph glyph-name="at" unicode="@" horiz-adv-x="804" 
d="M372 300q28 0 50 -3.5t36 -7.5q17 -4 29 -10q-1 46 -14.5 68t-54.5 22q-26 0 -54.5 -6.5t-54.5 -6.5q-17 0 -24 8t-7 28q0 9 1 21t3 24q6 -2 14 -2.5t14 -0.5q26 0 56 4.5t63 4.5q64 0 99 -32t37 -114q1 -23 1.5 -35.5t0.5 -32.5q0 -47 6.5 -70.5t32.5 -23.5
q32 0 54.5 42.5t22.5 112.5q0 56 -20 102.5t-56.5 80t-87 52t-111.5 18.5q-65 0 -117.5 -21.5t-90 -60.5t-58 -93.5t-20.5 -120.5q0 -64 21 -117.5t58.5 -92t90 -60t116.5 -21.5q42 0 74.5 6.5t55.5 14.5q26 9 46 21q10 -20 15.5 -32.5t5.5 -23.5q0 -17 -16 -25
q-26 -15 -72 -25.5t-115 -10.5q-81 0 -148.5 26.5t-115.5 74t-75 114t-27 146.5q0 83 27.5 152t77 119t119 77.5t152.5 27.5q79 0 144.5 -23.5t112.5 -66t73 -102t26 -131.5q0 -109 -45.5 -171.5t-122.5 -62.5q-81 0 -104 80q-19 -35 -53.5 -57.5t-82.5 -22.5
q-59 0 -93.5 31t-34.5 85q0 31 11.5 54.5t31 38.5t44.5 22.5t53 7.5zM379 136q40 0 68 26t38 61q-11 5 -26 9q-13 3 -30.5 6t-39.5 3q-71 0 -71 -54q0 -24 15 -37.5t46 -13.5z" />
    <glyph glyph-name="A" unicode="A" horiz-adv-x="669" 
d="M482 97q-8 23 -15.5 46t-14.5 48q-9 -1 -26 -2t-38.5 -2t-47 -1.5t-50.5 -0.5q-35 0 -66 1t-49 3q-18 -57 -26 -99.5t-8 -85.5q-11 -2 -24 -4q-11 -2 -27 -3t-36 -1q-24 0 -31 11.5t1 51.5q6 34 23.5 81.5t40 103t48.5 115t50 118t44 113t31 98.5l38 8q17 3 35.5 5.5
t35.5 2.5q19 0 30.5 -2.5t19 -9t13.5 -19.5t14 -34q11 -29 23.5 -78t27.5 -108t32.5 -125t37.5 -130q14 -45 32 -71t47 -26q8 0 13 1v-14q0 -7 0.5 -15t0.5 -18q0 -26 -15 -42.5t-55 -16.5q-20 0 -35.5 3.5t-28.5 14t-23.5 30.5t-21.5 53zM341 592q-15 -34 -32.5 -73
t-35.5 -80.5t-35.5 -83t-32.5 -79.5q18 -1 47.5 -1.5t63.5 -0.5q32 0 64 1.5t49 3.5q-22 87 -40.5 163.5t-47.5 149.5z" />
    <glyph glyph-name="B" unicode="B" horiz-adv-x="635" 
d="M583 212q0 -49 -16 -89.5t-50 -70t-85.5 -45.5t-123.5 -16q-46 0 -85.5 5t-68.5 12q-34 8 -63 18q3 84 5 173.5t2 182.5v83.5t-2 81.5q-1 26 -2.5 44.5t-4 33.5t-5.5 28.5t-7 28.5q127 28 226 28q49 0 93.5 -8t78.5 -28.5t54 -56.5t20 -91q0 -49 -24 -88.5t-70 -62.5
q36 -11 60.5 -28t39.5 -38.5t21.5 -46.5t6.5 -50zM200 102q16 -5 34 -9q16 -4 37 -6.5t45 -2.5q74 0 111 28.5t37 90.5q0 33 -12.5 54.5t-35 34.5t-53.5 18t-67 5h-38t-49 -2q-1 -41 -2 -79t-3 -67q-2 -34 -4 -65zM433 514q0 57 -34.5 79.5t-100.5 22.5q-28 0 -51 -3t-41 -7
q-1 0 -1 -3q1 -26 2 -58q1 -27 1.5 -63t1.5 -78q9 -1 20 -1h59q76 0 110 32t34 79z" />
    <glyph glyph-name="C" unicode="C" horiz-adv-x="606" 
d="M381 -13q-68 0 -127 21.5t-103 64.5t-69.5 108.5t-25.5 152.5q0 73 20.5 141.5t61 120.5t101 83.5t139.5 31.5q31 0 55.5 -1.5t46 -3t41 -3t39.5 -1.5q0 -60 -9 -84t-36 -24q-15 0 -29.5 2.5t-31 5t-36.5 5t-45 2.5q-40 0 -76 -18t-63 -51.5t-42.5 -82.5t-15.5 -112
q0 -121 56 -187.5t151 -66.5q56 0 96 18t65 38q13 -17 20 -39t7 -39q0 -18 -16.5 -33t-43.5 -26t-61 -17t-69 -6z" />
    <glyph glyph-name="D" unicode="D" 
d="M288 612q-16 0 -31 -1.5t-26 -3.5q-14 -3 -26 -5q1 -32 2 -70q1 -32 2 -74.5t1 -90.5q0 -45 -1 -91t-3 -84q-2 -44 -3 -85q11 -5 25 -9q12 -4 30 -6.5t41 -2.5q115 0 167 70.5t52 195.5q0 56 -12 103.5t-39 81.5t-71 53t-108 19zM292 710q73 0 136 -18.5t109.5 -59.5
t73.5 -107.5t27 -163.5q0 -92 -23.5 -161.5t-68.5 -116t-109.5 -69.5t-146.5 -23q-38 0 -73 5.5t-63 12.5q-33 8 -61 19q3 98 4 199.5t1 214.5q0 47 -2.5 112.5t-11.5 128.5q64 14 116 20.5t92 6.5z" />
    <glyph glyph-name="E" unicode="E" horiz-adv-x="574" 
d="M351 -3q-60 0 -129 2.5t-129 7.5q5 85 6 179t1 215q0 48 -0.5 92.5t-2.5 82.5q-2 23 -4 39.5t-5 30t-6.5 25t-7.5 25.5q17 4 39.5 5.5t48.5 1.5q20 0 46.5 -0.5t54.5 -1l56 -1t51 -0.5q38 0 67 1.5t58 5.5q5 -24 6 -41.5t1 -24.5q0 -26 -17.5 -33.5t-67.5 -7.5
q-48 0 -102.5 3t-109.5 3q-1 0 -1 -3q2 -27 3 -59q1 -27 1.5 -61.5t1.5 -72.5q38 -2 81.5 -3.5t100.5 -1.5q14 0 28 0.5t25 1.5q12 1 23 3q1 -8 2 -17q1 -8 2 -17t1 -18q0 -30 -12 -41.5t-41 -11.5q-20 0 -45 1t-53 2.5t-56.5 4t-54.5 4.5q-1 -51 -1.5 -104.5t-2.5 -116.5
h56q24 0 51.5 0.5t50.5 0.5q48 0 84 5t76 16q2 -9 4 -20q2 -9 3.5 -22t1.5 -28q0 -19 -6.5 -29t-26.5 -15t-56 -6t-94 -1z" />
    <glyph glyph-name="F" unicode="F" horiz-adv-x="538" 
d="M223 4q-21 -3 -44 -5.5t-38 -2.5q-23 0 -34.5 8.5t-11.5 30.5q0 141 0.5 252.5t0.5 201.5q0 64 -6.5 119.5t-11.5 87.5q45 6 94 6q40 0 91.5 -1t91.5 -1t70.5 1t65.5 6q5 -25 6 -42.5t1 -24.5q0 -20 -10 -30.5t-34 -10.5q-64 0 -123 3t-125 3q0 -37 1 -73
q1 -31 1.5 -66.5t0.5 -65.5q35 -2 79 -2h101q31 0 52 3q12 1 24 3q2 -15 3.5 -26t1.5 -19q0 -33 -14 -46.5t-52 -13.5q-20 0 -45 0.5t-51 1.5t-52 2.5t-47 4.5q0 -48 0.5 -101t3.5 -110q1 -20 2.5 -36.5t3.5 -29.5q2 -15 4 -27z" />
    <glyph glyph-name="G" unicode="G" horiz-adv-x="679" 
d="M602 400q-1 -16 -2 -33q-1 -14 -1.5 -32t-0.5 -35q0 -22 1.5 -49.5t3.5 -56t3.5 -55t1.5 -45.5q0 -21 -21 -40t-55 -34t-77 -24t-88 -9q-75 0 -132.5 26t-97.5 72.5t-60.5 109.5t-20.5 138q0 78 23 147t66 120t104.5 81t138.5 30q31 0 57 -1.5t49.5 -4t46 -4t46.5 -1.5
q0 -11 -0.5 -28.5t-4.5 -35t-13 -30t-27 -12.5q-15 0 -28 2.5t-30.5 5.5t-41.5 5.5t-60 2.5q-42 0 -79.5 -18t-66 -52t-45 -83t-16.5 -112q0 -62 14 -109.5t40 -80t62.5 -49.5t80.5 -17q39 0 68.5 6.5t55.5 20.5q-2 19 -3.5 43.5t-2 50l-1 51t-0.5 47.5q-39 -2 -69.5 -4.5
t-70.5 -2.5q-30 0 -39.5 8.5t-9.5 34.5q0 9 0.5 20t1.5 21q1 11 3 22q8 -2 19 -3q18 -3 49 -3q25 0 43 1t34 2t32.5 2t38.5 1q29 0 46.5 -1.5t34.5 -5.5z" />
    <glyph glyph-name="H" unicode="H" horiz-adv-x="726" 
d="M522 550q0 15 -1.5 39.5t-3.5 47.5q-2 27 -4 57q21 5 47 7.5t45 2.5q18 0 27.5 -6t9.5 -25q0 -21 -1.5 -57t-3.5 -77.5t-3.5 -83.5t-1.5 -74q0 -47 0.5 -103.5t1 -109.5t2 -95.5t4.5 -62.5q-17 -6 -39.5 -10t-42.5 -4q-27 0 -35 10t-8 23v35.5t0.5 50t1 57.5t1 57t1 48
t0.5 31q-84 6 -199 6q-32 0 -61 -0.5t-51 -1.5q-1 -23 -2 -54.5t-2 -64t-1.5 -63t-0.5 -49.5q0 -14 1 -27.5t3 -24.5q2 -13 4 -25q-17 -4 -40.5 -6t-37.5 -2q-25 0 -34 12.5t-9 44.5q0 13 1 31.5t2 38t2 37.5t1 30q0 33 1 71.5t2 78.5t1.5 77t0.5 67q0 42 -1.5 72.5t-4.5 54
t-7.5 42t-9.5 35.5q27 6 54 11t53 5q11 0 23.5 -2t12.5 -14q0 -20 -1 -57t-2.5 -78.5t-3.5 -81t-3 -64.5q41 3 74.5 4t67.5 1q42 0 84.5 -1.5t84.5 -6.5z" />
    <glyph glyph-name="I" unicode="I" horiz-adv-x="305" 
d="M97 375q0 70 -1 131t-3 102q-1 14 -2.5 29t-3.5 28q-3 15 -5 29q10 2 23.5 4t27.5 3.5t27 2t22 0.5q18 0 28 -6t10 -25q0 -42 -4.5 -120.5t-4.5 -179.5v-117.5t1 -104.5t2 -84.5t3 -56.5q-17 -6 -39 -10t-42 -4q-27 0 -35 10t-8 23q0 19 0.5 52.5t1.5 78t1.5 99
t0.5 116.5z" />
    <glyph glyph-name="J" unicode="J" horiz-adv-x="320" 
d="M108 600q-1 20 -5.5 46t-15.5 51q15 1 28 3q11 2 23.5 3t20.5 1q19 0 31 -1.5t18.5 -6t9.5 -12.5t3 -20q1 -23 1.5 -70.5t1 -107t0.5 -125t0.5 -125t0.5 -106.5v-70q0 -145 -56.5 -217t-149.5 -72q-52 0 -69 12.5t-17 42.5q0 15 2.5 27.5t6.5 22.5q4 11 10 21
q12 -5 25 -9q11 -3 26 -5.5t30 -2.5q18 0 32.5 7.5t25 27t16 54.5t5.5 89v50.5t-0.5 73.5t-1 88t-0.5 94q-1 109 -2 236z" />
    <glyph glyph-name="K" unicode="K" horiz-adv-x="639" 
d="M216 675q-1 -38 -2 -81q-1 -37 -1.5 -84.5t-1.5 -100.5q30 2 53.5 6.5t47.5 21.5q21 15 46.5 43t52 64.5t52.5 78.5t49 84q23 -8 39.5 -15.5t35.5 -17.5q17 -9 19.5 -23t-7.5 -28q-8 -14 -29 -44t-49.5 -67t-62.5 -74t-68 -64q36 -74 67 -125.5t57 -86.5
q13 -17 24.5 -27.5t23 -16t24.5 -7.5t28 -2q1 -8 2 -18q1 -8 2 -18t1 -21q0 -30 -12.5 -43.5t-42.5 -13.5q-48 0 -82.5 23t-63.5 71t-59.5 106t-66.5 134q-17 -4 -36 -5t-46 0q-1 -74 -1.5 -139t-0.5 -104q0 -14 1 -27.5t3 -24.5q2 -13 5 -25q-18 -4 -38 -6t-34 -2
q-31 0 -41 11.5t-10 45.5q1 60 1.5 126t1.5 133.5t1.5 132.5t0.5 124q0 22 -2 39t-5.5 30.5t-7.5 25t-8 24.5q16 4 34 8q15 3 33 5.5t37 2.5q36 0 36 -29z" />
    <glyph glyph-name="L" unicode="L" horiz-adv-x="548" 
d="M79 7q1 27 4.5 75.5t6.5 107t5.5 121t2.5 116.5q0 68 -3 139t-13 129q13 2 28 5q13 2 29 3.5t34 1.5q20 0 26 -6t7 -20q3 -48 4 -96t1 -99q0 -96 -4 -189t-12 -196h94q66 0 125 7t115 30l4 -24q2 -11 3.5 -24t1.5 -25q0 -19 -7.5 -29.5t-27.5 -18.5q-13 -4 -36 -7.5
t-51 -6t-57.5 -4t-55.5 -1.5q-54 0 -107.5 2.5t-116.5 8.5z" />
    <glyph glyph-name="M" unicode="M" horiz-adv-x="866" 
d="M662 695q20 5 43.5 7.5t42.5 2.5t26.5 -7.5t7.5 -27.5q0 -29 -1.5 -83t-3 -128t-3 -164.5t-1.5 -190.5q0 -12 1 -28t3 -31q2 -18 5 -35q-20 -9 -39.5 -11.5t-33.5 -2.5q-34 0 -42.5 8.5t-8.5 27.5q0 9 0.5 30t1 46t1 50.5t0.5 43.5q0 52 0.5 135.5t0.5 178.5
q-18 -32 -36 -65.5t-35 -65.5t-32 -61t-26 -53q-7 -14 -12 -27t-9 -24l-8 -24q-14 -3 -29 -6q-13 -2 -27.5 -4t-27.5 -2q-21 0 -33.5 6t-23.5 20q-23 28 -65.5 105t-96.5 204v-157v-116t1 -167v-27.5t1 -24.5q1 -13 2 -25q-17 -3 -35 -4.5t-32 -1.5q-25 0 -37 10.5t-12 40.5
q0 10 1 28t2 38.5t2.5 39.5t1.5 32q0 36 1 76t1.5 80.5t1 79.5t0.5 72q0 51 -3.5 97t-20.5 99q28 6 58.5 11t56.5 5q11 0 20 -2.5t15 -13.5q12 -24 34.5 -70.5t51 -103t60 -115.5t63.5 -108q32 65 71 135.5t74 130.5q40 70 82 137z" />
    <glyph glyph-name="N" unicode="N" horiz-adv-x="728" 
d="M228 662q81 -138 157.5 -258t153.5 -227q-1 95 -1 189v170q0 15 -2 41.5t-4 52.5q-3 30 -5 64q20 5 41.5 7.5t40.5 2.5q18 0 29 -6.5t11 -25.5q0 -18 -1.5 -50t-4 -69.5t-4 -76t-1.5 -70.5v-93t1 -106t2.5 -106t4.5 -93q-20 -7 -38 -9.5t-32 -2.5q-20 0 -32.5 7t-26.5 25
q-45 57 -88.5 119t-84 123.5t-77.5 122t-68 114.5q-2 -66 -2.5 -146.5t-0.5 -163.5q0 -41 0.5 -88.5t2.5 -104.5q-38 -8 -65 -8t-36.5 9t-9.5 41q0 45 2 93.5t4 94.5q2 85 3.5 173.5t1.5 168.5q0 16 -5.5 45t-18.5 71q11 3 24 6q11 2 26.5 4t32.5 2q29 0 42.5 -9.5
t27.5 -32.5z" />
    <glyph glyph-name="O" unicode="O" horiz-adv-x="751" 
d="M375 -15q-78 0 -138 25.5t-100 72t-60.5 111.5t-20.5 145q0 74 22 142t63 120t100.5 83t133.5 31q80 0 140 -25.5t100 -72t60 -112t20 -144.5q0 -74 -22 -141.5t-63.5 -120t-101 -83.5t-133.5 -31zM379 84q40 0 75.5 19.5t62.5 54.5t42.5 85t15.5 111q0 62 -15 110.5
t-42 82.5t-64 51.5t-81 17.5q-39 0 -75 -18.5t-63.5 -53.5t-43.5 -84.5t-16 -112.5q0 -62 15 -111t42 -83t64.5 -51.5t82.5 -17.5z" />
    <glyph glyph-name="P" unicode="P" horiz-adv-x="625" 
d="M208 129q0 -17 2 -37.5t5 -39.5q3 -22 7 -44l-30 -6q-13 -2 -28 -4t-29 -2q-23 0 -33 7.5t-10 27.5q0 63 3 146t3 199v65t-2 71q-2 51 -9 95.5t-17 74.5q65 14 130.5 20t113.5 6q58 0 106 -12.5t82.5 -39.5t53 -68.5t18.5 -99.5q0 -63 -23 -107t-62 -72t-91 -40.5
t-110 -12.5q-14 0 -28 0.5t-25 2.5q-13 2 -24 4q0 -12 -0.5 -31t-1 -38.5t-1 -37t-0.5 -27.5zM454 487q0 34 -11 58t-31 39.5t-47.5 22.5t-60.5 7q-27 0 -52 -2t-48 -6q-1 0 -1 -4q2 -28 4 -64q2 -31 2.5 -75.5t1.5 -101.5q12 -2 25 -4q11 -2 26 -3t32 -1q81 0 120.5 34.5
t39.5 99.5z" />
    <glyph glyph-name="Q" unicode="Q" horiz-adv-x="751" 
d="M531 -194q-34 0 -67 10t-60.5 32t-48.5 56.5t-31 83.5q-66 8 -116 36.5t-84 74t-51 106.5t-17 134q0 74 22 142t63 120t100.5 83t133.5 31q80 0 140 -25.5t100 -72t60 -112t20 -144.5q0 -68 -19 -131t-54 -113.5t-86 -84.5t-115 -43q21 -45 54 -58.5t73 -13.5q20 0 37 3
q10 2 19 4q1 -8 3 -18q1 -8 2 -20t1 -26q0 -28 -18.5 -41t-60.5 -13zM379 84q40 0 75.5 19.5t62.5 54.5t42.5 85t15.5 111q0 62 -15 110.5t-42 82.5t-64 51.5t-81 17.5q-39 0 -75 -18.5t-63.5 -53.5t-43.5 -84.5t-16 -112.5q0 -62 15 -111t42 -83t64.5 -51.5t82.5 -17.5z
" />
    <glyph glyph-name="R" unicode="R" horiz-adv-x="642" 
d="M574 495q0 -78 -36.5 -129t-106.5 -75q27 -59 48 -95t39.5 -56t34.5 -27t32 -7q11 0 16 1l8 2q0 -8 1 -16t1.5 -16.5t0.5 -17.5q0 -26 -12.5 -45.5t-50.5 -19.5q-34 0 -62 13.5t-54 46t-53 85.5t-58 132h-35q-32 0 -54 3q-13 1 -24 3q-1 -29 -1.5 -63.5t-0.5 -56.5
q0 -29 1.5 -55.5t3.5 -47.5q2 -25 5 -46l-28 -6q-12 -2 -26.5 -4t-28.5 -2q-21 0 -32 7t-11 33q0 74 3.5 168.5t3.5 202.5q0 71 -4.5 138.5t-24.5 138.5q32 6 65.5 10.5t65.5 7.5t61.5 4.5t52.5 1.5q56 0 103.5 -12t82.5 -37.5t54.5 -66t19.5 -97.5zM454 490q0 28 -8.5 51
t-26.5 39.5t-46.5 25.5t-68.5 9q-29 0 -56.5 -3t-46.5 -5q2 -29 4 -66q2 -32 3 -75t1 -95q12 -2 26 -4q24 -3 60 -3q81 0 120 33t39 93z" />
    <glyph glyph-name="S" unicode="S" horiz-adv-x="563" 
d="M281 88q58 0 88 26.5t30 68.5q0 20 -5 36.5t-20.5 31t-43.5 27.5t-74 26q-100 28 -149 74t-49 126q0 54 19 93t50.5 64.5t73.5 37.5t87 12q59 0 107 -7.5t82 -7.5v-6q0 -3 0.5 -7t0.5 -9q0 -84 -41 -84q-14 0 -29.5 3t-33.5 7t-40 7t-49 3q-54 0 -83 -24t-29 -69
q0 -17 4 -31t17.5 -27t38.5 -25t68 -25q50 -15 89.5 -32t67 -41.5t42 -59t14.5 -83.5q0 -51 -21 -90t-55.5 -64.5t-79 -38.5t-92.5 -13q-47 0 -86.5 6.5t-68 17.5t-44.5 27t-16 35q0 24 7.5 44.5t20.5 43.5q20 -15 40.5 -28.5t44 -23t52.5 -15.5t65 -6z" />
    <glyph glyph-name="T" unicode="T" horiz-adv-x="566" 
d="M23 607q-1 10 -2 21q-1 9 -1.5 19t-0.5 18q0 20 8.5 29.5t31.5 9.5q25 0 55.5 -0.5t62.5 -1.5t64.5 -1.5t61.5 -0.5q87 0 148 2t96 14q1 -12 2 -23q1 -10 2 -22t1 -23q0 -24 -7 -35.5t-35 -14.5q-13 -1 -32.5 -2t-42 -1.5t-47 -0.5h-48.5q0 -77 -1 -155.5t-1 -147.5
v-44.5t0.5 -58t1 -60t0.5 -48.5q0 -14 1 -27t3 -24q2 -13 4 -25q-17 -5 -38 -6.5t-35 -1.5q-24 0 -33.5 5.5t-14.5 16.5q-3 9 -4.5 27t-1.5 39q0 50 1 115t2 134.5t2.5 137.5t1.5 124q-29 1 -59 2t-57.5 2.5t-50.5 3.5t-38 4z" />
    <glyph glyph-name="U" unicode="U" horiz-adv-x="701" 
d="M485 690q22 7 43 11t44 4q19 0 28 -7t11 -27q5 -47 7.5 -104t2.5 -117q0 -102 -9 -187t-39 -147t-86 -96.5t-150 -34.5q-69 0 -117.5 20t-78.5 57t-43.5 88t-13.5 114q0 37 0.5 77.5t1 77t1 66.5t0.5 45q0 30 -1 52t-3 39.5t-5 33.5t-7 35q29 7 51.5 11t43.5 4
q26 0 33.5 -7.5t7.5 -26.5q0 -85 -5.5 -167.5t-5.5 -176.5q0 -62 7 -107t23.5 -74.5t44 -43.5t68.5 -14q57 0 90.5 24t51 64t22.5 92.5t5 109.5q0 32 -1.5 75.5t-4.5 87.5t-7 83.5t-10 65.5z" />
    <glyph glyph-name="V" unicode="V" horiz-adv-x="647" 
d="M7 676q26 14 49.5 23t44.5 9q20 0 31 -8.5t19 -31.5q54 -140 97 -285.5t76 -284.5q29 64 59 142t54.5 158.5t41 158.5t19.5 142q10 2 21 4q10 2 24 3.5t33 1.5q20 0 30 -7t10 -30q0 -25 -10 -73.5t-29 -112.5t-46.5 -140t-62.5 -156q-17 -38 -29 -70t-20 -56
q-10 -28 -17 -52q-14 -4 -32 -8q-15 -3 -34.5 -5.5t-42.5 -2.5q-35 0 -50 14.5t-25 55.5q-18 70 -40.5 150t-49 160.5t-57 158t-64.5 142.5z" />
    <glyph glyph-name="W" unicode="W" horiz-adv-x="952" 
d="M552 577q0 -7 -0.5 -14t-1.5 -14l-2 -16q11 -63 23 -123.5t25 -116t26.5 -104t28.5 -86.5q29 66 55 137.5t45.5 146t31.5 151.5t15 155q10 2 21 5q10 2 23.5 4t30.5 2q19 0 30 -5.5t11 -25.5q0 -31 -8 -79t-21 -104.5t-30.5 -116t-36.5 -114.5q-27 -77 -50.5 -138
t-36.5 -109q-16 -4 -34 -8q-15 -3 -33.5 -5.5t-37.5 -2.5q-21 0 -33.5 4t-21 12.5t-14 22t-11.5 31.5q-6 19 -13.5 46.5t-15.5 60.5t-15.5 69.5t-13.5 72.5q-13 -38 -26.5 -76.5t-28.5 -76.5q-16 -42 -29.5 -76t-24.5 -74q-17 -4 -35 -8q-16 -3 -36 -5.5t-41 -2.5
q-18 0 -29.5 4t-19 12.5t-12.5 21.5t-10 32q-20 76 -39.5 160.5t-41.5 166t-47.5 155t-56.5 128.5q56 28 101 28q20 0 30 -8t17 -29q42 -133 75 -277t68 -293q21 46 43 100.5t40 108.5t30 103.5t12 85.5q0 19 -2.5 38.5t-4.5 36.5q-4 19 -7 37q29 9 49.5 12.5t37.5 3.5
q23 0 37.5 -10t14.5 -36z" />
    <glyph glyph-name="X" unicode="X" horiz-adv-x="641" 
d="M576 593q-12 -18 -32 -45.5t-45.5 -60t-55.5 -68.5t-61 -73q37 -56 72.5 -107.5t62.5 -84.5q21 -26 37.5 -35t42.5 -9h12q4 0 6 1q1 -8 3 -18q1 -8 2 -19.5t1 -25.5q0 -28 -15.5 -41t-50.5 -13q-17 0 -30.5 2t-25 8t-23 16.5t-24.5 27.5q-13 15 -30 39.5t-36 54t-39 61
t-38 61.5q-42 -48 -76 -96.5t-60 -87.5q-30 -46 -54 -87q-14 3 -26 7q-25 7 -45 19q-13 8 -20 15t-7 16q0 11 12 28q15 21 39 52t53.5 67.5t62.5 76t66 76.5q-27 41 -55.5 83t-57 81.5t-56 75t-51.5 64.5q22 22 47 36.5t51 14.5q11 0 18.5 -4t17.5 -19q13 -19 31.5 -48
t39.5 -62.5t43.5 -69.5t44.5 -70q68 82 108.5 147.5t70.5 127.5q25 -11 44.5 -19t29.5 -15q19 -10 19 -28q0 -19 -23 -52z" />
    <glyph glyph-name="Y" unicode="Y" horiz-adv-x="592" 
d="M140 679q23 -38 46 -80t44 -84.5t40 -85t35 -80.5q29 38 55.5 82t48 90t36.5 91.5t21 87.5q11 1 23 2q10 1 22.5 2t25.5 1q44 0 44 -32q0 -13 -4 -25q-9 -33 -31.5 -83t-54 -107t-69 -115t-76.5 -107q1 -37 2 -65.5t3 -66.5q3 -44 8 -69q3 -14 5 -23q-26 -10 -50 -13
t-44 -3q-21 0 -27.5 10.5t-6.5 30.5q0 16 0.5 38.5t1 48.5t1 54t0.5 54q-19 50 -48.5 111.5t-63 122t-68 113t-62.5 83.5q10 6 23 14t27 15t28 11.5t25 4.5q22 0 40 -28z" />
    <glyph glyph-name="Z" unicode="Z" horiz-adv-x="571" 
d="M32 105q49 61 96.5 121t94.5 121.5t93.5 126t93.5 134.5q-42 -2 -90.5 -3.5t-95 -3t-85.5 -2t-60 -0.5t-28 9.5t-7 25.5q0 14 2.5 33t7.5 40q17 -2 33 -4q14 -2 29 -2.5t28 -0.5q29 0 62.5 0.5t67.5 1t67 1t62 0.5q46 0 72 -0.5t49 -4.5q3 -11 5.5 -22.5t2.5 -25.5
q0 -16 -3.5 -34.5t-17.5 -41.5q-29 -45 -68 -102t-85.5 -120t-97.5 -129t-103 -129h63q27 0 57 0.5t54 2.5q42 2 77 7.5t60 11.5q29 7 52 15q2 -10 5 -21q2 -10 3.5 -24t1.5 -32q0 -24 -10.5 -32.5t-33.5 -13.5q-16 -3 -40.5 -5t-53 -3.5t-59 -2.5t-58.5 -1q-33 0 -67 0.5
t-63 1.5t-50.5 2t-31.5 3q-18 2 -25.5 11.5t-7.5 34.5v17t1 18q0 10 1 21z" />
    <glyph glyph-name="bracketleft" unicode="[" horiz-adv-x="288" 
d="M151 746h32t33.5 1t32 2t26.5 3q1 -7 2 -15q1 -7 2 -16t1 -19q0 -23 -6.5 -31t-30.5 -9q-18 -1 -37.5 -1h-39.5q0 -29 -0.5 -67t-1 -81.5t-1 -90.5t-0.5 -94q0 -65 -0.5 -128t-1 -119t-1.5 -103t-1 -78q30 0 60.5 1.5t55.5 3.5l2 -16q1 -7 2 -16t1 -18q0 -22 -6.5 -29.5
t-30.5 -9.5q-5 0 -17 -0.5t-26.5 -0.5h-28.5h-23q-30 0 -46.5 3.5t-24 14.5t-9 33t-1.5 60q0 30 0.5 80.5t1 112.5t1.5 130t1.5 133t1 122t0.5 96q0 11 -0.5 29t-1.5 38.5t-2.5 41.5t-3.5 38q12 -1 26 -1h60v0z" />
    <glyph glyph-name="backslash" unicode="\" horiz-adv-x="387" 
d="M-1 674q-6 15 -3 25t19 15q14 5 33.5 9.5t46.5 8.5q5 -27 12.5 -51.5t22.5 -66.5q13 -36 31.5 -82.5t39 -96t41 -97t36.5 -85.5q4 -11 14 -33t22 -50t25 -58t24 -56.5t18.5 -46t8.5 -25.5q2 -9 -1 -17t-20 -15q-13 -5 -32.5 -8.5t-32.5 -6.5q-2 12 -6 25q-3 11 -7 24
t-9 25q-6 17 -18.5 46.5t-28 65.5t-32 75.5t-32 75t-27.5 64t-18 43.5q-5 14 -22 52t-37 83.5t-39 89t-29 68.5z" />
    <glyph glyph-name="bracketright" unicode="]" horiz-adv-x="288" 
d="M137 746h59q14 0 27 1q-2 -17 -3.5 -38t-2.5 -41.5t-1.5 -38.5t-0.5 -29q0 -39 0.5 -96t1.5 -122t2 -133t1.5 -130t1 -112.5t0.5 -80.5q0 -38 -1.5 -60t-9 -33t-24 -14.5t-47.5 -3.5h-23h-28.5t-27 0.5t-16.5 0.5q-23 2 -30 9.5t-7 29.5q0 9 0.5 18t1.5 16q1 8 3 16
q25 -2 55.5 -3.5t61.5 -1.5q0 31 -1 78t-2 103t-1.5 119t-0.5 128q0 47 -0.5 94t-1 90.5t-1 81.5t-0.5 67h-39.5t-37.5 1q-23 1 -30 9t-7 31q0 10 0.5 19t1.5 16q1 8 3 15q23 -4 59 -5t65 -1z" />
    <glyph glyph-name="asciicircum" unicode="^" horiz-adv-x="500" 
d="M260 702q28 -32 52.5 -60.5t48 -54.5t47.5 -52t53 -53q19 -18 19 -29t-15 -25q-8 -7 -14.5 -13.5t-12.5 -11.5q-7 -6 -13 -11q-51 52 -89 96t-79 94q-48 -55 -83.5 -95.5t-69.5 -75.5q-13 -13 -24 -13q-8 0 -15.5 5.5t-16.5 14.5q-7 7 -12 14t-9 12q-4 6 -7 11
q59 55 121 121t119 126z" />
    <glyph glyph-name="underscore" unicode="_" horiz-adv-x="638" 
d="M55 -104q0 5 0.5 11.5t0.5 16.5q0 17 4 25.5t27 8.5q54 0 116 -1.5t126.5 -1.5t128 1t120.5 5q1 -5 2 -11q1 -5 2 -12.5t1 -17.5q0 -23 -7 -32.5t-30 -9.5q-46 0 -110.5 0.5t-133 1.5t-134 2.5t-113.5 4.5v9z" />
    <glyph glyph-name="grave" unicode="`" horiz-adv-x="238" 
d="M6 673q13 31 28.5 52t32.5 23q5 0 9 -1t9 -6q21 -21 37.5 -36t33 -29.5t35.5 -30t44 -36.5q-5 -23 -12 -33t-15 -10q-5 0 -13 2q-39 13 -88.5 41.5t-100.5 63.5z" />
    <glyph glyph-name="a" unicode="a" horiz-adv-x="554" 
d="M442 -4q-37 0 -46 24t-9 76q-9 -21 -24 -40t-36 -34t-48.5 -24t-62.5 -9q-80 0 -126 38t-46 121q0 31 10.5 60t34 51t60 35t89.5 13q54 0 92 -6.5t56 -11.5v17q0 56 -27 81.5t-79 25.5q-23 0 -44 -3.5t-40.5 -7t-37.5 -7t-35 -3.5q-22 0 -30 10t-8 36q0 19 3 36
q2 10 4 19q2 -1 6 -1h13q31 0 75 6t112 6q99 0 144.5 -49t45.5 -154v-116q0 -55 4 -97t16 -80q-26 -12 -66 -12zM229 82q37 0 64.5 13t47 32.5t31 42t14.5 42.5v6q-15 4 -45 8.5t-69 4.5q-54 0 -85 -20t-31 -60q0 -38 20.5 -53.5t52.5 -15.5z" />
    <glyph glyph-name="b" unicode="b" horiz-adv-x="588" 
d="M52 8q15 71 18 145.5t3 163.5v296q0 16 -4.5 45t-15.5 55q14 1 26 3q11 2 22.5 3t19.5 1q39 0 50 -8t11 -33q0 -63 -0.5 -127.5t-2.5 -135.5h1q15 25 38 45q20 17 49.5 31.5t71.5 14.5q46 0 84 -18t65 -50.5t41.5 -78t14.5 -100.5q0 -56 -15.5 -105t-44.5 -86t-72 -58
t-98 -21q-39 0 -67 9.5t-46 21.5q-21 13 -35 31q-5 -32 -15.5 -43.5t-33.5 -11.5q-19 0 -32 2.5t-33 8.5zM310 414q-36 0 -61 -17t-41 -37q-18 -24 -31 -54v-85.5t-2 -85.5q11 -16 28 -28q14 -11 36 -19t51 -8q35 0 61.5 12.5t44 35t26.5 53t9 67.5q0 81 -33.5 123.5
t-87.5 42.5z" />
    <glyph glyph-name="c" unicode="c" horiz-adv-x="476" 
d="M295 505q25 0 44 -2.5t35.5 -5t32.5 -5t36 -2.5q0 -15 -1 -28q-1 -12 -3 -24.5t-5 -21.5q-6 -12 -14 -16t-21 -4q-11 0 -21 2.5t-22.5 6t-28 6t-37.5 2.5q-33 0 -57.5 -13t-41.5 -35.5t-25.5 -53t-8.5 -64.5q0 -72 37 -118t106 -46q38 0 68 12.5t55 31.5q12 -15 18 -35
t6 -37q0 -14 -14 -26t-36.5 -20.5t-51 -13.5t-56.5 -5q-56 0 -101.5 17.5t-77.5 50t-49 78.5t-17 103q0 59 18.5 108t51.5 84t79 54.5t102 19.5z" />
    <glyph glyph-name="d" unicode="d" horiz-adv-x="587" 
d="M274 506q35 0 61.5 -8.5t43.5 -18.5q20 -11 33 -26q0 37 1 70q0 28 0.5 54.5t0.5 39.5q0 20 -2.5 36t-4.5 29q-3 14 -6 27q23 6 42 8.5t41 2.5q23 0 31.5 -11.5t8.5 -35.5q0 -94 -4.5 -190.5t-4.5 -193.5v-122.5t3 -100.5q1 -15 3.5 -27t4.5 -20q3 -10 5 -16
q-13 -4 -32.5 -5.5t-30.5 -1.5q-20 0 -34 6.5t-20 30.5q-5 18 -5 48h-1q-29 -48 -71 -70t-89 -22q-46 0 -83.5 17.5t-64.5 50t-41.5 78t-14.5 101.5q0 57 15.5 106.5t44.5 86t72 57t98 20.5zM412 363q-11 15 -28 26q-14 10 -35.5 18.5t-49.5 8.5q-69 0 -105.5 -45.5
t-36.5 -126.5q0 -75 33.5 -118.5t87.5 -43.5q37 0 62 17t41 38q18 24 29 55q0 15 0.5 54.5t1.5 116.5z" />
    <glyph glyph-name="e" unicode="e" horiz-adv-x="554" 
d="M497 224q-85 -6 -169.5 -6.5t-170.5 1.5q6 -70 48 -104t105 -34q38 0 66 7t46 16q21 11 35 24q8 -11 15.5 -30.5t7.5 -38.5q0 -15 -14 -27.5t-38 -21.5t-56 -14.5t-68 -5.5q-63 0 -111.5 18t-81.5 50t-50 77.5t-17 99.5q0 61 18 111.5t51 86t79.5 55t103.5 19.5t97 -17
t65.5 -45.5t37 -64.5t11.5 -75q0 -17 -1.5 -32t-3.5 -26q-3 -13 -5 -23zM160 295q18 0 46.5 -0.5t61 -0.5h67t66.5 1v17q0 21 -5.5 40t-18.5 33.5t-33 23.5t-48 9q-52 0 -88.5 -32.5t-47.5 -90.5z" />
    <glyph glyph-name="f" unicode="f" horiz-adv-x="353" 
d="M209 407v-123q0 -59 1 -100.5t3.5 -73t6.5 -56.5t10 -50q-20 -5 -41 -6.5t-37 -1.5q-24 0 -34.5 11t-11.5 34q-1 25 -2 67.5t-1.5 93t-0.5 104.5v102l-83 1q-1 3 -1 7v20q0 10 1.5 21t7 20.5t15 15.5t26.5 6h34v40q0 51 16.5 86t42 56t57.5 30t62 9q22 0 37.5 -1t32.5 -1
h14q4 0 7 1v-23q0 -10 -0.5 -21t-0.5 -19q-2 -18 -8.5 -25.5t-22.5 -7.5q-17 0 -32 2.5t-30 2.5q-29 0 -47 -16t-20 -54q0 -7 -0.5 -24t-0.5 -38h38h31.5t24.5 1q11 1 21 2q0 -9 1 -19q0 -8 0.5 -17t0.5 -17q0 -25 -10 -32t-33 -7h-74z" />
    <glyph glyph-name="g" unicode="g" horiz-adv-x="564" 
d="M259 162q-19 0 -37 2.5t-35 7.5q-5 -5 -9 -12t-4 -15q0 -6 2 -12t9.5 -11.5t21.5 -9.5t38 -6l120 -10q72 -6 112 -41t40 -101q0 -37 -15.5 -69.5t-46.5 -56.5t-77.5 -38t-108.5 -14q-114 0 -169 38.5t-55 105.5q0 24 8.5 42t21 31.5t27.5 22.5t28 15q-48 26 -48 76
q0 18 6.5 32t15 24.5t17.5 18t14 10.5q-34 20 -54.5 52.5t-20.5 80.5q0 40 15 73.5t43.5 57.5t68 37.5t89.5 13.5q29 0 57 -5.5t52 -16.5q25 54 54.5 76t60.5 22q49 0 49 -48q0 -9 -1 -18t-2 -16q-1 -9 -2 -16q-32 -1 -58 -7.5t-50 -28.5q18 -20 28.5 -46t10.5 -59
q0 -40 -15 -73.5t-43 -57.5t-68 -37.5t-90 -13.5zM216 9q-10 0 -20 2q-4 1 -9 1q-12 -11 -23 -30.5t-11 -45.5q0 -43 31.5 -61.5t99.5 -18.5q34 0 59 7t41.5 19t24 26.5t7.5 29.5q0 27 -16.5 42t-60.5 19zM268 431q-51 0 -77.5 -28t-26.5 -70q0 -39 25 -66.5t78 -27.5
q51 0 77 27.5t26 68.5q0 42 -25 69t-77 27z" />
    <glyph glyph-name="h" unicode="h" horiz-adv-x="578" 
d="M513 219q0 -56 1.5 -113.5t10.5 -102.5q-14 -2 -27 -4q-11 -2 -23.5 -2.5t-21.5 -0.5q-17 0 -27 3t-15 8.5t-6 14.5t-1 21q0 24 0.5 57t1.5 69t1.5 72t0.5 66q0 104 -85 104q-45 0 -80.5 -25t-65.5 -72q-2 -52 -2.5 -107t-0.5 -106q0 -35 2 -54.5t6 -39.5
q-42 -11 -78 -11q-23 0 -30 10t-7 29q0 76 3 155t3 160q0 48 -0.5 93.5t-0.5 81.5q-1 42 -1 79q0 19 -3.5 38.5t-7.5 35.5q-4 18 -10 35q14 1 27 3q11 2 23 3t20 1q38 0 50.5 -7.5t12.5 -32.5q0 -60 -2.5 -131t-4.5 -137q35 43 78 69t107 26q42 0 71 -13t47 -36.5t26 -57
t8 -74.5v-107v0z" />
    <glyph glyph-name="i" unicode="i" horiz-adv-x="251" 
d="M74 381q0 25 -2.5 45t-5.5 34q-4 17 -8 29q18 5 38 8.5t46 3.5q46 0 46 -38q0 -34 -1.5 -75.5t-4 -87.5t-4 -93t-1.5 -92q0 -41 1.5 -70t3.5 -37q-23 -7 -35 -9t-34 -2q-46 0 -46 46q0 89 3.5 177.5t3.5 160.5zM66 690q3 1 22.5 5.5t37.5 4.5q30 0 45 -10.5t15 -48.5
q0 -16 -3.5 -28.5t-5.5 -14.5q-1 -1 -19 -5t-36 -4q-29 0 -46.5 10.5t-17.5 39.5q0 14 2.5 27.5t5.5 23.5z" />
    <glyph glyph-name="j" unicode="j" horiz-adv-x="253" 
d="M62 689q1 1 7 2.5t14.5 3.5t18 3.5t18.5 1.5q31 0 46 -10.5t15 -48.5q0 -16 -3.5 -28t-4.5 -14q-2 -2 -20 -6t-36 -4q-29 0 -46.5 10.5t-17.5 38.5q0 15 2.5 28.5t6.5 22.5zM-31 -150q28 13 49.5 32t36 49t22 74.5t7.5 110.5q0 33 -0.5 76t-1 86.5t-2 82.5t-3.5 63
q-1 12 -4 24t-6 22q-4 11 -9 23q14 7 36 9t33 2q19 0 30 -3.5t16.5 -12.5t7.5 -24t4 -39q1 -15 2 -51.5t1.5 -81t0.5 -89.5v-77q0 -99 -18.5 -167t-44 -110t-53 -60t-45.5 -18q-20 0 -36 24q-6 8 -10.5 18t-7.5 18q-4 10 -5 19z" />
    <glyph glyph-name="k" unicode="k" horiz-adv-x="531" 
d="M178 294q35 2 54 9t38 25q17 16 34.5 36.5t34.5 43.5t33 47.5t30 47.5q9 -2 19 -5q8 -2 16.5 -6t15.5 -8q26 -16 31.5 -31.5t-9.5 -37.5q-29 -42 -61.5 -79t-73.5 -70l11 -22t19 -35.5t25 -41t29 -39.5q17 -20 31 -26t42 -6q1 -7 2 -15q1 -7 1.5 -15.5t0.5 -18.5
q0 -30 -13 -41.5t-42 -11.5q-15 0 -30 2.5t-30 11t-30 25t-30 44.5q-10 18 -20 38t-19.5 39.5t-17.5 37t-14 30.5q-15 -3 -33.5 -4.5t-42.5 -0.5l1 -136q0 -27 3.5 -46.5t5.5 -27.5q-16 -5 -37.5 -8t-40.5 -3q-23 0 -31 13.5t-9 32.5q-2 69 -2 133.5t1 129t1.5 130.5
t0.5 138q0 32 -3 67.5t-9 73.5q15 2 37 4t39 2q26 0 35.5 -8.5t9.5 -37.5q0 -32 -0.5 -63t-1.5 -65.5t-1 -74.5v-90v-87z" />
    <glyph glyph-name="l" unicode="l" horiz-adv-x="277" 
d="M216 95q6 0 12.5 0.5t11.5 1.5l12 2l2 -10t2 -12t1 -15q0 -29 -14 -47.5t-60 -18.5q-30 0 -51.5 9t-35 30t-19.5 55.5t-6 85.5q0 63 1 120t2.5 111.5t2.5 108.5t1 111q0 13 -2 27.5t-4 27.5q-3 15 -5 29q34 9 66 9q30 0 42.5 -8.5t12.5 -26.5q0 -42 -2 -109t-4.5 -141.5
t-4.5 -148t-2 -129.5q0 -38 9 -50t32 -12z" />
    <glyph glyph-name="m" unicode="m" horiz-adv-x="851" 
d="M344 507q54 0 86.5 -24t43.5 -69q10 14 24.5 30.5t34.5 30.5t45.5 23t57.5 9q47 0 76 -16.5t44.5 -44.5t20.5 -65.5t5 -79.5v-151q0 -21 1 -38.5t3 -34t5 -33.5t7 -37q-13 -5 -27.5 -7t-27.5 -3q-15 -1 -29 -1q-21 0 -29.5 7t-8.5 24v65.5t0.5 61t0.5 69v91.5
q0 55 -21 75.5t-58 20.5q-23 0 -41 -9t-33 -22.5t-26 -29.5t-18 -30q-1 -36 -2 -78.5t-1 -87.5q0 -27 0.5 -46.5t1 -35t2 -30.5t3.5 -34q-13 -5 -26 -7t-24 -3q-13 -1 -26 -1q-21 0 -29 9t-8 31q0 28 1 62.5t1.5 71t1.5 73.5t1 70q0 56 -17.5 76.5t-51.5 20.5
q-29 0 -51.5 -15t-37.5 -33q-18 -21 -31 -47q-5 -46 -7.5 -83.5t-2.5 -77.5v-38.5t2 -42.5q0 -6 1 -15.5t2 -19.5t2 -18.5t2 -12.5q-23 -7 -38 -9t-37 -2q-44 0 -44 46q0 90 3.5 168.5t3.5 160.5q0 16 -3 36.5t-6 38.5q-4 21 -9 43q10 2 21 5q10 2 22 4t25 2q21 0 33 -3.5
t18 -13t7.5 -26.5t1.5 -43q16 26 40 46q20 17 49.5 32t70.5 15z" />
    <glyph glyph-name="n" unicode="n" horiz-adv-x="578" 
d="M54 491q10 2 23 4q11 2 25.5 3.5t31.5 1.5t27 -4t15 -13t6.5 -25t1.5 -40q19 25 45 44q23 17 56 31t78 14q42 0 71 -15t47 -41t26 -60.5t8 -74.5q0 -13 -0.5 -34t-0.5 -44.5t-0.5 -48t-0.5 -45.5q0 -32 2 -63t10 -74q-26 -6 -48 -8.5t-36 -2.5q-21 0 -29.5 10t-8.5 26
q0 69 3 137t3 145q0 50 -22.5 73.5t-61.5 23.5q-35 0 -62 -15.5t-45 -33.5q-21 -21 -36 -48q-2 -20 -4 -45q-2 -21 -2.5 -50.5t-0.5 -63.5q0 -32 0.5 -59t1.5 -47q1 -24 2 -42q-20 -5 -39 -8t-42 -3q-17 0 -24 7t-7 31q0 47 2.5 135.5t2.5 203.5q0 17 -3 37.5t-6 38.5
q-4 21 -9 42z" />
    <glyph glyph-name="o" unicode="o" horiz-adv-x="581" 
d="M292 420q-35 0 -60 -13t-42 -36t-25 -55t-8 -69q0 -36 8.5 -66.5t25 -53.5t41 -36t57.5 -13q37 0 62.5 14t41.5 38t23.5 55.5t7.5 65.5q0 35 -9 66t-25.5 54t-41.5 36t-56 13zM44 242q0 57 17 105.5t49.5 84t79 55.5t105.5 20q57 0 102 -18t76 -51t47.5 -79.5
t16.5 -103.5q0 -56 -16.5 -104.5t-48 -84t-77.5 -56t-106 -20.5q-59 0 -105 18t-77 51t-47 79.5t-16 103.5z" />
    <glyph glyph-name="p" unicode="p" horiz-adv-x="589" 
d="M180 416q29 46 71.5 68.5t92.5 22.5q44 0 81 -17.5t63.5 -50t41.5 -78t15 -102.5q0 -55 -15 -104t-44.5 -85.5t-74 -58t-103.5 -21.5q-32 0 -56.5 8t-41.5 18q-20 11 -34 26v-175q0 -13 2 -27t4 -27q3 -15 6 -29q-23 -6 -42 -8.5t-41 -2.5q-23 0 -32 11.5t-9 34.5
q0 42 1 77.5t2 73t2 82.5t1 105v57.5v60t-0.5 56.5t-0.5 48q-1 19 -4 39t-7 37q-4 19 -10 38q12 1 24 3q11 2 23.5 3t24.5 1q24 0 38 -8.5t18 -32.5q1 -8 1.5 -19t0.5 -24h2zM432 250q0 74 -32 119t-89 45q-36 0 -61.5 -17t-41.5 -37q-18 -24 -30 -54q-1 -42 -1.5 -85.5
t-0.5 -88.5q12 -15 29 -26q14 -10 35 -18t50 -8q67 0 104.5 45.5t37.5 124.5z" />
    <glyph glyph-name="q" unicode="q" horiz-adv-x="588" 
d="M455 501q22 0 36 -2.5t37 -9.5q-1 -7 -2 -17q-1 -8 -2 -19.5t-1 -25.5q-4 -94 -6 -177.5t-2 -172.5q0 -26 0.5 -58t1.5 -63t2 -58.5t3 -45.5q1 -15 3 -27.5t4 -21.5q3 -11 5 -19q-9 -2 -20 -4q-18 -3 -41 -3q-26 0 -40 10t-18 45q-3 31 -5 66.5t-2.5 69.5t0 63t0.5 47
q-23 -37 -64.5 -62.5t-95.5 -25.5q-45 0 -82.5 17.5t-64.5 49.5t-42 77.5t-15 101.5q0 57 15.5 106t45.5 86t72.5 58t96.5 21q37 0 63.5 -8.5t43.5 -19.5q20 -12 33 -27q2 13 6 24q4 9 12 17t23 8zM413 364q-12 15 -29 26q-14 10 -35.5 18.5t-49.5 8.5q-37 0 -63.5 -13
t-44 -35.5t-25.5 -54t-8 -68.5q0 -76 32.5 -119.5t89.5 -43.5q21 0 41 8t37.5 22.5t30.5 34.5t21 43q1 47 2 89t1 84z" />
    <glyph glyph-name="r" unicode="r" horiz-adv-x="390" 
d="M370 500q1 -8 1.5 -17.5t0.5 -18.5q0 -13 -1 -26.5t-6 -25t-15.5 -18.5t-29.5 -7q-39 0 -72.5 -5.5t-62.5 -31.5q-4 -42 -6 -84.5t-2 -91.5q0 -43 1 -83t7 -84q-23 -6 -37.5 -8.5t-36.5 -2.5q-45 0 -45 46q0 44 0.5 79.5t1.5 71t1.5 73.5t0.5 86q0 44 -1.5 76t-7.5 65
q8 2 17 4q8 2 18 3.5t21 1.5q19 0 31.5 -4t20 -13t11 -23.5t5.5 -35.5q37 40 74 57t88 17h23v0z" />
    <glyph glyph-name="s" unicode="s" horiz-adv-x="471" 
d="M225 80q52 0 75.5 14.5t23.5 41.5q0 25 -21 40.5t-79 28.5q-50 11 -83 24.5t-52.5 32t-28 42.5t-8.5 55q0 67 48.5 107.5t133.5 40.5q24 0 44.5 -2t41 -4.5t41.5 -5.5t45 -5q0 -1 0.5 -6.5t0.5 -11.5q0 -13 -1 -26.5t-5 -24.5t-12 -18t-22 -7t-29.5 3.5t-33 7.5
t-36.5 7.5t-41 3.5q-40 0 -58 -14.5t-18 -36.5q0 -29 27 -41.5t75 -23.5q49 -11 82.5 -25t53.5 -32.5t28.5 -43t8.5 -56.5q0 -42 -16.5 -71t-44.5 -48t-66.5 -27.5t-81.5 -8.5q-26 0 -56.5 3t-56.5 10t-43.5 18.5t-17.5 29.5q0 22 8 41.5t19 36.5q36 -24 72.5 -36.5
t82.5 -12.5z" />
    <glyph glyph-name="t" unicode="t" horiz-adv-x="375" 
d="M230 577q0 -14 -2 -34t-5 -46h21q10 0 23 0.5t26.5 1t25.5 1t21 1.5q1 -21 2 -32.5t1 -27.5t-8.5 -23.5t-34.5 -7.5h-86q-5 -48 -8.5 -101.5t-3.5 -107.5q0 -33 3.5 -54t11.5 -33t20.5 -16.5t30.5 -4.5q27 0 49 5q11 2 20 5q1 -6 2 -14q1 -7 1.5 -15.5t0.5 -18.5
q0 -21 -8 -33q-8 -14 -29.5 -20.5t-52.5 -6.5q-45 0 -75 11t-48 36t-26 65.5t-8 99.5q0 53 3 102.5t6 100.5h-78q-1 3 -1 7v20q0 29 16.5 44.5t54.5 15.5h15q2 29 2.5 59t1.5 62q11 1 33 2t39 1q25 0 34.5 -9t9.5 -35z" />
    <glyph glyph-name="u" unicode="u" horiz-adv-x="573" 
d="M516 7q-6 -3 -15 -5q-17 -5 -41 -5q-19 0 -32 2.5t-21 11.5t-12.5 25.5t-5.5 44.5q-17 -26 -43 -45q-22 -17 -56 -31t-80 -14q-49 0 -78 18.5t-44 49t-19.5 71.5t-4.5 86q0 53 0.5 96.5t0.5 87.5q0 17 -3.5 42.5t-8.5 48.5q12 3 27 5t29 3l32 2q24 0 30.5 -9t6.5 -28
q0 -69 -4.5 -133.5t-4.5 -133.5q0 -54 19 -82t61 -28q45 0 84 28t60 70q1 39 2 76q1 32 2 65.5t1 56.5q0 12 -1 30t-3 35q-2 20 -3 42q21 6 38.5 8.5t39.5 2.5q24 0 32.5 -11.5t8.5 -35.5q0 -30 -1.5 -63t-3 -72.5t-2.5 -89.5t-1 -114q0 -20 2 -39.5t5 -34.5q3 -18 7 -34z
" />
    <glyph glyph-name="v" unicode="v" horiz-adv-x="520" 
d="M136 463q26 -61 47.5 -127.5t37.5 -122.5q18 -65 34 -128q23 48 41.5 88t32 75.5t23 67.5t15.5 64q7 35 8 60.5t1 49.5q10 2 22 5q10 2 23.5 4t29.5 2q27 0 35 -6.5t8 -23.5q0 -21 -7.5 -56.5t-22 -79.5t-35 -94.5t-46.5 -102.5q-37 -72 -50 -103q-9 -18 -13 -30
q-11 -3 -24 -5q-11 -2 -27 -3t-36 -1q-17 0 -28.5 2.5t-19.5 9t-13.5 18.5t-10.5 31q-19 64 -36 118t-35 103t-38 95t-45 94q26 15 47 24.5t43 9.5q14 0 22.5 -9t16.5 -29z" />
    <glyph glyph-name="w" unicode="w" horiz-adv-x="714" 
d="M391 51q-6 19 -16.5 55.5t-19.5 80.5q-14 -32 -26.5 -58t-26.5 -54q-7 -13 -12 -24.5t-10 -21.5q-5 -11 -9 -22q-22 -6 -42.5 -8.5t-37.5 -2.5t-27.5 3.5t-17 11t-11 20.5t-8.5 32q-18 79 -34 141t-30.5 111t-27.5 86.5t-26 68.5q25 15 45.5 23.5t39.5 8.5q14 0 22 -8.5
t15 -29.5q9 -27 20.5 -67t22.5 -88.5t22 -105t20 -117.5q32 55 52.5 107.5t30.5 100.5q6 31 9 62t1 67q12 5 29.5 8.5t36.5 3.5q22 0 33 -7.5t11 -30.5q0 -10 -1.5 -23t-3.5 -30q14 -81 30 -148t36 -113q44 94 66.5 197t24.5 211q11 2 23 5q11 2 24 4t27 2q24 0 32 -7.5
t8 -21.5q0 -29 -9 -76t-24.5 -101t-35 -110t-40.5 -101q-5 -12 -11 -26t-11 -25q-6 -14 -12 -27q-20 -6 -42.5 -8.5t-35.5 -2.5q-14 0 -25 1.5t-19.5 7t-15.5 16.5t-13 30z" />
    <glyph glyph-name="x" unicode="x" horiz-adv-x="532" 
d="M164 476q13 -19 28 -40.5t29 -43t27.5 -41.5t23.5 -36q37 45 69 94t58 95q17 -2 35.5 -9t27.5 -13q22 -18 22 -34q0 -14 -17 -39q-22 -31 -61 -77.5t-84 -92.5q15 -20 35 -45t43 -49q23 -26 38.5 -36.5t29.5 -10.5q5 0 12.5 0.5t12.5 2.5q1 -8 3 -18q2 -8 3 -19.5
t1 -23.5q0 -23 -12 -34.5t-41 -11.5q-25 0 -49 11.5t-53 47.5q-30 36 -51.5 68.5t-40.5 61.5q-27 -36 -50.5 -70t-40.5 -60q-20 -31 -37 -59q-21 1 -42.5 5.5t-34.5 13.5q-18 13 -18 27q0 11 10 25q10 15 27.5 37t39.5 47t46.5 51.5t49.5 52.5q-38 49 -78.5 99t-85.5 100
q16 17 39 34t49 17q10 0 18 -5.5t19 -21.5z" />
    <glyph glyph-name="y" unicode="y" horiz-adv-x="528" 
d="M108 -119q28 0 53.5 18t57.5 69q-42 121 -80 213.5t-67 155.5q-34 74 -65 127l46 23t43 12q18 0 26 -8t19 -28q25 -58 50 -120q21 -54 45.5 -121.5t44.5 -136.5q22 48 41 101t32.5 106t21.5 103.5t8 94.5q10 2 22 5q11 2 24.5 4t30.5 2q22 0 31.5 -7t9.5 -28
q0 -22 -12.5 -72t-34 -114t-50.5 -135.5t-62 -137.5q-25 -49 -51 -92t-56 -75.5t-64.5 -51t-74.5 -18.5q-32 0 -47 10t-15 38q0 16 3 29.5t8 24.5q5 12 12 23q5 -4 13 -7q14 -7 37 -7z" />
    <glyph glyph-name="z" unicode="z" horiz-adv-x="490" 
d="M39 90q40 42 77 81.5t72 79.5t69 81t67 85q-34 -3 -68.5 -5t-65.5 -4t-56.5 -3t-41.5 -1q-13 0 -21.5 1t-13.5 5.5t-7 13t-2 22.5q0 11 1 21.5t3 18.5q2 10 4 18q14 -2 29 -4q13 -2 27.5 -2.5t28.5 -0.5q26 0 58 0.5t61.5 1.5t52 1.5t30.5 0.5q38 0 59 -0.5t40 -2.5
q3 -15 3 -36q0 -16 -4 -33.5t-15 -35.5q-23 -34 -52 -72.5t-62.5 -78t-70.5 -80t-74 -77.5q38 1 72 2.5t66.5 4.5t65.5 7.5t70 10.5q2 -7 4 -16q2 -8 3 -18t1 -22q0 -27 -8.5 -35t-36.5 -12q-33 -4 -74 -6.5t-87 -2.5q-69 0 -114.5 1.5t-62.5 5.5q-14 3 -19.5 10t-7.5 19
q-1 8 -1 18.5v18.5q0 10 1 19z" />
    <glyph glyph-name="braceleft" unicode="{" horiz-adv-x="305" 
d="M283 -66q7 -22 9.5 -35.5t2.5 -26.5q0 -14 -7.5 -22t-20 -12t-27.5 -5.5t-30 -1.5q-14 0 -32.5 4t-29.5 15q-17 15 -29 40.5t-19.5 58.5t-11 71.5t-3.5 79.5q0 38 3 72t7 72h-56q-16 0 -21 14t-5 31q0 11 1 22t4 23q10 -2 38 -2q46 0 61.5 10t15.5 38q0 25 -4.5 58
t-10 67t-10 65.5t-4.5 52.5q0 23 3 41.5t14 34.5q14 19 40 30.5t52 16.5q30 6 62 8q22 -32 22 -57q0 -21 -18 -28q-11 -2 -24 -4t-24 -6t-18.5 -12t-7.5 -23q0 -23 3.5 -56.5t8 -70.5t8 -73.5t3.5 -63.5q0 -48 -16 -70t-49 -35q11 -4 20 -8t13 -9q-3 -29 -6 -73.5t-3 -92.5
q0 -24 1 -47t3 -42.5t5.5 -33.5t8.5 -19q8 -7 21 -7q14 0 28.5 3t28.5 8z" />
    <glyph glyph-name="bar" unicode="|" horiz-adv-x="171" 
d="M138 726q0 -22 -0.5 -57t-1 -76t-1 -84t-1 -82t-1 -69.5t-0.5 -46.5q0 -31 -0.5 -79.5t-1 -100.5t-1.5 -101.5t-1 -82.5q-1 -33 0.5 -57t3.5 -40q2 -18 5 -30q-17 -2 -32.5 -3.5t-26.5 -1.5q-30 0 -38.5 6t-8.5 22q0 10 1 18.5t2 19.5t2 27t2 41q1 30 2 79t1.5 108.5
t1 124.5t1 127.5t0.5 117.5v94q0 11 -0.5 27.5t-1.5 35t-2.5 37.5t-3.5 36q7 3 17 7q8 3 21 5.5t32 2.5q17 0 24 -7t7 -18z" />
    <glyph glyph-name="braceright" unicode="}" horiz-adv-x="305" 
d="M22 -66q13 -5 28 -8t29 -3q13 0 21 7q5 5 8.5 19t5.5 33.5t3 42.5t1 47q0 48 -3 92.5t-6 73.5q4 5 12.5 9t19.5 8q-32 13 -48 35t-16 70q0 27 3.5 63.5t8 73.5t8 70.5t3.5 56.5q0 15 -7.5 23t-18.5 12t-24 6t-24 4q-18 7 -18 28q0 25 22 57q32 -2 62 -8q26 -5 51.5 -16.5
t40.5 -30.5q11 -16 14 -34.5t3 -41.5q0 -21 -4.5 -52.5t-10.5 -65.5t-10.5 -67t-4.5 -58q0 -28 15.5 -38t62.5 -10q28 0 38 2q3 -12 4 -23t1 -22q0 -17 -5 -31t-22 -14h-55q4 -38 7 -72t3 -72q0 -41 -3.5 -79.5t-11 -71.5t-19.5 -58.5t-29 -40.5q-11 -11 -29.5 -15t-32.5 -4
q-15 0 -30 1.5t-27.5 5.5t-20 12t-7.5 22q0 13 2.5 26.5t9.5 35.5z" />
    <glyph glyph-name="asciitilde" unicode="~" horiz-adv-x="592" 
d="M201 287q-23 0 -40 -10t-28 -22q-13 -14 -22 -31q-9 7 -17 13q-15 12 -28 23q-14 11 -14 24q0 10 11 25t30 29t45.5 24.5t58.5 10.5q35 0 62 -9t50.5 -19.5t46.5 -19t50 -8.5q21 0 35.5 7.5t23.5 17.5q11 11 17 25q6 -5 13 -9q6 -4 13 -9.5t15 -11.5q17 -13 17 -29
q0 -12 -10 -26t-27 -26.5t-40.5 -20.5t-51.5 -8q-37 0 -63 9.5t-48.5 20.5t-45.5 20.5t-53 9.5z" />
    <glyph glyph-name="uni00A0" unicode="&#xa0;" horiz-adv-x="194" 
 />
    <glyph glyph-name="cent" unicode="&#xa2;" horiz-adv-x="457" 
d="M30 348q0 51 14.5 95t40.5 78t62.5 56.5t81.5 31.5q-2 25 -4.5 45t-7.5 38q7 3 17 7q8 3 20 5.5t27 2.5q24 0 28 -7t4 -18v-31t-1 -38q34 -3 59 -8.5t58 -5.5q0 -15 -1 -28q-1 -12 -3 -24.5t-5 -21.5q-5 -12 -13.5 -16t-21.5 -4q-11 0 -21.5 2.5t-23 6t-28 6t-36.5 2.5
q-32 0 -56.5 -12.5t-41.5 -35t-26 -53.5t-9 -67q0 -73 35 -119t107 -46q41 0 71 14.5t53 33.5q12 -14 18 -34.5t6 -37.5q0 -12 -9 -22.5t-24.5 -19.5t-36.5 -15t-44 -9q0 -14 0.5 -25.5t0.5 -22.5q0 -13 1 -22.5t3 -15.5q2 -8 4 -13q-17 -2 -32 -3.5t-26 -1.5
q-26 0 -33.5 6.5t-7.5 30.5q0 29 3 67q-94 13 -148 77.5t-54 171.5z" />
    <glyph glyph-name="sterling" unicode="&#xa3;" horiz-adv-x="526" 
d="M272 283q5 -22 5 -41q0 -41 -15 -69.5t-33.5 -47t-35 -27t-18.5 -9.5q13 0 32.5 -0.5t41 -0.5t43.5 0.5t42 2.5q32 2 58.5 7t46.5 10q23 6 41 13q2 -10 4 -21q2 -10 3.5 -23t1.5 -30q0 -23 -9 -31t-32 -11q-27 -5 -71 -7t-93 -2q-71 0 -120 2.5t-66 5.5q-17 2 -24 8.5
t-7 25.5v19t1 21l2 22q18 10 36.5 23.5t33 31t23.5 39.5t9 49q0 11 -2 21.5t-5 21.5l-96 1q-1 10 -2 21q-1 9 -1.5 18t-0.5 17q0 15 8 21.5t28 6.5h30q-14 29 -24 61t-10 73q0 37 11 67t33.5 52t56 34t78.5 12q43 0 86.5 -7.5t98.5 -9.5q0 -18 -1 -36t-4.5 -32.5t-11.5 -23
t-23 -8.5q-17 0 -33.5 3.5t-34 7t-37 7t-42.5 3.5q-38 0 -54.5 -20t-16.5 -55q0 -33 13 -64.5t27 -63.5h163v-47q0 -24 -9 -33t-25 -9z" />
    <glyph glyph-name="currency" unicode="&#xa4;" horiz-adv-x="656" 
d="M122 319q0 62 32 112q-14 14 -38.5 37.5t-58.5 54.5l10 18q5 8 11 16.5t14 16.5q12 12 22.5 13.5t26.5 -14.5q17 -19 37 -40.5t37 -38.5q26 18 57 28.5t64 10.5q60 0 108 -31q17 16 38.5 40t45.5 54q5 -3 11 -7q5 -4 11.5 -9.5t14.5 -12.5q17 -17 18 -31.5t-18 -35.5
q-10 -11 -26.5 -26.5t-33.5 -30.5q16 -25 25 -53.5t9 -60.5q0 -33 -9.5 -62.5t-26.5 -55.5q17 -16 43.5 -39.5t52.5 -44.5l-8 -12q-4 -5 -9 -11.5t-12 -13.5q-17 -17 -31 -17.5t-36 18.5q-9 7 -27.5 25.5t-33.5 34.5q-25 -17 -54 -26.5t-61 -9.5q-62 0 -109 29
q-15 -14 -38.5 -38t-47.5 -52l-18 10q-8 5 -16.5 11t-16.5 14q-12 12 -13 22.5t14 27.5q15 15 35.5 34.5t37.5 33.5q-17 23 -25 51.5t-8 60.5zM212 324q0 -27 9.5 -49.5t25.5 -39t38 -25.5t47 -9t46.5 9t37.5 25t25.5 39t9.5 50t-9.5 49.5t-25.5 38.5t-37.5 25t-46.5 9
t-47 -9t-38 -25t-25.5 -38.5t-9.5 -49.5z" />
    <glyph glyph-name="yen" unicode="&#xa5;" horiz-adv-x="565" 
d="M339 109q0 -6 0.5 -12.5t0.5 -12.5q2 -17 3.5 -31.5t3.5 -24.5q2 -12 5 -21q-23 -9 -45.5 -12.5t-42.5 -3.5t-26 10t-6 30v80l-154 2q-2 6 -3 13q-1 6 -1.5 13.5t-0.5 15.5q0 28 38 28l122 -1q0 18 0.5 34t0.5 31q-32 1 -60.5 1t-49.5 1q-26 0 -46 1q-2 7 -3 14
q-1 6 -1.5 13.5t-0.5 15.5q0 27 38 27h106q-45 80 -97 156.5t-109 153.5q9 6 20.5 12.5t23.5 12t24.5 9.5t23.5 4t19 -6.5t18 -20.5q40 -55 80.5 -122t75.5 -133q33 45 58 81.5t44 69t31.5 62t18.5 61.5q10 1 21 2q10 1 21.5 1.5t23.5 0.5q23 0 32.5 -7.5t9.5 -21.5
q0 -5 -0.5 -11t-2.5 -13q-14 -42 -61.5 -113.5t-135.5 -177.5h158q0 -14 -1 -27.5t-5 -24t-12.5 -17t-24.5 -6.5h-49t-86 1v-32t1 -32h177q0 -42 -7.5 -58.5t-27.5 -16.5z" />
    <glyph glyph-name="brokenbar" unicode="&#xa6;" horiz-adv-x="183" 
d="M142 164q0 -51 -2 -109t-2 -105q0 -20 0.5 -42t1.5 -42q1 -23 2 -45q-17 -2 -32.5 -3.5t-26.5 -1.5q-17 0 -25 1.5t-13 9.5q-3 6 -4 23t-1 41t1 51t2 52q2 48 2 96t-4 93q7 3 17 7q8 2 21 4.5t32 2.5q24 0 27.5 -11t3.5 -22zM142 718q-3 -63 -4.5 -119.5t-1.5 -104.5
q0 -19 0.5 -41t2.5 -42q1 -23 3 -46q-17 -2 -32.5 -3.5t-26.5 -1.5q-17 0 -25 1.5t-13 9.5q-4 6 -4.5 20t0.5 36t2.5 50t1.5 61v66t-0.5 52.5t-1.5 43t-2 37.5q7 3 17 7q8 2 21 4.5t32 2.5q24 0 28 -11t3 -22z" />
    <glyph glyph-name="section" unicode="&#xa7;" horiz-adv-x="447" 
d="M33 233q0 31 11.5 54.5t28 41.5t34.5 30t32 19q-20 11 -37 24t-30.5 30.5t-21 39t-7.5 49.5q0 35 14 63t38.5 47.5t57.5 29.5t70 10q28 0 48 -2.5t37.5 -5.5t33.5 -5.5t35 -2.5v-16q0 -35 -7 -54t-29 -19q-15 0 -27.5 3.5t-26 7t-30 7t-40.5 3.5q-30 0 -50 -16t-20 -47
q0 -26 20 -44t50 -33t65 -30.5t65 -36.5t50 -49.5t20 -69.5q0 -29 -11 -52.5t-26.5 -40.5t-33 -29t-30.5 -19q20 -11 38.5 -23.5t32 -28.5t21.5 -36t8 -45q0 -41 -18.5 -71t-47.5 -49.5t-66 -29t-74 -9.5q-32 0 -64.5 3.5t-58 11.5t-41.5 20.5t-16 29.5q0 14 4.5 27t9.5 23
q6 11 14 21q20 -13 45 -24q21 -9 50 -16.5t63 -7.5q45 0 69.5 16.5t24.5 47.5q0 23 -20.5 39.5t-51.5 31t-66.5 29t-66.5 35t-51.5 48.5t-20.5 70zM134 249q0 -18 9 -32.5t24.5 -25.5t35.5 -21t42 -19q10 6 22.5 14.5t23 20.5t18 27.5t7.5 34.5q0 18 -9 31.5t-24 25
t-34.5 21t-40.5 19.5q-11 -6 -23.5 -15t-24 -21t-19 -27t-7.5 -33z" />
    <glyph glyph-name="dieresis" unicode="&#xa8;" horiz-adv-x="385" 
d="M38 644q0 11 1 20t3 17q2 9 4 16q3 1 19 4.5t31 3.5q26 0 39 -13.5t13 -45.5q0 -17 -3 -31t-4 -16q-1 -1 -16.5 -4t-30.5 -3q-20 0 -38 10.5t-18 41.5zM235 644q0 22 3 37q1 9 3 16q4 1 20 4.5t31 3.5q26 0 39 -13.5t13 -45.5q0 -17 -3 -31t-5 -16q0 -1 -15.5 -4
t-31.5 -3q-20 0 -37 10.5t-17 41.5z" />
    <glyph glyph-name="copyright" unicode="&#xa9;" horiz-adv-x="778" 
d="M70 301q0 65 25.5 123t69 101.5t101.5 68.5t123 25q66 0 124 -25t101.5 -68.5t68.5 -101t25 -123.5t-25 -123.5t-68 -100t-101.5 -67t-124.5 -24.5t-124.5 24t-101.5 66t-68 99.5t-25 125.5zM125 301q0 -56 20.5 -104.5t56 -84.5t83.5 -57t104 -21q55 0 103.5 21
t84.5 57.5t57 85t21 103.5q0 56 -20.5 104.5t-56.5 84.5t-84.5 57t-104.5 21t-104 -21t-83.5 -57.5t-56 -85t-20.5 -103.5zM391 477q32 0 55.5 -5.5t39.5 -11.5q18 -7 32 -16l-14 -41q-5 -16 -19 -16q-6 0 -13.5 3t-18 6.5t-26 6.5t-37.5 3q-18 0 -35.5 -7.5t-31 -21
t-22 -32.5t-8.5 -42q0 -47 27.5 -72.5t69.5 -25.5q43 0 67 12t35 21q14 -16 20 -29.5t6 -22.5q0 -8 -4 -13t-9 -10q-12 -9 -39 -21t-81 -12q-76 0 -122.5 45.5t-46.5 122.5q0 35 12 67.5t34.5 57t55 39.5t73.5 15z" />
    <glyph glyph-name="guillemotleft" unicode="&#xab;" horiz-adv-x="573" 
d="M248 260q61 57 115 112t102 111q7 -5 15 -9q7 -5 14.5 -10t15.5 -12q16 -16 18 -25t-15 -28q-29 -30 -64 -64t-81 -76q23 -20 44 -38.5t41.5 -37.5t43 -40.5t48.5 -46.5q-7 -8 -13 -15q-5 -7 -11 -14t-11 -12q-17 -17 -28 -18t-28 16q-29 30 -54.5 55t-49.5 49.5t-49 49
t-53 53.5zM28 260q61 57 115 112t102 111q7 -5 15 -9q7 -5 14.5 -10t15.5 -12q16 -16 18 -25t-15 -28q-29 -30 -64 -64t-81 -76q23 -20 44 -38.5t41.5 -37.5t43 -40.5t48.5 -46.5q-7 -8 -13 -15q-5 -7 -11 -14t-11 -12q-17 -17 -28 -18t-28 16q-29 30 -54.5 55t-49.5 49.5
t-49 49t-53 53.5z" />
    <glyph glyph-name="logicalnot" unicode="&#xac;" horiz-adv-x="585" 
d="M51 264q0 6 0.5 14t0.5 18q0 16 8 27t31 11q35 0 91.5 -1.5t127.5 -1.5q39 0 77 0.5t68 1.5q35 1 66 3q0 -14 1 -26q1 -11 1.5 -23t0.5 -22q0 -36 -1.5 -76.5t-3.5 -82.5q-8 -1 -18 -2q-8 -1 -18 -1h-20q-15 0 -21.5 9.5t-6.5 32.5v27v32.5t1 42.5q-27 0 -80 0.5t-112 1
t-112.5 1t-80.5 2.5v12z" />
    <glyph glyph-name="registered" unicode="&#xae;" horiz-adv-x="541" 
d="M61 482q0 47 17 87.5t46 71.5q32 33 75 53t92 20q47 0 88.5 -18t73.5 -48q32 -32 50 -74.5t18 -91.5q0 -44 -15 -84t-43 -70q-32 -35 -76.5 -55t-95.5 -20q-42 0 -79.5 12.5t-67.5 36.5q-39 32 -61 79t-22 101zM105 482q0 -44 16 -81t47 -64q23 -20 55 -31.5t68 -11.5
q44 0 82 17.5t64 49.5q20 23 30.5 54.5t10.5 66.5q0 43 -16.5 81.5t-47.5 64.5q-23 20 -55.5 31.5t-67.5 11.5q-42 0 -79 -17.5t-65 -47.5q-20 -23 -31 -55.5t-11 -68.5zM297 450h-19.5t-18.5 1l-1 -31v-18t1 -16q1 -9 2 -16q-7 -2 -13 -3q-11 -3 -25 -3q-11 0 -16 3.5
t-5 15.5q0 21 1.5 46.5t1.5 56.5q0 29 -1 57.5t-5 54.5q52 9 92 9q97 0 97 -76q0 -29 -9.5 -46t-29.5 -27q10 -23 19.5 -31.5t17.5 -8.5q7 0 10 1q3 0 5 1q2 -10 2 -16v-14q0 -14 -9 -20t-21 -6q-23 0 -41 17t-35 69zM333 530q0 32 -37 32h-21t-18 -2q1 -13 1.5 -29t0.5 -35
q11 -1 17 -1h17q23 0 31.5 9t8.5 26z" />
    <glyph glyph-name="degree" unicode="&#xb0;" horiz-adv-x="315" 
d="M159 501q28 0 49.5 18t21.5 52q0 33 -20.5 49t-52.5 16q-31 0 -51 -17.5t-20 -52.5q0 -32 19.5 -48.5t53.5 -16.5zM159 435q-72 0 -109 36t-37 95q0 27 9.5 51.5t28 43t45 29.5t61.5 11q72 0 108 -36.5t36 -94.5q0 -27 -9 -51.5t-27 -43t-44.5 -29.5t-61.5 -11z" />
    <glyph glyph-name="mu" unicode="&#xb5;" horiz-adv-x="596" 
d="M72 -146q-1 10 -2 46t-2 87t-1.5 111.5t-0.5 119.5q0 29 0.5 53.5t0.5 47t0.5 44t0.5 44.5q0 16 -3.5 38t-8.5 45q12 4 27 5.5t29 3.5l32 2q23 0 30 -9t7 -28q0 -36 -1.5 -69t-3 -64.5t-3 -64.5t-1.5 -69q0 -52 21.5 -80.5t64.5 -28.5q48 0 81.5 26t56.5 68q0 3 0.5 14.5
l1.5 34.5t1.5 60t0.5 92q0 12 -2 30t-4 35q-3 20 -5 42q23 7 41.5 9t40.5 2q23 0 32 -11t9 -36q0 -32 -1.5 -60.5t-3 -62.5t-2.5 -76t-1 -100q0 -36 8 -48.5t27 -12.5q5 0 10.5 0.5t10.5 1.5t11 3q1 -5 2 -11q1 -5 2 -11.5t1 -14.5q0 -29 -13.5 -48t-58.5 -19
q-35 0 -59 17.5t-35 59.5q-4 -8 -13.5 -22t-26.5 -27t-42 -22.5t-60 -9.5q-44 0 -70 16t-40 42q6 -78 17 -143.5t29 -121.5q-14 -6 -36 -8t-33 -2q-20 0 -31.5 3.5t-18 12.5t-9 24.5t-4.5 39.5z" />
    <glyph glyph-name="paragraph" unicode="&#xb6;" horiz-adv-x="644" 
d="M595 675q0 -8 1 -16q1 -7 1.5 -14.5t0.5 -12.5q0 -24 -6 -34t-22 -10h-41q-2 -72 -3 -142t-1 -140q0 -105 1 -200t6 -194q-8 -3 -19 -5q-20 -5 -45 -5q-20 0 -30.5 8.5t-10.5 29.5q0 54 3.5 147.5t3.5 224.5v276q-69 7 -136 0l1 -518q0 -39 1.5 -68.5t3.5 -49.5
q3 -24 6 -40q-17 -5 -34.5 -7.5t-40.5 -2.5q-22 0 -29.5 8t-7.5 26q0 27 1 74t2.5 103t2.5 114.5t1 106.5q-30 0 -57.5 11t-49 32.5t-34.5 54t-13 74.5q0 43 14 75t36.5 53t51 31t56.5 10h386z" />
    <glyph glyph-name="periodcentered" unicode="&#xb7;" horiz-adv-x="208" 
d="M41 274q0 13 1 24.5t3 19.5q2 10 4 18q3 2 22.5 6.5t37.5 4.5q30 0 45 -16t15 -54q0 -21 -3.5 -37t-5.5 -17q-1 -2 -19 -6t-36 -4q-11 0 -25 3t-24 13q-8 8 -11.5 20.5t-3.5 24.5z" />
    <glyph glyph-name="guillemotright" unicode="&#xbb;" horiz-adv-x="573" 
d="M325 259l-206 -206q-17 -17 -27.5 -16.5t-27.5 17.5q-5 5 -11.5 12t-11.5 14q-6 7 -13 15q27 25 49 46.5t43 40.5t42 37.5t44 39.5q-47 41 -82.5 74.5t-63.5 64.5q-17 19 -15 28t19 25q7 7 15 12t15 10q8 4 15 9q47 -56 101.5 -111t114.5 -112zM545 259l-206 -206
q-17 -17 -27.5 -16.5t-27.5 17.5q-5 5 -11.5 12t-11.5 14q-6 7 -13 15q27 25 49 46.5t43 40.5t42 37.5t44 39.5q-47 41 -82.5 74.5t-63.5 64.5q-17 19 -15 28t19 25q7 7 15 12t15 10q8 4 15 9q47 -56 101.5 -111t114.5 -112z" />
    <glyph glyph-name="Ccedilla" unicode="&#xc7;" horiz-adv-x="0" 
 />
    <glyph glyph-name="Eth" unicode="&#xd0;" horiz-adv-x="0" 
 />
    <glyph glyph-name="Ograve" unicode="&#xd2;" horiz-adv-x="0" 
 />
    <glyph glyph-name="Oacute" unicode="&#xd3;" 
 />
    <glyph glyph-name="Ocircumflex" unicode="&#xd4;" 
 />
    <glyph glyph-name="Otilde" unicode="&#xd5;" horiz-adv-x="751" 
 />
    <glyph glyph-name="Odieresis" unicode="&#xd6;" horiz-adv-x="751" 
 />
    <glyph glyph-name="Oslash" unicode="&#xd8;" horiz-adv-x="751" 
 />
    <glyph glyph-name="ccedilla" unicode="&#xe7;" horiz-adv-x="0" 
 />
    <glyph glyph-name="ntilde" unicode="&#xf1;" horiz-adv-x="0" 
 />
    <glyph glyph-name="ograve" unicode="&#xf2;" 
 />
    <glyph glyph-name="oacute" unicode="&#xf3;" 
 />
    <glyph glyph-name="ocircumflex" unicode="&#xf4;" horiz-adv-x="751" 
 />
    <glyph glyph-name="otilde" unicode="&#xf5;" horiz-adv-x="751" 
 />
    <glyph glyph-name="odieresis" unicode="&#xf6;" 
 />
    <glyph glyph-name="divide" unicode="&#xf7;" 
 />
    <glyph glyph-name="oslash" unicode="&#xf8;" 
 />
    <glyph glyph-name="yacute" unicode="&#xfd;" horiz-adv-x="751" 
 />
    <glyph glyph-name="thorn" unicode="&#xfe;" horiz-adv-x="751" 
 />
    <glyph glyph-name="ydieresis" unicode="&#xff;" horiz-adv-x="751" 
 />
    <glyph glyph-name="Cacute" unicode="&#x106;" 
 />
    <glyph glyph-name="cacute" unicode="&#x107;" 
 />
    <glyph glyph-name="Cdotaccent" unicode="&#x10a;" 
 />
    <glyph glyph-name="cdotaccent" unicode="&#x10b;" 
 />
    <glyph glyph-name="Ccaron" unicode="&#x10c;" 
 />
    <glyph glyph-name="ccaron" unicode="&#x10d;" 
 />
    <glyph glyph-name="Dcaron" unicode="&#x10e;" 
 />
    <glyph glyph-name="dcaron" unicode="&#x10f;" 
 />
    <glyph glyph-name="Dcroat" unicode="&#x110;" 
 />
    <glyph glyph-name="dcroat" unicode="&#x111;" 
 />
    <glyph glyph-name="Gbreve" unicode="&#x11e;" 
 />
    <glyph glyph-name="Gdotaccent" unicode="&#x120;" 
 />
    <glyph glyph-name="Gcommaaccent" unicode="&#x122;" 
 />
    <glyph glyph-name="lacute" unicode="&#x13a;" 
 />
    <glyph glyph-name="lcommaaccent" unicode="&#x13c;" 
 />
    <glyph glyph-name="lcaron" unicode="&#x13e;" 
 />
    <glyph glyph-name="Ldot" unicode="&#x13f;" 
 />
    <glyph glyph-name="ldot" unicode="&#x140;" 
 />
    <glyph glyph-name="lslash" unicode="&#x142;" horiz-adv-x="0" 
 />
    <glyph glyph-name="nacute" unicode="&#x144;" 
 />
    <glyph glyph-name="ncommaaccent" unicode="&#x146;" 
 />
    <glyph glyph-name="ncaron" unicode="&#x148;" 
 />
    <glyph glyph-name="Omacron" unicode="&#x14c;" 
 />
    <glyph glyph-name="omacron" unicode="&#x14d;" 
 />
    <glyph glyph-name="Ohungarumlaut" unicode="&#x150;" 
 />
    <glyph glyph-name="ohungarumlaut" unicode="&#x151;" 
 />
    <glyph glyph-name="OE" unicode="&#x152;" horiz-adv-x="0" 
 />
    <glyph glyph-name="oe" unicode="&#x153;" horiz-adv-x="0" 
 />
    <glyph glyph-name="Scedilla" unicode="&#x15e;" 
 />
    <glyph glyph-name="scedilla" unicode="&#x15f;" 
 />
    <glyph glyph-name="uni0162" unicode="&#x162;" 
 />
    <glyph glyph-name="uni0163" unicode="&#x163;" 
 />
    <glyph glyph-name="Wcircumflex" unicode="&#x174;" 
 />
    <glyph glyph-name="wcircumflex" unicode="&#x175;" 
 />
    <glyph glyph-name="ycircumflex" unicode="&#x177;" 
 />
    <glyph glyph-name="Schwa" unicode="&#x18f;" horiz-adv-x="0" 
 />
    <glyph glyph-name="florin" unicode="&#x192;" horiz-adv-x="446" 
d="M267 360q0 -23 0.5 -57t0.5 -76q0 -94 -6.5 -176.5t-27.5 -144.5t-62 -98t-110 -36q-33 0 -50 10.5t-17 39.5q0 14 2.5 27t5.5 23q4 11 9 21q8 -4 19 -8q19 -7 43 -7q29 0 47 17.5t28 56.5t13.5 101.5t3.5 152.5q0 38 -0.5 74.5t-1.5 65.5q-1 33 -1 63h-93q0 2 -0.5 9.5
t-0.5 18.5q0 10 1.5 20.5t7 19.5t15 14.5t25.5 5.5h47v37q0 52 15 88t39 58.5t54.5 32.5t62.5 10q22 0 41.5 -1t29.5 -1h11t10 1q1 -10 1.5 -18t0.5 -16q0 -40 -8 -53.5t-26 -13.5q-17 0 -31.5 2.5t-30.5 2.5q-21 0 -33.5 -6.5t-19 -21.5t-9 -40t-2.5 -62h17q51 0 111 3
q0 -9 1 -19q0 -8 0.5 -17t0.5 -17q0 -23 -11.5 -31t-44.5 -8h-31t-46 1v-48z" />
    <glyph glyph-name="Scommaaccent" unicode="&#x218;" 
 />
    <glyph glyph-name="scommaaccent" unicode="&#x219;" 
 />
    <glyph glyph-name="uni021A" unicode="&#x21a;" 
 />
    <glyph glyph-name="uni021B" unicode="&#x21b;" 
 />
    <glyph glyph-name="breve" unicode="&#x2d8;" horiz-adv-x="336" 
d="M299 723l8 -10q3 -5 5.5 -11.5t2.5 -14.5q0 -20 -11 -41.5t-31 -39.5t-48 -30t-63 -12q-38 0 -64.5 11.5t-43.5 27t-24.5 32t-7.5 26.5t10 21.5t23 21.5q15 11 34 23q15 -85 87 -85q37 0 68.5 21t54.5 60z" />
    <glyph glyph-name="afii10023" unicode="&#x401;" horiz-adv-x="574" 
d="M351 -3q-60 0 -129 2.5t-129 7.5q5 85 6 179t1 215q0 48 -0.5 92.5t-2.5 82.5q-2 23 -4 39.5t-5 30t-6.5 25t-7.5 25.5q17 4 39.5 5.5t48.5 1.5q20 0 46.5 -0.5t54.5 -1l56 -1t51 -0.5q38 0 67 1.5t58 5.5q5 -24 6 -41.5t1 -24.5q0 -26 -17.5 -33.5t-67.5 -7.5
q-48 0 -102.5 3t-109.5 3q-1 0 -1 -3q2 -27 3 -59q1 -27 1.5 -61.5t1.5 -72.5q38 -2 81.5 -3.5t100.5 -1.5q14 0 28 0.5t25 1.5q12 1 23 3q1 -8 2 -17q1 -8 2 -17t1 -18q0 -30 -12 -41.5t-41 -11.5q-20 0 -45 1t-53 2.5t-56.5 4t-54.5 4.5q-1 -51 -1.5 -104.5t-2.5 -116.5
h56q24 0 51.5 0.5t50.5 0.5q48 0 84 5t76 16q2 -9 4 -20q2 -9 3.5 -22t1.5 -28q0 -19 -6.5 -29t-26.5 -15t-56 -6t-94 -1zM132 844q0 11 1 20t3 17q2 9 4 16q3 1 19 4.5t31 3.5q26 0 39 -13.5t13 -45.5q0 -17 -3 -31t-4 -16q-1 -1 -16.5 -4t-30.5 -3q-20 0 -38 10.5
t-18 41.5zM329 844q0 22 3 37q1 9 3 16q4 1 20 4.5t31 3.5q26 0 39 -13.5t13 -45.5q0 -17 -3 -31t-5 -16q0 -1 -15.5 -4t-31.5 -3q-20 0 -37 10.5t-17 41.5z" />
    <glyph glyph-name="afii10052" unicode="&#x403;" 
 />
    <glyph glyph-name="afii10061" unicode="&#x40c;" 
 />
    <glyph glyph-name="afii10017" unicode="&#x410;" horiz-adv-x="669" 
d="M482 97q-8 23 -15.5 46t-14.5 48q-9 -1 -26 -2t-38.5 -2t-47 -1.5t-50.5 -0.5q-35 0 -66 1t-49 3q-18 -57 -26 -99.5t-8 -85.5q-11 -2 -24 -4q-11 -2 -27 -3t-36 -1q-24 0 -31 11.5t1 51.5q6 34 23.5 81.5t40 103t48.5 115t50 118t44 113t31 98.5l38 8q17 3 35.5 5.5
t35.5 2.5q19 0 30.5 -2.5t19 -9t13.5 -19.5t14 -34q11 -29 23.5 -78t27.5 -108t32.5 -125t37.5 -130q14 -45 32 -71t47 -26q8 0 13 1v-14q0 -7 0.5 -15t0.5 -18q0 -26 -15 -42.5t-55 -16.5q-20 0 -35.5 3.5t-28.5 14t-23.5 30.5t-21.5 53zM341 592q-15 -34 -32.5 -73
t-35.5 -80.5t-35.5 -83t-32.5 -79.5q18 -1 47.5 -1.5t63.5 -0.5q32 0 64 1.5t49 3.5q-22 87 -40.5 163.5t-47.5 149.5z" />
    <glyph glyph-name="afii10018" unicode="&#x411;" horiz-adv-x="626" 
d="M200 601q1 -24 2 -52q1 -24 1.5 -57.5t2.5 -72.5q20 6 44 10q20 4 46.5 7t55.5 3q49 0 90.5 -13t72 -38.5t47.5 -64t17 -90.5q0 -66 -22.5 -111t-61 -72.5t-90.5 -40t-111 -12.5q-47 0 -85 4.5t-66 10.5q-33 6 -59 15q5 81 9 162t4 163q0 52 -1.5 105t-5.5 101
q-2 26 -4.5 45t-6 34.5t-7.5 29.5t-8 29q40 9 88 9q60 0 118.5 -2.5t113.5 -2.5q46 0 84 2t57 8q5 -25 6.5 -43t1.5 -25q0 -12 -3 -21t-12 -15t-26.5 -9t-45.5 -3q-27 0 -59 1t-65 2.5t-65 2.5t-57 1zM197 105q13 -4 29 -7q14 -2 33 -4t43 -2q83 0 120.5 36.5t37.5 92.5
q0 57 -32 89.5t-99 32.5q-25 0 -47 -3t-39 -6q-19 -4 -36 -9q-1 -47 -2.5 -87.5t-3.5 -69.5q-2 -35 -4 -63z" />
    <glyph glyph-name="afii10019" unicode="&#x412;" horiz-adv-x="635" 
d="M583 212q0 -49 -16 -89.5t-50 -70t-85.5 -45.5t-123.5 -16q-46 0 -85.5 5t-68.5 12q-34 8 -63 18q3 84 5 173.5t2 182.5v83.5t-2 81.5q-1 26 -2.5 44.5t-4 33.5t-5.5 28.5t-7 28.5q127 28 226 28q49 0 93.5 -8t78.5 -28.5t54 -56.5t20 -91q0 -49 -24 -88.5t-70 -62.5
q36 -11 60.5 -28t39.5 -38.5t21.5 -46.5t6.5 -50zM200 102q16 -5 34 -9q16 -4 37 -6.5t45 -2.5q74 0 111 28.5t37 90.5q0 33 -12.5 54.5t-35 34.5t-53.5 18t-67 5h-38t-49 -2q-1 -41 -2 -79t-3 -67q-2 -34 -4 -65zM433 514q0 57 -34.5 79.5t-100.5 22.5q-28 0 -51 -3t-41 -7
q-1 0 -1 -3q1 -26 2 -58q1 -27 1.5 -63t1.5 -78q9 -1 20 -1h59q76 0 110 32t34 79z" />
    <glyph glyph-name="afii10020" unicode="&#x413;" horiz-adv-x="510" 
d="M214 3q-20 -3 -43.5 -5t-38.5 -2q-23 0 -33 5t-10 27q0 97 4 198.5t4 204.5q0 82 -5.5 149t-21.5 118q34 7 77 7q29 0 60.5 -1t62 -1.5t59.5 -1.5t53 -1q67 0 103 10q4 -24 5 -43t1 -27q0 -26 -17 -36t-62 -10q-48 0 -100 3.5t-107 3.5q1 -32 1 -81.5v-120.5
q0 -55 -1 -120.5t-1 -123.5q0 -35 1.5 -63t3.5 -48q2 -23 5 -41z" />
    <glyph glyph-name="afii10021" unicode="&#x414;" horiz-adv-x="720" 
d="M4 46q0 26 11.5 35t46.5 12q30 33 53 77t39.5 103t27 134.5t15.5 171.5q3 57 -12 123q68 3 121.5 4t94.5 1.5t72.5 0t55.5 -1.5q28 -1 44.5 -4t25.5 -8.5t11.5 -13.5t2.5 -18q0 -11 -2.5 -33t-5.5 -59t-5.5 -90.5t-2.5 -126.5q0 -100 1 -166t3 -92q25 0 42 -0.5
t27.5 -4.5t14.5 -12t4 -24q0 -55 1 -106.5t8 -114.5q-36 -9 -61 -9q-18 0 -28.5 2.5t-16 8.5t-7.5 16.5t-2 26.5q0 20 0.5 53t1.5 69q-23 1 -52 1.5t-60 1t-62 0.5h-57q-30 0 -62.5 -0.5l-65 -1t-63.5 -2t-56 -2.5q0 -36 3 -65t7 -49q4 -24 9 -42q-10 -5 -22 -9
q-11 -3 -26 -5.5t-35 -2.5q-22 0 -28 7.5t-8 26.5q-1 16 -1.5 40.5t-1 51.5t-0.5 52.5v43.5zM366 98h58.5t63.5 -1q-2 55 -2.5 104t-0.5 90q0 72 2.5 148t7.5 171q-43 3 -92.5 3.5t-101.5 -3.5q-5 -111 -15 -192.5t-25 -142t-34 -103.5t-43 -76q42 1 90.5 1.5t91.5 0.5z" />
    <glyph glyph-name="afii10022" unicode="&#x415;" horiz-adv-x="574" 
d="M351 -3q-60 0 -129 2.5t-129 7.5q5 85 6 179t1 215q0 48 -0.5 92.5t-2.5 82.5q-2 23 -4 39.5t-5 30t-6.5 25t-7.5 25.5q17 4 39.5 5.5t48.5 1.5q20 0 46.5 -0.5t54.5 -1l56 -1t51 -0.5q38 0 67 1.5t58 5.5q5 -24 6 -41.5t1 -24.5q0 -26 -17.5 -33.5t-67.5 -7.5
q-48 0 -102.5 3t-109.5 3q-1 0 -1 -3q2 -27 3 -59q1 -27 1.5 -61.5t1.5 -72.5q38 -2 81.5 -3.5t100.5 -1.5q14 0 28 0.5t25 1.5q12 1 23 3q1 -8 2 -17q1 -8 2 -17t1 -18q0 -30 -12 -41.5t-41 -11.5q-20 0 -45 1t-53 2.5t-56.5 4t-54.5 4.5q-1 -51 -1.5 -104.5t-2.5 -116.5
h56q24 0 51.5 0.5t50.5 0.5q48 0 84 5t76 16q2 -9 4 -20q2 -9 3.5 -22t1.5 -28q0 -19 -6.5 -29t-26.5 -15t-56 -6t-94 -1z" />
    <glyph glyph-name="afii10024" unicode="&#x416;" horiz-adv-x="936" 
d="M208 123q-18 -38 -31 -62.5t-26.5 -39t-30.5 -20.5t-41 -6q-30 0 -43 13.5t-13 43.5q0 22 3 39q1 10 3 18q16 0 26 2t18 9.5t15.5 20.5t18.5 36q22 47 39 80t32 56t28.5 38t28.5 25q-27 46 -51.5 83t-49 70t-51.5 63.5t-60 63.5q7 7 15 14q7 6 15 13.5t17 14.5
q25 18 46.5 13t45.5 -37q41 -53 84 -125t80 -146q17 2 38 3t49 2q1 43 1.5 83.5t0.5 77.5q0 22 -1.5 38.5t-3.5 30t-5.5 25.5t-7.5 26q14 3 31 7q14 3 31.5 5.5t36.5 2.5q36 0 36 -29q-1 -38 -2 -81q-1 -37 -2.5 -85t-2.5 -101q27 -1 47.5 -2t36.5 -3q38 74 80.5 146
t84.5 125q25 32 46 37t45 -13q9 -7 17 -14.5t15 -13.5q8 -7 15 -14q-33 -33 -59.5 -64t-51 -64t-49 -70t-51.5 -82q15 -10 28.5 -25t28 -38t31.5 -56t40 -80q10 -23 18 -36t16 -20.5t18 -9.5t26 -2q1 -8 2 -18q1 -8 2 -18t1 -21q0 -30 -12.5 -43.5t-43.5 -13.5
q-24 0 -40.5 6t-30 20.5t-26.5 39t-31 62.5q-30 63 -51 110t-45 67q-10 7 -20 12t-22.5 8t-28.5 4.5t-38 1.5q-2 -74 -3 -140t-1 -105q0 -14 1 -27.5t3 -24.5q2 -13 5 -25q-17 -4 -37.5 -6t-34.5 -2q-31 0 -41.5 11.5t-10.5 45.5q0 63 2 132t4 141q-22 0 -37.5 -1.5
t-27.5 -4.5t-22 -8t-19 -12q-25 -20 -46.5 -67t-49.5 -110z" />
    <glyph glyph-name="afii10025" unicode="&#x417;" horiz-adv-x="567" 
d="M488 525q0 -54 -25.5 -94t-73.5 -60q59 -17 91 -59t32 -110q0 -53 -21.5 -93t-57 -67t-81.5 -41t-96 -14q-51 0 -94 5t-74 14.5t-48 22.5t-17 28q0 13 4.5 28.5t9.5 29.5q6 16 14 33q22 -15 43 -26t45 -18t53 -10.5t67 -3.5q60 0 97 28t37 84q0 32 -10.5 52.5t-31 32.5
t-49.5 17t-66 5q-31 0 -52.5 -2.5t-45.5 -2.5q-14 0 -21.5 13t-7.5 33q0 16 2.5 33t4.5 28q13 -2 28 -3q25 -3 62 -3q31 0 61 4t53.5 16t37.5 34t14 58q0 93 -118 93q-30 0 -53 -3.5t-41.5 -7t-34.5 -7t-31 -3.5q-14 0 -22 8t-12.5 20t-6 27.5t-1.5 30.5v16q0 3 1 5
q40 0 93 7.5t114 7.5q50 0 92 -10t72 -32t47 -57.5t17 -86.5z" />
    <glyph glyph-name="afii10026" unicode="&#x418;" horiz-adv-x="732" 
d="M529 267q0 28 0.5 63t1 72.5l1 75t0.5 71.5q-30 -46 -64 -99t-68 -107.5t-66 -107.5t-58 -98t-45.5 -80t-28.5 -54q-17 -4 -36.5 -5.5t-33.5 -1.5q-17 0 -26 4t-13.5 11t-5 17.5t-0.5 24.5q0 18 0.5 52.5t0.5 79t1 95.5t1 102.5t0.5 101t0.5 90.5q0 22 -1 37.5t-3 28.5
t-4.5 25t-5.5 28q27 7 49 9.5t46 2.5q35 0 35 -21q0 -23 -0.5 -56.5t-1 -74t-1.5 -86t-2 -90.5q-1 -34 -1.5 -58.5t-1.5 -45.5t-1.5 -41.5t-0.5 -46.5q37 63 80.5 133.5t88 139t85.5 130.5t72 108q21 4 46.5 6.5t43.5 2.5q19 0 26.5 -7t7.5 -27q0 -23 -1 -58.5t-2.5 -75.5
t-2.5 -81t-1 -74v-144t2 -132q0 -12 1 -28.5t2 -32.5q1 -18 3 -37q-22 -8 -42.5 -10t-34.5 -2q-26 0 -36 8.5t-10 32.5q0 13 0.5 37.5t1 55t1 66t1.5 71.5z" />
    <glyph glyph-name="afii10027" unicode="&#x419;" horiz-adv-x="732" 
d="M529 267q0 28 0.5 63t1 72.5l1 75t0.5 71.5q-30 -46 -64 -99t-68 -107.5t-66 -107.5t-58 -98t-45.5 -80t-28.5 -54q-17 -4 -36.5 -5.5t-33.5 -1.5q-17 0 -26 4t-13.5 11t-5 17.5t-0.5 24.5q0 18 0.5 52.5t0.5 79t1 95.5t1 102.5t0.5 101t0.5 90.5q0 22 -1 37.5t-3 28.5
t-4.5 25t-5.5 28q27 7 49 9.5t46 2.5q35 0 35 -21q0 -23 -0.5 -56.5t-1 -74t-1.5 -86t-2 -90.5q-1 -34 -1.5 -58.5t-1.5 -45.5t-1.5 -41.5t-0.5 -46.5q37 63 80.5 133.5t88 139t85.5 130.5t72 108q21 4 46.5 6.5t43.5 2.5q19 0 26.5 -7t7.5 -27q0 -23 -1 -58.5t-2.5 -75.5
t-2.5 -81t-1 -74v-144t2 -132q0 -12 1 -28.5t2 -32.5q1 -18 3 -37q-22 -8 -42.5 -10t-34.5 -2q-26 0 -36 8.5t-10 32.5q0 13 0.5 37.5t1 55t1 66t1.5 71.5zM493 923l8 -10q3 -5 5.5 -11.5t2.5 -14.5q0 -20 -11 -41.5t-31 -39.5t-48 -30t-63 -12q-38 0 -64.5 11.5t-43.5 27
t-24.5 32t-7.5 26.5t10 21.5t23 21.5q15 11 34 23q15 -85 87 -85q37 0 68.5 21t54.5 60z" />
    <glyph glyph-name="afii10028" unicode="&#x41a;" horiz-adv-x="643" 
d="M430 123q-32 63 -54.5 110t-47.5 67q-11 8 -21.5 13t-24 7.5t-31 4t-41.5 1.5q-2 -74 -2 -139.5v-105.5q0 -14 1 -27.5t3 -24.5q2 -13 5 -25q-18 -4 -38 -6t-34 -2q-31 0 -41 11.5t-10 45.5q1 60 1.5 126t1.5 133.5t1.5 132.5t0.5 124q0 22 -2 39t-5.5 30.5t-7.5 25
t-8 24.5q16 4 34 8q15 3 33 5.5t37 2.5q36 0 36 -29q-1 -38 -2 -81q-1 -37 -1.5 -85t-1.5 -101q29 -1 51.5 -1.5t41.5 -2.5q21 36 43 73t44.5 72t44.5 67t43 58q25 31 47.5 36.5t46.5 -12.5q9 -7 17 -14.5t15 -13.5q8 -7 15 -14q-33 -33 -61.5 -63.5t-55 -63t-52.5 -69.5
t-55 -83q15 -9 29 -24t29.5 -38t33.5 -56.5t42 -81.5q11 -23 19.5 -36t17.5 -20.5t20 -9.5t27 -2q1 -8 2 -18q1 -8 2 -18t1 -21q0 -30 -12.5 -43.5t-43.5 -13.5q-24 0 -41 6t-31 20.5t-28 39t-33 62.5z" />
    <glyph glyph-name="afii10029" unicode="&#x41b;" horiz-adv-x="708" 
d="M198 699q70 3 124 4t98 1q39 0 70.5 -0.5t51.5 -1.5q25 -1 40.5 -4t24 -8t11 -13t2.5 -18q0 -41 -5.5 -129.5t-5.5 -208.5q0 -34 1 -80t3 -91.5t6 -83.5t9 -56q-17 -6 -41.5 -10t-45.5 -4q-26 0 -33.5 7.5t-8.5 25.5q-2 45 -2.5 100.5t-0.5 124.5q0 90 1.5 176t5.5 178
q-22 1 -45.5 1.5t-49.5 0.5q-25 0 -51 -0.5t-46 -1.5q-2 -59 -6 -117.5t-13 -122.5q-14 -105 -36.5 -177t-51.5 -116.5t-64.5 -63.5t-76.5 -19q-28 0 -38 9.5t-10 37.5q0 11 1 23.5t3 22.5q2 11 5 23q3 -1 7 -2q8 -2 16 -2q17 0 36.5 9t38.5 37t36 80t31 138q10 62 14 121.5
t4 114.5q0 29 -2 50.5t-7 44.5z" />
    <glyph glyph-name="afii10030" unicode="&#x41c;" horiz-adv-x="866" 
d="M662 695q20 5 43.5 7.5t42.5 2.5t26.5 -7.5t7.5 -27.5q0 -29 -1.5 -83t-3 -128t-3 -164.5t-1.5 -190.5q0 -12 1 -28t3 -31q2 -18 5 -35q-20 -9 -39.5 -11.5t-33.5 -2.5q-34 0 -42.5 8.5t-8.5 27.5q0 9 0.5 30t1 46t1 50.5t0.5 43.5q0 52 0.5 135.5t0.5 178.5
q-18 -32 -36 -65.5t-35 -65.5t-32 -61t-26 -53q-7 -14 -12 -27t-9 -24l-8 -24q-14 -3 -29 -6q-13 -2 -27.5 -4t-27.5 -2q-21 0 -33.5 6t-23.5 20q-23 28 -65.5 105t-96.5 204v-157v-116t1 -167v-27.5t1 -24.5q1 -13 2 -25q-17 -3 -35 -4.5t-32 -1.5q-25 0 -37 10.5t-12 40.5
q0 10 1 28t2 38.5t2.5 39.5t1.5 32q0 36 1 76t1.5 80.5t1 79.5t0.5 72q0 51 -3.5 97t-20.5 99q28 6 58.5 11t56.5 5q11 0 20 -2.5t15 -13.5q12 -24 34.5 -70.5t51 -103t60 -115.5t63.5 -108q32 65 71 135.5t74 130.5q40 70 82 137z" />
    <glyph glyph-name="afii10031" unicode="&#x41d;" horiz-adv-x="726" 
d="M522 550q0 15 -1.5 39.5t-3.5 47.5q-2 27 -4 57q21 5 47 7.5t45 2.5q18 0 27.5 -6t9.5 -25q0 -21 -1.5 -57t-3.5 -77.5t-3.5 -83.5t-1.5 -74q0 -47 0.5 -103.5t1 -109.5t2 -95.5t4.5 -62.5q-17 -6 -39.5 -10t-42.5 -4q-27 0 -35 10t-8 23v35.5t0.5 50t1 57.5t1 57t1 48
t0.5 31q-84 6 -199 6q-32 0 -61 -0.5t-51 -1.5q-1 -23 -2 -54.5t-2 -64t-1.5 -63t-0.5 -49.5q0 -14 1 -27.5t3 -24.5q2 -13 4 -25q-17 -4 -40.5 -6t-37.5 -2q-25 0 -34 12.5t-9 44.5q0 13 1 31.5t2 38t2 37.5t1 30q0 33 1 71.5t2 78.5t1.5 77t0.5 67q0 42 -1.5 72.5t-4.5 54
t-7.5 42t-9.5 35.5q27 6 54 11t53 5q11 0 23.5 -2t12.5 -14q0 -20 -1 -57t-2.5 -78.5t-3.5 -81t-3 -64.5q41 3 74.5 4t67.5 1q42 0 84.5 -1.5t84.5 -6.5z" />
    <glyph glyph-name="afii10032" unicode="&#x41e;" horiz-adv-x="751" 
d="M375 -15q-78 0 -138 25.5t-100 72t-60.5 111.5t-20.5 145q0 74 22 142t63 120t100.5 83t133.5 31q80 0 140 -25.5t100 -72t60 -112t20 -144.5q0 -74 -22 -141.5t-63.5 -120t-101 -83.5t-133.5 -31zM379 84q40 0 75.5 19.5t62.5 54.5t42.5 85t15.5 111q0 62 -15 110.5
t-42 82.5t-64 51.5t-81 17.5q-39 0 -75 -18.5t-63.5 -53.5t-43.5 -84.5t-16 -112.5q0 -62 15 -111t42 -83t64.5 -51.5t82.5 -17.5z" />
    <glyph glyph-name="afii10033" unicode="&#x41f;" horiz-adv-x="713" 
d="M513 604q-17 1 -38 2t-43 1.5t-44 0.5h-41h-71t-61 -1q-5 -123 -9.5 -249t-4.5 -260q0 -20 1 -37t3 -30q2 -15 4 -27q-17 -4 -40 -6t-37 -2q-29 0 -37 9t-8 39q0 17 1.5 52t4 80t4 96t1.5 101v128t-1 72q-1 38 -8 68t-15 57q73 6 137.5 7t138.5 1h64.5t57.5 -1t56.5 -2
t61.5 -3q19 -1 29 -7.5t10 -26.5q0 -16 -1.5 -51t-3.5 -77.5t-3.5 -85t-2.5 -73.5q-2 -72 -2.5 -143t1.5 -131q1 -27 2 -45.5t3 -29.5q2 -13 3 -22q-23 -8 -46.5 -10t-37.5 -2q-26 0 -32.5 5t-6.5 17q0 57 1.5 135t4 160t4 158.5t1.5 132.5z" />
    <glyph glyph-name="afii10034" unicode="&#x420;" horiz-adv-x="625" 
d="M208 129q0 -17 2 -37.5t5 -39.5q3 -22 7 -44l-30 -6q-13 -2 -28 -4t-29 -2q-23 0 -33 7.5t-10 27.5q0 63 3 146t3 199v65t-2 71q-2 51 -9 95.5t-17 74.5q65 14 130.5 20t113.5 6q58 0 106 -12.5t82.5 -39.5t53 -68.5t18.5 -99.5q0 -63 -23 -107t-62 -72t-91 -40.5
t-110 -12.5q-14 0 -28 0.5t-25 2.5q-13 2 -24 4q0 -12 -0.5 -31t-1 -38.5t-1 -37t-0.5 -27.5zM454 487q0 34 -11 58t-31 39.5t-47.5 22.5t-60.5 7q-27 0 -52 -2t-48 -6q-1 0 -1 -4q2 -28 4 -64q2 -31 2.5 -75.5t1.5 -101.5q12 -2 25 -4q11 -2 26 -3t32 -1q81 0 120.5 34.5
t39.5 99.5z" />
    <glyph glyph-name="afii10035" unicode="&#x421;" horiz-adv-x="606" 
d="M381 -13q-68 0 -127 21.5t-103 64.5t-69.5 108.5t-25.5 152.5q0 73 20.5 141.5t61 120.5t101 83.5t139.5 31.5q31 0 55.5 -1.5t46 -3t41 -3t39.5 -1.5q0 -60 -9 -84t-36 -24q-15 0 -29.5 2.5t-31 5t-36.5 5t-45 2.5q-40 0 -76 -18t-63 -51.5t-42.5 -82.5t-15.5 -112
q0 -121 56 -187.5t151 -66.5q56 0 96 18t65 38q13 -17 20 -39t7 -39q0 -18 -16.5 -33t-43.5 -26t-61 -17t-69 -6z" />
    <glyph glyph-name="afii10036" unicode="&#x422;" horiz-adv-x="566" 
d="M23 607q-1 10 -2 21q-1 9 -1.5 19t-0.5 18q0 20 8.5 29.5t31.5 9.5q25 0 55.5 -0.5t62.5 -1.5t64.5 -1.5t61.5 -0.5q87 0 148 2t96 14q1 -12 2 -23q1 -10 2 -22t1 -23q0 -24 -7 -35.5t-35 -14.5q-13 -1 -32.5 -2t-42 -1.5t-47 -0.5h-48.5q0 -77 -1 -155.5t-1 -147.5
v-44.5t0.5 -58t1 -60t0.5 -48.5q0 -14 1 -27t3 -24q2 -13 4 -25q-17 -5 -38 -6.5t-35 -1.5q-24 0 -33.5 5.5t-14.5 16.5q-3 9 -4.5 27t-1.5 39q0 50 1 115t2 134.5t2.5 137.5t1.5 124q-29 1 -59 2t-57.5 2.5t-50.5 3.5t-38 4z" />
    <glyph glyph-name="afii10037" unicode="&#x423;" horiz-adv-x="635" 
d="M192 104q57 0 98 56q-60 141 -130.5 265t-148.5 232q15 13 31 24q14 9 29.5 17t30.5 8q20 0 30 -9.5t23 -31.5q21 -36 47 -82t52.5 -97.5t52.5 -107t47 -109.5q21 41 41.5 98t37 117t27 116.5t12.5 96.5q8 2 19 4q9 2 20.5 3.5t25.5 1.5q27 0 41.5 -6.5t14.5 -28.5
q0 -13 -5.5 -38.5t-15 -59t-22 -71.5t-26.5 -76.5t-29 -75t-28 -65.5q-33 -71 -64 -126t-63.5 -93t-68.5 -58t-79 -20q-37 0 -61 10.5t-24 42.5q0 18 7 38.5t18 40.5q17 -10 30.5 -13t29.5 -3z" />
    <glyph glyph-name="afii10038" unicode="&#x424;" horiz-adv-x="834" 
d="M783 387q0 -139 -82.5 -206t-234.5 -76v-51q0 -26 5 -39q2 -7 5 -12q-17 -4 -42 -6t-39 -2q-26 0 -34.5 8.5t-8.5 34.5q0 8 1 26t2 41q-146 3 -225 66t-79 188q0 69 21.5 120t62 85.5t99 52.5t132.5 23q-2 33 -7 49t-13 34q14 3 31 7q14 2 32 4.5t37 2.5q20 0 26 -6
t6 -17q0 -15 -0.5 -34t-0.5 -39q148 -3 227 -66t79 -188zM364 343q3 120 3 208q-45 -2 -82 -12t-62.5 -32t-39.5 -57t-14 -86q0 -48 13.5 -79t38.5 -49.5t60 -27t78 -11.5q2 28 3 64t2 82zM665 382q0 47 -13 78t-38 49.5t-60 27.5t-79 12q-2 -85 -4.5 -177.5t-3.5 -177.5
q46 1 82.5 11.5t62 32.5t39.5 57t14 87z" />
    <glyph glyph-name="afii10039" unicode="&#x425;" horiz-adv-x="641" 
d="M576 593q-12 -18 -32 -45.5t-45.5 -60t-55.5 -68.5t-61 -73q37 -56 72.5 -107.5t62.5 -84.5q21 -26 37.5 -35t42.5 -9h12q4 0 6 1q1 -8 3 -18q1 -8 2 -19.5t1 -25.5q0 -28 -15.5 -41t-50.5 -13q-17 0 -30.5 2t-25 8t-23 16.5t-24.5 27.5q-13 15 -30 39.5t-36 54t-39 61
t-38 61.5q-42 -48 -76 -96.5t-60 -87.5q-30 -46 -54 -87q-14 3 -26 7q-25 7 -45 19q-13 8 -20 15t-7 16q0 11 12 28q15 21 39 52t53.5 67.5t62.5 76t66 76.5q-27 41 -55.5 83t-57 81.5t-56 75t-51.5 64.5q22 22 47 36.5t51 14.5q11 0 18.5 -4t17.5 -19q13 -19 31.5 -48
t39.5 -62.5t43.5 -69.5t44.5 -70q68 82 108.5 147.5t70.5 127.5q25 -11 44.5 -19t29.5 -15q19 -10 19 -28q0 -19 -23 -52z" />
    <glyph glyph-name="afii10040" unicode="&#x426;" horiz-adv-x="704" 
d="M490 569q0 17 -1 39t-2 41q-2 22 -3 45q20 4 45 7t43 3t27 -7t9 -25q0 -42 -4 -106t-5 -137q0 -40 -0.5 -85t-0.5 -89.5v-86v-74.5q13 0 24 1q10 1 21 1.5t20 0.5q13 0 17 -5.5t4 -24.5q0 -42 -3.5 -82.5t-3.5 -82.5q0 -18 1 -34.5t3 -31.5q-17 -5 -34.5 -7t-28.5 -2
q-32 0 -40 10.5t-8 39.5q0 17 3 48.5t6 68.5q-21 -1 -52 -2t-65.5 -1.5l-69 -1t-62.5 -0.5h-52.5t-45 1t-44.5 1.5t-52 2.5q-18 1 -28 4.5t-14.5 9.5t-5.5 14t-1 18q0 13 0.5 30t1.5 34t2 33.5t1 28.5q2 48 3.5 103.5t2.5 110t1 104t-2 85.5q-1 22 -3 38.5t-4 30t-5.5 25.5
t-7.5 25q28 6 50.5 11t47.5 5q23 0 32 -5.5t9 -17.5q0 -70 -2.5 -144.5t-5.5 -149.5l-6 -150t-4 -147q29 -2 66 -3t84 -1q45 0 77.5 0.5t60.5 1.5q0 48 1 105t1.5 119.5t1 127.5t0.5 129z" />
    <glyph glyph-name="afii10041" unicode="&#x427;" horiz-adv-x="655" 
d="M450 246q0 19 0.5 37t0.5 37q-8 -10 -24 -23.5t-40 -26t-56 -21.5t-74 -9q-98 0 -144.5 48t-48.5 145q-1 35 0 67t1 59q0 29 -4 61.5t-15 67.5q28 6 51 11t48 5q20 0 28.5 -8t8.5 -28q0 -19 -1 -43.5t-2 -51t-2 -54t-1 -53.5q0 -60 21.5 -91.5t80.5 -31.5q36 0 65 8.5
t50.5 21t36.5 25.5t23 22v70.5t-0.5 66t-2.5 66t-5 71.5q21 5 47 7.5t45 2.5t26.5 -6t7.5 -26q0 -26 -1.5 -58.5t-3 -75t-3 -96.5t-1.5 -124v-198q0 -12 1 -30.5t1.5 -35.5t1.5 -30t1 -14q-26 -8 -46 -11t-34 -3q-23 0 -31.5 8t-8.5 25q0 14 0.5 40t1 56.5t1 62.5t0.5 58z
" />
    <glyph glyph-name="afii10042" unicode="&#x428;" horiz-adv-x="973" 
d="M770 571q0 15 -1 36t-2 41q-2 23 -3 47q20 4 44 6.5t43 2.5q18 0 28 -7t10 -27q0 -49 -1.5 -104.5t-3 -120.5t-3 -142t-1.5 -168q0 -15 0.5 -36t1.5 -41t2 -34.5t2 -17.5q-39 -6 -108.5 -8.5t-170.5 -2.5h-200q-48 0 -93.5 0.5t-83 1t-65 1t-40.5 1.5q-29 2 -38.5 12.5
t-9.5 36.5q0 24 2 78.5t4.5 125.5t4.5 150t2 153q0 25 -1 44.5t-3 35t-4.5 29t-4.5 28.5q28 6 47.5 9t45.5 3q23 0 31.5 -5.5t8.5 -16.5q0 -69 -2 -146t-5 -154t-6.5 -150t-6.5 -136q45 -2 101 -3.5t132 -2.5q2 42 3.5 96.5t2 111.5t1 111.5t0.5 97.5q0 48 -0.5 83.5
t-1.5 58.5q-1 27 -2 47q20 5 43 6.5t42 1.5t29 -8t10 -28q0 -46 -1.5 -108.5t-3.5 -137.5t-3.5 -159t-1.5 -173q75 1 128.5 2.5t96.5 3.5q2 94 3.5 214t1.5 261z" />
    <glyph glyph-name="afii10043" unicode="&#x429;" horiz-adv-x="994" 
d="M766 95q1 64 2.5 142t2.5 158.5t-0.5 158.5t-6.5 142q21 3 45 5.5t42 2.5q19 0 29 -6.5t10 -26.5q0 -9 -0.5 -26t-1.5 -38.5t-2 -45.5t-2 -46q-2 -47 -3 -104t-1 -115v-110.5v-88.5h21q9 0 20 0.5t21 0.5q16 0 23 -5.5t7 -24.5q0 -43 -3 -81t-3 -74q0 -11 -0.5 -20.5
t0.5 -20.5q1 -9 1.5 -18t2.5 -18q-17 -5 -35 -7t-29 -2q-28 0 -38 10.5t-10 39.5q0 23 2.5 53.5t4.5 67.5q-95 -3 -193 -3.5t-199 -0.5q-85 0 -166 1t-174 3q-24 1 -33.5 6t-14.5 16q-2 6 -2.5 18t-0.5 26.5t1 31t2 31.5q1 46 3 98.5t3.5 107t1.5 109.5t-1 106q-1 32 -2 53
t-2.5 36t-3.5 27.5t-4 28.5q28 6 47.5 8.5t44.5 2.5q23 0 31.5 -7t8.5 -18q0 -69 -2.5 -142t-5.5 -147l-6 -148t-4 -145q45 -2 106 -4t133 -4q0 83 -0.5 165.5t-1 160.5t-2 149t-3.5 132q20 4 44 6t43 2t29 -8t10 -28q0 -33 -2 -74.5t-4 -89.5q-2 -55 -3 -105.5t-1 -100
v-101v-108.5q71 2 126 3t98 3z" />
    <glyph glyph-name="afii10044" unicode="&#x42a;" horiz-adv-x="702" 
d="M267 707q21 -2 26 -13.5t6 -40.5q1 -42 0 -99.5t-2 -134.5q31 8 67 14t78 6q50 0 92 -13t72.5 -39t47.5 -64.5t17 -90.5q0 -63 -21 -108t-59 -73.5t-91.5 -41.5t-118.5 -13q-46 0 -83.5 4.5t-64.5 10.5q-32 7 -57 16q5 79 9 165.5t4 165.5q0 60 -1 124.5t-3 116.5
q-38 -5 -73 -8.5t-58 -3.5q-28 0 -35 9.5t-7 32.5q0 22 4 42t8 34q19 -3 34.5 -4t35.5 -1q37 0 79.5 3.5t80.5 3.5h13zM418 343q-42 0 -71 -4.5t-49 -10.5q-1 -39 -2.5 -78.5t-3.5 -71.5q-2 -38 -4 -72q11 -4 27 -7q14 -3 32.5 -5t42.5 -2q36 0 65.5 7.5t51 23.5t33.5 40.5
t12 58.5q0 60 -34 90.5t-100 30.5z" />
    <glyph glyph-name="afii10045" unicode="&#x42b;" horiz-adv-x="887" 
d="M172 707q24 0 30 -12t7 -42q2 -42 2 -99.5t-1 -134.5q31 8 67 14t78 6q50 0 92 -13t72.5 -39t47.5 -64.5t17 -90.5q0 -63 -21 -108t-59 -73.5t-91.5 -41.5t-118.5 -13q-46 0 -83.5 4.5t-64.5 10.5q-32 7 -57 16q5 79 9 165.5t4 165.5q0 26 -0.5 55t-2 58t-3 56t-3.5 50
t-4.5 38.5t-5 28t-6 23t-7.5 24.5q30 8 56 12t46 4zM331 343q-42 0 -71 -6.5t-49 -11.5q-1 -39 -2 -77.5t-3 -70.5q-2 -37 -5 -71q11 -4 27 -7q14 -3 32.5 -5t42.5 -2q36 0 65.5 7.5t51 23.5t33.5 40.5t12 58.5q0 60 -34 90.5t-100 30.5zM681 375q0 70 -1 131t-3 102
q-1 14 -3 29t-4 28q-3 15 -5 29q10 2 23.5 4t27.5 3.5t27.5 2t22.5 0.5q17 0 27 -6t10 -25q0 -42 -4 -120.5t-4 -179.5v-117.5t1 -104.5t2 -84.5t3 -56.5q-17 -6 -39.5 -10t-42.5 -4q-27 0 -35 10t-8 23q0 19 1 52.5t1.5 78t1.5 99t1 116.5z" />
    <glyph glyph-name="afii10046" unicode="&#x42c;" horiz-adv-x="615" 
d="M172 707q12 0 18.5 -3t10 -9t4.5 -16.5t2 -25.5q2 -42 2.5 -99.5t0.5 -134.5q31 8 67 14t78 6q50 0 92 -13t72.5 -39t47.5 -64.5t17 -90.5q0 -63 -21 -108t-59 -73.5t-91.5 -41.5t-118.5 -13q-46 0 -83.5 4.5t-64.5 10.5q-32 7 -57 16q5 79 9 165.5t4 165.5q0 26 -0.5 55
t-1.5 58t-2.5 56t-4.5 50q-2 21 -4.5 36t-5 28t-6 24.5t-7.5 25.5q30 8 56 12t46 4zM331 343q-42 0 -71 -6t-49 -11l-2 -78t-3 -71q-2 -37 -5 -71q11 -4 27 -7q14 -3 32.5 -5t42.5 -2q36 0 65.5 7.5t51 23.5t33.5 40.5t12 58.5q0 60 -34 90.5t-100 30.5z" />
    <glyph glyph-name="afii10047" unicode="&#x42d;" horiz-adv-x="647" 
d="M256 614q-29 0 -51 -3.5t-39 -7.5t-31.5 -7.5t-28.5 -3.5t-21.5 8t-12 20.5t-5.5 27.5t-1 30q0 11 0.5 15.5t0.5 6.5q36 0 83 7.5t107 7.5q74 0 135.5 -22t105.5 -67t68.5 -112.5t24.5 -157.5q0 -71 -20 -138t-61.5 -119t-104.5 -83t-150 -31q-47 0 -87.5 5.5t-69.5 15
t-45.5 23t-16.5 28.5q0 25 7.5 47.5t20.5 44.5q18 -13 37 -24t42 -19.5t51 -13t64 -4.5q91 0 149 58t64 173q-49 -4 -94 -7t-84 -5.5t-70 -3.5t-52 -1q-29 0 -38 15.5t-9 46.5q0 8 2 22t4 29q13 -3 28 -5q13 -2 28.5 -3.5t32.5 -1.5h75t69.5 1t59 2t43.5 2q-14 100 -70 152
t-140 52z" />
    <glyph glyph-name="afii10048" unicode="&#x42e;" horiz-adv-x="997" 
d="M632 -15q-74 0 -130.5 23.5t-95 66t-59.5 103t-24 135.5h-67.5t-53.5 -1q-2 -60 -4 -120.5t-2 -111.5q0 -14 1 -27.5t3 -24.5q2 -13 5 -25q-17 -3 -41 -5t-38 -2q-28 0 -35.5 12.5t-7.5 44.5q0 23 1.5 62.5t4 101t4 148t1.5 203.5q0 45 -5 70t-12 52q27 6 49.5 9.5
t48.5 3.5q34 0 34 -23q0 -26 -0.5 -60t-1.5 -70t-2 -73t-1 -69q28 1 48 1.5t34 1t24 1t18 0.5q9 62 34 117t64 96.5t91 65.5t115 24q78 0 136.5 -25.5t96.5 -72t57 -112t19 -144.5q0 -74 -21 -141.5t-61 -120t-97.5 -83.5t-129.5 -31zM635 84q39 0 73 19.5t59.5 54.5t40 85
t14.5 111q0 62 -14.5 110.5t-40 82.5t-60.5 51.5t-77 17.5q-38 0 -72 -18.5t-59.5 -53.5t-41 -84.5t-15.5 -112.5q0 -62 14 -111t39.5 -83t61 -51.5t78.5 -17.5z" />
    <glyph glyph-name="afii10049" unicode="&#x42f;" horiz-adv-x="639" 
d="M221 125q-19 -38 -34.5 -63.5t-31.5 -41.5t-34 -23t-42 -7q-31 0 -43.5 13.5t-12.5 43.5q0 11 0.5 21t1.5 18q1 10 3 18q15 0 26.5 2.5t22.5 11t23 25t28 44.5q16 29 28 47.5t21 30.5t15.5 18t13.5 11q-68 21 -106.5 70.5t-38.5 120.5q0 61 21.5 104t60 70t90 39.5
t111.5 12.5q44 0 82.5 -3.5t67.5 -8.5q34 -5 63 -12q-5 -73 -8.5 -135.5t-5 -123.5t-2 -124t-0.5 -138q0 -41 2.5 -70.5t5.5 -49.5q4 -23 8 -39q-14 -3 -29 -6q-13 -2 -27.5 -4t-28.5 -2q-21 0 -31 6t-12 28q-1 13 -1 41v63t0.5 72.5t0.5 70.5h-52q-27 0 -46 -5.5t-35.5 -22
t-33.5 -46t-41 -77.5zM321 365q57 0 84 3q15 1 25 3q1 109 5.5 170t4.5 63q-23 5 -51.5 8t-53.5 3q-84 0 -119.5 -35t-35.5 -96q0 -52 35.5 -85.5t105.5 -33.5z" />
    <glyph glyph-name="afii10065" unicode="&#x430;" horiz-adv-x="554" 
d="M442 -4q-37 0 -46 24t-9 76q-9 -21 -24 -40t-36 -34t-48.5 -24t-62.5 -9q-80 0 -126 38t-46 121q0 31 10.5 60t34 51t60 35t89.5 13q54 0 92 -6.5t56 -11.5v17q0 56 -27 81.5t-79 25.5q-23 0 -44 -3.5t-40.5 -7t-37.5 -7t-35 -3.5q-22 0 -30 10t-8 36q0 19 3 36
q2 10 4 19q2 -1 6 -1h13q31 0 75 6t112 6q99 0 144.5 -49t45.5 -154v-116q0 -55 4 -97t16 -80q-26 -12 -66 -12zM229 82q37 0 64.5 13t47 32.5t31 42t14.5 42.5v6q-15 4 -45 8.5t-69 4.5q-54 0 -85 -20t-31 -60q0 -38 20.5 -53.5t52.5 -15.5z" />
    <glyph glyph-name="afii10066" unicode="&#x431;" horiz-adv-x="581" 
d="M55 304q0 60 7 112.5t23 95.5t42 75.5t64 51.5q45 23 95.5 33.5t110.5 21.5q21 4 38 8t42 13q2 -10 4 -21q2 -10 3.5 -22t1.5 -23q0 -44 -34 -52q-19 -5 -45.5 -7.5t-56 -6t-58.5 -9t-53 -17.5q-22 -11 -37 -26t-25 -35t-16 -47t-10 -61q27 35 67.5 57.5t103.5 22.5
q99 0 157 -60.5t58 -172.5q0 -50 -15 -94t-44.5 -77t-73.5 -52t-102 -19q-121 0 -184 74t-63 237zM304 381q-61 0 -94.5 -42t-33.5 -110q0 -31 7 -58.5t22 -48.5t38 -33.5t55 -12.5q37 0 61.5 13t38.5 35t20 49.5t6 57.5t-7.5 57t-22.5 48t-37.5 33t-52.5 12z" />
    <glyph glyph-name="afii10067" unicode="&#x432;" horiz-adv-x="541" 
d="M75 310q0 35 -2.5 66t-5.5 54q-4 26 -8 48q47 11 105.5 19.5t114.5 8.5q105 0 151.5 -32t46.5 -95q0 -42 -18 -68.5t-48 -38.5q43 -11 66.5 -40.5t23.5 -80.5q0 -44 -18 -74t-50.5 -49.5t-76 -28t-94.5 -8.5q-30 0 -59 3t-53.5 7.5t-42.5 9.5t-27 10q-10 7 -10 21
q0 16 1 36t1.5 50t1.5 73.5t1 108.5zM389 152q0 65 -103 65q-58 0 -106 -3q0 -32 -1.5 -64t-3.5 -61q24 -6 49.5 -9.5t48.5 -3.5q63 0 89.5 20.5t26.5 55.5zM274 423q-17 0 -34.5 -1.5t-31.5 -3.5q-17 -3 -33 -5l5 -120q10 -1 21 -1h54q48 0 79 15t31 53q0 30 -21 46.5
t-70 16.5z" />
    <glyph glyph-name="afii10068" unicode="&#x433;" horiz-adv-x="426" 
d="M364 406q-23 0 -49 0.5t-51.5 1t-48 1t-37.5 0.5v-70v-74t0.5 -70.5t0.5 -58.5q1 -26 2 -50t3 -41q2 -21 4 -38q-23 -7 -39.5 -9t-31.5 -2q-23 0 -33 7t-10 31v352q0 21 -2 41t-4 36l-5 35q10 0 21 1q9 1 21 1.5t25 0.5q38 0 81 -1.5t89 -1.5q29 0 56 2t47 9q1 -9 2 -20
q1 -9 1.5 -19.5t0.5 -19.5q0 -20 -7 -32t-36 -12z" />
    <glyph glyph-name="afii10069" unicode="&#x434;" horiz-adv-x="588" 
d="M466 -3q-42 2 -79.5 2.5t-78.5 0.5q-48 0 -103 -1.5t-105 -3.5q0 -22 2 -42t5 -37q3 -19 7 -37l-26 -6q-11 -2 -25 -4t-28 -2q-17 0 -21 6.5t-6 20.5q-1 8 -1.5 26.5t-0.5 39.5v40v30q0 22 10 37t40 15h9q17 27 33.5 58.5t29 71.5t20.5 91t8 116q0 20 -2 38t-7 38
q45 2 91 3t86.5 1h72.5t48 -1q37 -2 46.5 -9t9.5 -22q0 -8 -2 -30t-4 -52t-4 -65.5t-2 -70.5v-117q0 -26 1 -48h20q34 0 44 -11t10 -28q0 -7 -0.5 -20t-0.5 -28t-0.5 -30t-0.5 -25v-33.5t1 -34.5q-14 -5 -33.5 -6t-30.5 -1q-23 0 -31 7.5t-8 27.5t2 43t4 52zM254 413
q-2 -119 -25 -199t-54 -131q36 0 73 0.5t68 0.5h69q-1 20 -1 42v89v41t0.5 53t1.5 55.5t2 48.5q-9 1 -27 1h-37.5h-38.5t-31 -1z" />
    <glyph glyph-name="afii10070" unicode="&#x435;" horiz-adv-x="554" 
d="M497 224q-85 -6 -169.5 -6.5t-170.5 1.5q6 -70 48 -104t105 -34q38 0 66 7t46 16q21 11 35 24q8 -11 15.5 -30.5t7.5 -38.5q0 -15 -14 -27.5t-38 -21.5t-56 -14.5t-68 -5.5q-63 0 -111.5 18t-81.5 50t-50 77.5t-17 99.5q0 61 18 111.5t51 86t79.5 55t103.5 19.5t97 -17
t65.5 -45.5t37 -64.5t11.5 -75q0 -17 -1.5 -32t-3.5 -26q-3 -13 -5 -23zM160 295q18 0 46.5 -0.5t61 -0.5h67t66.5 1v17q0 21 -5.5 40t-18.5 33.5t-33 23.5t-48 9q-52 0 -88.5 -32.5t-47.5 -90.5z" />
    <glyph glyph-name="afii10072" unicode="&#x436;" horiz-adv-x="782" 
d="M190 90q-14 -32 -25.5 -50.5t-24 -28.5t-26.5 -13t-32 -3q-39 0 -48 32q-4 12 -4 33q0 6 0.5 12.5t1.5 11.5l2 12q26 0 39 10t30 42q15 28 25.5 48t19.5 33.5t17 22t18 14.5q-19 27 -36.5 50t-35.5 45t-37.5 43.5t-43.5 44.5q-1 0 4 6t13.5 14.5t19.5 16.5t22 13
q15 7 30 2.5t33 -25.5q25 -29 56 -77.5t61 -105.5q14 2 32.5 3t36.5 1q0 13 0.5 23t0.5 20q0 40 -3 76t-9 78q14 2 36.5 4t39.5 2q26 0 35.5 -8.5t9.5 -37.5q0 -9 -0.5 -24t-1 -33.5t-1 -38t-0.5 -37.5v-24q19 0 36.5 -1t31.5 -3q33 65 67.5 118.5t62.5 78.5q18 16 33 14
t35 -16q18 -14 29 -26q6 -7 12 -13q-24 -23 -44 -44.5t-38 -43t-35.5 -45t-36.5 -50.5q9 -6 17.5 -15t17.5 -22.5t20 -33t26 -47.5q17 -32 30 -42t39 -10l2 -12q1 -5 1.5 -11.5t0.5 -12.5q0 -21 -4 -33q-9 -32 -48 -32q-18 0 -32 3t-26.5 13t-24 28.5t-25.5 50.5
q-19 42 -31.5 67t-26.5 38.5t-34.5 17.5t-54.5 5q0 -32 0.5 -63t0.5 -63q0 -30 4 -53t6 -32q-17 -5 -38 -8t-40 -3q-13 0 -20.5 5.5t-12 13.5t-6 18.5t-1.5 21.5q-1 14 -1.5 35.5t-0.5 44.5v45v38q-33 0 -53 -4t-34.5 -17.5t-27 -38.5t-31.5 -68z" />
    <glyph glyph-name="afii10073" unicode="&#x437;" horiz-adv-x="491" 
d="M451 152q0 -43 -17 -74.5t-48 -52t-73.5 -30.5t-93.5 -10q-32 0 -64.5 2.5t-58.5 9.5t-43 18.5t-17 29.5q0 21 8 40t19 36q43 -26 81 -35t83 -9q33 0 55 5.5t34.5 15t17.5 22t5 25.5q0 63 -100 63q-31 0 -53 -3.5t-37 -3.5q-20 0 -26.5 14t-6.5 30q0 9 1 18t3 16
q2 8 5 16q28 -2 51.5 -2.5t37.5 -0.5q52 0 78.5 18t26.5 50q0 27 -19.5 42.5t-63.5 15.5q-47 0 -81.5 -11t-59.5 -11q-14 0 -22 7t-12 18t-5 24t-1 26q0 6 0.5 11.5t0.5 6.5q24 1 45.5 4t44 6t47 5.5t54.5 2.5q84 0 132 -28.5t48 -95.5q0 -75 -62 -112q45 -18 65.5 -48.5
t20.5 -70.5z" />
    <glyph glyph-name="afii10074" unicode="&#x438;" horiz-adv-x="562" 
d="M178 7q-23 -6 -37.5 -8.5t-36.5 -2.5q-24 0 -31 8t-7 35q0 29 1 72.5t2 91t2 93t1 78.5q0 24 -3 45.5t-6 37.5q-4 18 -9 34q10 2 21 4q9 2 20.5 3.5t22.5 1.5q39 0 52 -9.5t13 -38.5q0 -55 -5.5 -125.5t-5.5 -162.5q28 45 53.5 86t51 80t52 78.5t56.5 82.5q15 5 36 7
t32 2q28 0 39.5 -9.5t11.5 -38.5q0 -12 -0.5 -36t-1.5 -55t-2.5 -65t-2.5 -65t-1.5 -56.5t-0.5 -38.5v-50t1 -41q1 -21 2 -38q-23 -6 -39 -8.5t-32 -2.5q-23 0 -32 7t-9 31q0 51 5 136t5 191q-58 -89 -113 -173.5t-105 -180.5z" />
    <glyph glyph-name="afii10075" unicode="&#x439;" horiz-adv-x="562" 
d="M178 7q-23 -6 -37.5 -8.5t-36.5 -2.5q-24 0 -31 8t-7 35q0 29 1 72.5t2 91t2 93t1 78.5q0 24 -3 45.5t-6 37.5q-4 18 -9 34q10 2 21 4q9 2 20.5 3.5t22.5 1.5q39 0 52 -9.5t13 -38.5q0 -55 -5.5 -125.5t-5.5 -162.5q28 45 53.5 86t51 80t52 78.5t56.5 82.5q15 5 36 7
t32 2q28 0 39.5 -9.5t11.5 -38.5q0 -12 -0.5 -36t-1.5 -55t-2.5 -65t-2.5 -65t-1.5 -56.5t-0.5 -38.5v-50t1 -41q1 -21 2 -38q-23 -6 -39 -8.5t-32 -2.5q-23 0 -32 7t-9 31q0 51 5 136t5 191q-58 -89 -113 -173.5t-105 -180.5zM414 733l8 -10q3 -5 5.5 -11.5t2.5 -14.5
q0 -20 -11 -41.5t-31 -39.5t-48 -30t-63 -12q-38 0 -64.5 11.5t-43.5 27t-24.5 32t-7.5 26.5t10 21.5t23 21.5q15 11 34 23q15 -85 87 -85q37 0 68.5 21t54.5 60z" />
    <glyph glyph-name="afii10076" unicode="&#x43a;" horiz-adv-x="532" 
d="M305 152q-12 22 -21.5 35t-23 20t-33 9t-49.5 2q0 -32 0.5 -63t0.5 -63q0 -30 3.5 -53t5.5 -32q-16 -5 -37 -8t-40 -3q-23 0 -33 13.5t-10 32.5q0 77 2.5 158.5t2.5 171.5q0 35 -4.5 65.5t-8.5 56.5q14 2 36.5 4t39.5 2q26 0 35.5 -8.5t9.5 -37.5q0 -10 -0.5 -29
t-1.5 -41.5t-1.5 -46t-0.5 -42.5q26 0 45.5 -1t34.5 -3q18 32 36 62t36 56.5t34 47t29 33.5q17 16 32.5 14.5t35.5 -16.5q17 -13 29 -26q6 -7 12 -13q-25 -22 -46 -43t-40 -43t-37.5 -46t-37.5 -51q13 -8 24.5 -19.5t24.5 -34.5l35 -64q18 -33 32 -42.5t41 -9.5q0 -6 1 -12
q1 -5 1.5 -11.5t0.5 -12.5q0 -30 -10 -47.5t-42 -17.5q-16 0 -29 3t-25 11t-23.5 23t-23.5 38z" />
    <glyph glyph-name="afii10077" unicode="&#x43b;" horiz-adv-x="553" 
d="M146 495q44 2 90 3t86.5 1h72.5t48 -1q37 -2 46.5 -9.5t9.5 -22.5q0 -16 -5.5 -70t-5.5 -149q0 -66 1.5 -105.5t3.5 -64.5t5.5 -39.5t7.5 -29.5q-16 -5 -38.5 -9t-41.5 -4q-24 0 -30.5 7t-9.5 24q-2 9 -2.5 30t-1.5 48.5t-1 57v54.5q0 48 1.5 97t3.5 98q-10 0 -26.5 0.5
t-35 0.5t-37.5 -0.5t-35 -0.5q-1 -19 -3.5 -62t-10.5 -93q-12 -75 -32.5 -125t-46 -80.5t-55 -43t-59.5 -12.5q-23 0 -31 8t-8 31q0 27 3 45q1 11 3 19q2 -1 5 -1q3 -1 13 -1t23.5 5.5t28.5 22.5t30 48.5t26 83.5q11 48 14 93t3 72q0 20 -2 37t-7 37z" />
    <glyph glyph-name="afii10078" unicode="&#x43c;" horiz-adv-x="675" 
d="M53 491l36 4q15 2 30.5 3.5t26.5 1.5q17 0 27.5 -3t19.5 -18q11 -18 27 -50.5t35.5 -70.5t41.5 -79t46 -75q23 50 50 102t50 94q26 49 53 96q7 1 18 2q8 1 20 1.5t26 0.5q24 0 37 -7.5t13 -40.5q0 -18 -0.5 -53.5t-1 -80t-1 -93t-0.5 -90.5q0 -26 1.5 -49.5t3.5 -40.5
q2 -20 5 -38q-23 -7 -39.5 -9t-32.5 -2q-23 0 -32.5 7t-9.5 31v46t0.5 79t1 96t1.5 96q-26 -51 -57 -112.5t-55 -121.5l-22 -6q-9 -2 -20 -4t-19 -2q-20 0 -30.5 4t-18.5 15q-32 44 -63 102.5t-58 123.5q0 -102 2.5 -184.5t13.5 -158.5q-15 -7 -31.5 -9t-35.5 -2
q-44 0 -44 46q0 74 1.5 156.5t1.5 160.5q0 29 -3 54t-6 42q-4 20 -9 36z" />
    <glyph glyph-name="afii10079" unicode="&#x43d;" horiz-adv-x="558" 
d="M500 452q0 -28 -1.5 -70t-3 -87.5t-3 -88t-1.5 -71.5v-49.5t1 -40.5q1 -20 2 -38q-23 -7 -39.5 -9t-32.5 -2q-23 0 -32.5 7t-9.5 31q0 34 2 76t4 100q-14 -1 -30 -2q-14 -1 -32 -1h-38q-22 0 -42 0.5t-36 2.5q-18 1 -34 3v-78q0 -26 0.5 -49.5t2.5 -40.5q2 -20 4 -38
q-23 -7 -38.5 -9t-38.5 -2q-24 0 -31.5 13t-7.5 40q0 74 3 159t3 166q0 17 -3 37t-6 38l-8 42l22 4q10 2 20.5 3.5t21.5 1.5q12 0 24 -1t21.5 -5.5t15.5 -14t6 -27.5q0 -26 -2 -65.5t-4 -84.5q16 -2 34 -3q16 -2 36 -2.5t43 -0.5q42 0 68 3q15 1 28 3q1 21 1 43v46
q0 17 -2 35t-4 32q-3 17 -5 33q16 5 36 7t32 2q27 0 40.5 -9.5t13.5 -38.5z" />
    <glyph glyph-name="afii10080" unicode="&#x43e;" horiz-adv-x="581" 
d="M292 420q-35 0 -60 -13t-42 -36t-25 -55t-8 -69q0 -36 8.5 -66.5t25 -53.5t41 -36t57.5 -13q37 0 62.5 14t41.5 38t23.5 55.5t7.5 65.5q0 35 -9 66t-25.5 54t-41.5 36t-56 13zM44 242q0 57 17 105.5t49.5 84t79 55.5t105.5 20q57 0 102 -18t76 -51t47.5 -79.5
t16.5 -103.5q0 -56 -16.5 -104.5t-48 -84t-77.5 -56t-106 -20.5q-59 0 -105 18t-77 51t-47 79.5t-16 103.5z" />
    <glyph glyph-name="afii10081" unicode="&#x43f;" horiz-adv-x="551" 
d="M380 300q1 24 1.5 54.5t-1.5 58.5q-25 0 -56 0.5t-60 0.5h-41t-44 -1l-2 -54t-2 -57t-1.5 -65.5t-0.5 -79.5q0 -67 3 -107q2 -24 4 -43q-23 -7 -38.5 -9t-37.5 -2q-24 0 -31.5 13t-7.5 40q0 74 3 159t3 166q0 17 -3 38t-6 39q-4 21 -8 43q9 1 20 2q9 1 19 2t21 2
q9 0 30.5 0.5t46 1t48 1t37.5 0.5q17 0 42 -0.5t49 -1t43.5 -1t26.5 -0.5q28 -2 41.5 -10.5t13.5 -37.5q0 -28 -1.5 -70t-3 -87t-3 -88t-1.5 -71v-50t1 -41q1 -21 2 -38q-23 -7 -39.5 -9t-32.5 -2q-23 0 -32.5 7t-9.5 31q0 19 1 52t2.5 71t2.5 76t2 67z" />
    <glyph glyph-name="afii10082" unicode="&#x440;" horiz-adv-x="589" 
d="M180 416q29 46 71.5 68.5t92.5 22.5q44 0 81 -17.5t63.5 -50t41.5 -78t15 -102.5q0 -55 -15 -104t-44.5 -85.5t-74 -58t-103.5 -21.5q-32 0 -56.5 8t-41.5 18q-20 11 -34 26v-175q0 -13 2 -27t4 -27q3 -15 6 -29q-23 -6 -42 -8.5t-41 -2.5q-23 0 -32 11.5t-9 34.5
q0 42 1 77.5t2 73t2 82.5t1 105v57.5v60t-0.5 56.5t-0.5 48q-1 19 -4 39t-7 37q-4 19 -10 38q12 1 24 3q11 2 23.5 3t24.5 1q24 0 38 -8.5t18 -32.5q1 -8 1.5 -19t0.5 -24h2zM432 250q0 74 -32 119t-89 45q-36 0 -61.5 -17t-41.5 -37q-18 -24 -30 -54q-1 -42 -1.5 -85.5
t-0.5 -88.5q12 -15 29 -26q14 -10 35 -18t50 -8q67 0 104.5 45.5t37.5 124.5z" />
    <glyph glyph-name="afii10083" unicode="&#x441;" horiz-adv-x="476" 
d="M295 505q25 0 44 -2.5t35.5 -5t32.5 -5t36 -2.5q0 -15 -1 -28q-1 -12 -3 -24.5t-5 -21.5q-6 -12 -14 -16t-21 -4q-11 0 -21 2.5t-22.5 6t-28 6t-37.5 2.5q-33 0 -57.5 -13t-41.5 -35.5t-25.5 -53t-8.5 -64.5q0 -72 37 -118t106 -46q38 0 68 12.5t55 31.5q12 -15 18 -35
t6 -37q0 -14 -14 -26t-36.5 -20.5t-51 -13.5t-56.5 -5q-56 0 -101.5 17.5t-77.5 50t-49 78.5t-17 103q0 59 18.5 108t51.5 84t79 54.5t102 19.5z" />
    <glyph glyph-name="afii10084" unicode="&#x442;" horiz-adv-x="449" 
d="M163 34q0 27 1.5 71.5t3.5 94.5t3.5 100t1.5 90v16q-48 1 -91 4t-69 5q-1 9 -2 19q-1 8 -1.5 17t-0.5 16q0 17 7.5 25t27.5 8q25 0 48.5 -0.5l47 -1t48 -1t52.5 -0.5h55.5t54.5 1.5t48 4.5t37 8q1 -10 2 -21q1 -9 1.5 -20t0.5 -20q0 -20 -6 -30t-29 -12q-21 -2 -53 -2.5
t-68 -0.5q-1 -29 -2.5 -62t-3 -65.5t-2.5 -62t-1 -50.5q0 -31 0.5 -59.5t1.5 -50.5q1 -26 2 -48q-23 -7 -40 -9t-32 -2q-23 0 -33 7t-10 31z" />
    <glyph glyph-name="afii10085" unicode="&#x443;" horiz-adv-x="528" 
d="M108 -119q28 0 53.5 18t57.5 69q-42 121 -80 213.5t-67 155.5q-34 74 -65 127l46 23t43 12q18 0 26 -8t19 -28q25 -58 50 -120q21 -54 45.5 -121.5t44.5 -136.5q22 48 41 101t32.5 106t21.5 103.5t8 94.5q10 2 22 5q11 2 24.5 4t30.5 2q22 0 31.5 -7t9.5 -28
q0 -22 -12.5 -72t-34 -114t-50.5 -135.5t-62 -137.5q-25 -49 -51 -92t-56 -75.5t-64.5 -51t-74.5 -18.5q-32 0 -47 10t-15 38q0 16 3 29.5t8 24.5q5 12 12 23q5 -4 13 -7q14 -7 37 -7z" />
    <glyph glyph-name="afii10086" unicode="&#x444;" horiz-adv-x="797" 
d="M458 657q0 -9 -0.5 -30t-1.5 -48.5t-1.5 -58t-1.5 -59.5q16 17 42 31.5t67 14.5q37 0 71.5 -16.5t61 -48t42.5 -77t16 -104.5q0 -56 -15 -105.5t-42.5 -86t-65.5 -57.5t-84 -21q-38 0 -61 15t-36 32v-59t1 -57q0 -31 1 -62q1 -27 2.5 -46.5t3.5 -27.5q-17 -6 -36 -8.5
t-38 -2.5q-23 0 -29.5 6t-6.5 25v40v56t0.5 66.5t0.5 71.5q-16 -17 -43.5 -33t-69.5 -16q-37 0 -71.5 16.5t-61 47.5t-42.5 76.5t-16 104.5q0 57 15.5 106t43 86t65.5 58t84 21q36 0 59.5 -15t36.5 -31v123q0 66 -13 121q7 1 17 2t20.5 2t20.5 1.5t17 0.5q28 0 38 -11
t10 -43zM447 105q12 -11 29.5 -20t43.5 -9q25 0 46.5 10.5t37.5 32.5t25.5 55t9.5 77q0 36 -7.5 66.5t-22 53t-35 35.5t-45.5 13q-27 0 -47 -8.5t-34 -18.5zM348 392q-12 11 -29.5 20t-40.5 9q-50 0 -84.5 -43.5t-34.5 -131.5q0 -36 7.5 -66.5t22 -53t34.5 -35.5t46 -13
t45.5 8.5t33.5 19.5v286z" />
    <glyph glyph-name="afii10087" unicode="&#x445;" horiz-adv-x="532" 
d="M164 476q13 -19 28 -40.5t29 -43t27.5 -41.5t23.5 -36q37 45 69 94t58 95q17 -2 35.5 -9t27.5 -13q22 -18 22 -34q0 -14 -17 -39q-22 -31 -61 -77.5t-84 -92.5q15 -20 35 -45t43 -49q23 -26 38.5 -36.5t29.5 -10.5q5 0 12.5 0.5t12.5 2.5q1 -8 3 -18q2 -8 3 -19.5
t1 -23.5q0 -23 -12 -34.5t-41 -11.5q-25 0 -49 11.5t-53 47.5q-30 36 -51.5 68.5t-40.5 61.5q-27 -36 -50.5 -70t-40.5 -60q-20 -31 -37 -59q-21 1 -42.5 5.5t-34.5 13.5q-18 13 -18 27q0 11 10 25q10 15 27.5 37t39.5 47t46.5 51.5t49.5 52.5q-38 49 -78.5 99t-85.5 100
q16 17 39 34t49 17q10 0 18 -5.5t19 -21.5z" />
    <glyph glyph-name="afii10088" unicode="&#x446;" horiz-adv-x="574" 
d="M179 309q0 -12 -1 -41t-2 -62.5t-1.5 -66.5t-0.5 -53q9 -1 25.5 -1.5t39.5 -0.5q41 0 71.5 1t63.5 3q1 85 3 154.5t2 137.5q0 14 -1 33.5t-3 36.5q-2 20 -3 41q19 4 42 6.5t40 2.5t26 -6.5t9 -24.5q0 -41 -1.5 -89.5t-3 -97.5t-3 -96t-1.5 -84v-13h27q29 0 38 -8.5
t9 -26.5q0 -7 -0.5 -23.5t-0.5 -35t-0.5 -36.5t-0.5 -28v-28.5t1 -27.5q-14 -5 -33.5 -6.5t-30.5 -1.5q-23 0 -31 7.5t-8 27.5t2 50t4 52q-14 -1 -30 -2t-37 -1.5t-48 -0.5h-63h-65.5t-53.5 1q-26 1 -49 2q-22 1 -33 5t-11 16q0 80 2.5 171.5t2.5 178.5q0 18 -3 38.5
t-6 37.5q-4 20 -8 41l26 4q11 2 23.5 3.5t23.5 1.5q16 0 27 -1t17.5 -5.5t10 -14t3.5 -27.5q0 -22 -2 -59.5t-4 -83.5z" />
    <glyph glyph-name="afii10089" unicode="&#x447;" horiz-adv-x="541" 
d="M235 241q26 0 48 6.5t39 15.5t29.5 18.5t19.5 16.5q1 26 1 46.5v29.5q0 28 -2 57t-7 59q23 6 40 8t39 2q23 0 32 -10t9 -30q0 -19 -1.5 -48t-3 -64t-2.5 -74.5t-1 -79.5q0 -64 1.5 -110t6.5 -78q-6 -3 -13 -5q-15 -5 -37 -5q-38 0 -51 15.5t-13 60.5v43q0 20 0.5 45.5
t0.5 54.5q-6 -7 -19 -18.5t-33 -22t-48.5 -18.5t-65.5 -8q-74 0 -112 41t-38 117v55t-1 45t-2 40.5t-4 42.5q20 6 38 8.5t37 2.5q23 0 34 -8.5t11 -31.5q0 -26 -3.5 -62t-3.5 -79q0 -42 18 -60t57 -18z" />
    <glyph glyph-name="afii10090" unicode="&#x448;" horiz-adv-x="749" 
d="M582 380q0 16 -1 35t-3 36q-2 19 -3 40q19 4 41.5 6.5t39.5 2.5t26 -6.5t9 -24.5q0 -30 -1.5 -77.5t-3 -99.5t-2.5 -102.5t-1 -87.5q0 -11 0.5 -26.5t1.5 -30.5q1 -18 3 -36q-18 -3 -40 -5t-58.5 -2.5t-92 -1t-140.5 -0.5h-77t-73.5 0.5t-62 1t-42.5 1.5q-16 1 -25 4
t-13 9t-4.5 15t-0.5 22q0 39 1 84t1.5 89.5t1.5 84.5t1 69q0 40 -3.5 62t-6.5 47q24 5 42 8t41 3q20 0 27.5 -4.5t7.5 -15.5q0 -33 -2 -81t-4.5 -101.5t-4 -107.5t-1.5 -99q20 -2 35.5 -2.5t33 -1t38.5 -0.5t51 -1q0 42 1 86q1 38 1.5 82.5t0.5 86.5q0 20 -1 46.5t-2 49.5
q-1 27 -2 56q19 4 40 5.5t38 1.5t27.5 -7.5t10.5 -25.5q0 -42 -1.5 -90t-3.5 -97.5t-3.5 -99t-1.5 -94.5q31 1 52.5 1t38.5 0.5t31.5 0.5t32.5 1q1 37 1.5 70.5t1.5 68t1.5 71.5t0.5 81z" />
    <glyph glyph-name="afii10091" unicode="&#x449;" horiz-adv-x="781" 
d="M585 380q0 14 -1 33t-3 36q-2 20 -3 42q19 4 41.5 6.5t39.5 2.5t26 -6.5t9 -24.5q0 -36 -1.5 -81t-3 -92.5t-2.5 -93.5t-1 -84v-29h28q29 0 38 -8.5t9 -26.5q0 -7 -0.5 -23.5t-1 -35t-1 -36.5t-0.5 -28q0 -15 0.5 -28.5t1.5 -27.5q-15 -5 -34 -6.5t-30 -1.5
q-24 0 -31.5 7.5t-7.5 27.5t1 50t3 52q-15 -2 -35 -2.5t-53.5 -1t-85 -0.5h-129.5q-85 0 -149 1t-98 3q-25 1 -37.5 5.5t-12.5 18.5q0 49 3.5 125t3.5 193q0 48 -5.5 84.5t-8.5 60.5q25 5 45.5 7t43.5 2q20 0 28 -4.5t8 -15.5q0 -31 -2 -80.5t-5 -105t-5 -110t-2 -94.5
q21 -1 36.5 -1.5t32 -1t38 -1t54.5 -1.5v256q0 21 -0.5 47.5t-1.5 49.5q-1 27 -2 55q19 4 41 5.5t39 1.5t26 -7.5t9 -25.5q0 -41 -1.5 -88.5t-3.5 -97.5t-3.5 -100.5t-1.5 -95.5q34 0 54.5 0.5t35.5 0.5t29 0.5t34 1.5q1 48 1.5 87.5t1.5 74t1.5 66.5t0.5 64z" />
    <glyph glyph-name="afii10092" unicode="&#x44a;" horiz-adv-x="590" 
d="M248 454q0 -19 -0.5 -42.5t-0.5 -44.5q-1 -25 -1 -50q19 6 40 10q18 4 41 7.5t47 3.5q85 0 136 -39.5t51 -122.5q0 -47 -17 -81.5t-48 -57t-75 -33.5t-98 -11q-43 0 -93.5 8t-95.5 23q5 74 6 130t1 98v158q-22 -5 -45.5 -7t-41.5 -2q-26 0 -34.5 8t-8.5 29q0 14 3 33
t6 31q17 -3 31.5 -3.5t31.5 -0.5q28 0 59 2t59 2t37.5 -9.5t9.5 -38.5zM346 251q-19 0 -37 -3t-32 -7q-17 -4 -32 -9q-1 -38 -2 -73t-3 -67q11 -3 25 -6q12 -2 27.5 -4t34.5 -2q26 0 48.5 4.5t39 14.5t26 26t9.5 40q0 45 -25.5 65.5t-78.5 20.5z" />
    <glyph glyph-name="afii10093" unicode="&#x44b;" horiz-adv-x="723" 
d="M549 381q0 25 -2.5 45t-5.5 34q-4 17 -8 29q18 5 37.5 8.5t45.5 3.5q47 0 47 -38q0 -33 -2 -75.5t-4 -89t-4 -94t-2 -89.5q0 -40 1.5 -69.5t3.5 -37.5q-11 -3 -19 -5.5t-15.5 -3.5t-15 -1.5t-18.5 -0.5q-47 0 -47 46q0 54 1 99.5t2.5 86.5t3 78.5t1.5 73.5zM175 455
q0 -19 -0.5 -43t-1.5 -45q-1 -25 -1 -50q19 6 40 10q18 4 41 7.5t47 3.5q86 0 136.5 -39t50.5 -123q0 -47 -17 -81.5t-48 -57t-75 -33.5t-98 -11q-43 0 -93.5 8t-95.5 23q5 74 6 130t1 98q0 54 -2 112t-14 127q12 2 24 5q11 2 23 4t24 2q33 0 43 -8.5t10 -38.5zM272 251
q-18 0 -36.5 -3t-32.5 -7q-17 -4 -32 -9q0 -38 -1.5 -72t-3.5 -68q11 -3 25 -6q12 -2 27.5 -4t34.5 -2q26 0 48.5 5t39 16t26 27.5t9.5 40.5q0 45 -25.5 63.5t-78.5 18.5z" />
    <glyph glyph-name="afii10094" unicode="&#x44c;" horiz-adv-x="515" 
d="M175 455q0 -19 -0.5 -43t-1.5 -45q-1 -25 -1 -50q19 6 40 10q18 4 41 7.5t47 3.5q86 0 136.5 -39t50.5 -123q0 -47 -17 -81.5t-48 -57t-75 -33.5t-98 -11q-43 0 -93.5 8t-95.5 23q5 74 6 130t1 98q0 54 -2 112t-14 127q12 2 24 5q11 2 23 4t24 2q33 0 43 -8.5t10 -38.5z
M272 251q-18 0 -36.5 -3t-32.5 -7q-17 -4 -32 -9q0 -38 -1.5 -72t-3.5 -68q11 -3 25 -6q12 -2 27.5 -4t34.5 -2q26 0 48.5 5t39 16t26 27.5t9.5 40.5q0 45 -25.5 63.5t-78.5 18.5z" />
    <glyph glyph-name="afii10095" unicode="&#x44d;" horiz-adv-x="504" 
d="M204 -15q-27 0 -57.5 2.5t-57 9.5t-44 19t-17.5 31q0 22 8 42t20 37q38 -25 71.5 -35t73.5 -10q63 0 99 36t45 95q-16 -2 -42.5 -3.5t-57.5 -2.5t-62.5 -1.5t-56.5 -0.5q-20 0 -27 12t-7 27q0 9 1 19t3 19q2 11 5 21q37 -4 77 -7q35 -2 78 -3t87 3q-8 54 -40.5 87.5
t-94.5 33.5q-18 0 -34.5 -3.5t-31.5 -7t-28.5 -7t-26.5 -3.5q-14 0 -22.5 7t-12.5 18t-5 24.5t-1 26.5q0 6 0.5 11.5t0.5 6.5q24 2 44 5t40.5 6t41.5 5t47 2q55 0 99.5 -17.5t76 -50t48 -79.5t16.5 -105q0 -56 -16.5 -105t-49 -85.5t-80 -58t-110.5 -21.5z" />
    <glyph glyph-name="afii10096" unicode="&#x44e;" horiz-adv-x="791" 
d="M277 304q8 45 27.5 82t49.5 64t70 42t89 15q55 0 98.5 -18t73 -51t45 -79.5t15.5 -103.5q0 -56 -15.5 -104.5t-45.5 -84t-74.5 -56t-102.5 -20.5q-107 0 -166 59t-67 161q-17 1 -41 1h-56q-1 -22 -1 -46v-51q0 -41 3 -72t5 -39q-23 -5 -39.5 -7.5t-38.5 -2.5
q-23 0 -31 11.5t-8 35.5q0 60 1 111.5t2.5 97.5t2.5 87.5t1 82.5q0 12 -2.5 24.5t-5.5 22.5q-4 11 -8 23q21 6 41.5 8t32.5 2q23 0 38 -9t15 -36q0 -15 -1 -40l-2 -50q-2 -29 -3 -60h98zM510 420q-33 0 -56.5 -13t-38.5 -36t-22.5 -55t-7.5 -69q0 -36 7.5 -66.5t23 -53.5
t38.5 -36t53 -13q35 0 59 14t38.5 38t21 55.5t6.5 65.5q0 35 -8 66t-23.5 54t-38 36t-52.5 13z" />
    <glyph glyph-name="afii10097" unicode="&#x44f;" horiz-adv-x="554" 
d="M209 85q-15 -31 -28 -49.5t-26 -28.5t-26.5 -13.5t-29.5 -3.5q-53 0 -53 59q0 7 0.5 14.5t1.5 13.5l2 14q26 0 40.5 9.5t31.5 41.5q12 23 20 32.5t23 19.5q-104 28 -104 142q0 37 15 68t43 53t68.5 34.5t92.5 12.5q41 0 79 -3t67 -7q34 -4 65 -9q-7 -64 -11 -128.5
t-4 -129.5q0 -15 0.5 -33t1 -37t1 -36.5t1.5 -30.5q0 -5 1.5 -16t4 -23t4.5 -24t4 -20q-23 -7 -40.5 -9.5t-38.5 -2.5q-23 0 -33.5 8t-11.5 29q-2 29 -1 69t1 75h-39q-22 0 -38 -3.5t-30 -13.5t-26.5 -28t-27.5 -46zM274 254h42t31 1q14 0 25 1q0 18 1 39t2 42.5t2.5 40.5
t2.5 33q-13 1 -28 3q-14 2 -31.5 3t-37.5 1q-23 0 -43 -4t-35 -13.5t-23.5 -26t-8.5 -41.5q0 -45 26.5 -62t74.5 -17z" />
    <glyph glyph-name="afii10071" unicode="&#x451;" horiz-adv-x="554" 
d="M497 224q-85 -6 -169.5 -6.5t-170.5 1.5q6 -70 48 -104t105 -34q38 0 66 7t46 16q21 11 35 24q8 -11 15.5 -30.5t7.5 -38.5q0 -15 -14 -27.5t-38 -21.5t-56 -14.5t-68 -5.5q-63 0 -111.5 18t-81.5 50t-50 77.5t-17 99.5q0 61 18 111.5t51 86t79.5 55t103.5 19.5t97 -17
t65.5 -45.5t37 -64.5t11.5 -75q0 -17 -1.5 -32t-3.5 -26q-3 -13 -5 -23zM160 295q18 0 46.5 -0.5t61 -0.5h67t66.5 1v17q0 21 -5.5 40t-18.5 33.5t-33 23.5t-48 9q-52 0 -88.5 -32.5t-47.5 -90.5zM146 641q0 11 1 20t3 17q2 9 4 16q3 1 19 4.5t31 3.5q26 0 39 -13.5
t13 -45.5q0 -17 -3 -31t-4 -16q-1 -1 -16.5 -4t-30.5 -3q-20 0 -38 10.5t-18 41.5zM343 641q0 22 3 37q1 9 3 16q4 1 20 4.5t31 3.5q26 0 39 -13.5t13 -45.5q0 -17 -3 -31t-5 -16q0 -1 -15.5 -4t-31.5 -3q-20 0 -37 10.5t-17 41.5z" />
    <glyph glyph-name="afii10050" unicode="&#x490;" 
 />
    <glyph glyph-name="endash" unicode="&#x2013;" horiz-adv-x="638" 
d="M55 259q0 8 0.5 17t0.5 19q0 16 8 23t31 7q45 0 109 -1t131.5 -1t132 2t110.5 8q1 -9 2 -20q1 -9 2 -19.5t1 -19.5q0 -24 -9 -30t-37 -7q-44 -2 -107.5 -2.5t-131 0t-132.5 2.5t-111 6v16z" />
    <glyph glyph-name="emdash" unicode="&#x2014;" horiz-adv-x="874" 
d="M55 262q0 6 0.5 14t0.5 18q0 17 8 24t31 7q36 0 93 -0.5t124.5 -1t140.5 -0.5t141 1t125.5 3t94.5 6q1 -5 2 -11q1 -5 2 -13t1 -17q0 -24 -9 -37t-37 -15q-36 -2 -93 -3t-124 -1t-139.5 1t-140.5 3t-125.5 4t-95.5 5v13z" />
    <glyph glyph-name="quoteleft" unicode="&#x2018;" horiz-adv-x="236" 
d="M47 504q0 34 15 70t36 66t42.5 49.5t33.5 19.5q7 0 13.5 -1.5t11.5 -3.5q6 -3 12 -5q-21 -41 -31.5 -68.5t-15 -51t-4.5 -48.5t1 -59q-11 -3 -23 -5q-23 -5 -47 -5q-22 0 -33 8t-11 34z" />
    <glyph glyph-name="quoteright" unicode="&#x2019;" horiz-adv-x="236" 
d="M189 665q0 -33 -15 -69t-36 -66t-42 -49.5t-33 -19.5q-15 0 -27 5q-6 2 -12 5q22 40 33 67.5t15.5 51.5t4 48.5t-1.5 59.5q11 2 23 5q11 2 23 3.5t24 1.5q22 0 33 -8.5t11 -34.5z" />
    <glyph glyph-name="quotesinglbase" unicode="&#x201a;" horiz-adv-x="236" 
d="M189 72q0 -33 -15 -69t-36 -66t-42 -49.5t-33 -19.5q-15 0 -27 5q-6 2 -12 5q22 40 33 67.5t15.5 51.5t4 48.5t-1.5 59.5q11 2 23 5q11 2 23 3.5t24 1.5q22 0 33 -8.5t11 -34.5z" />
    <glyph glyph-name="quotedblleft" unicode="&#x201c;" horiz-adv-x="404" 
d="M47 505q0 34 15 70t35.5 66t42 49.5t34.5 19.5q7 0 13.5 -1.5t11.5 -3.5q6 -3 12 -5q-21 -41 -32 -68.5t-15.5 -51t-4 -48.5t1.5 -59q-12 -3 -24 -5q-23 -5 -47 -5q-21 0 -32 8t-11 34zM215 505q0 34 15 70t36 66t42.5 49.5t33.5 19.5q7 0 14 -1.5t12 -3.5q6 -3 12 -5
q-21 -41 -32 -68.5t-15.5 -51t-4.5 -48.5t1 -59q-12 -3 -23 -5q-23 -5 -47 -5q-22 0 -33 8t-11 34z" />
    <glyph glyph-name="quotedblright" unicode="&#x201d;" horiz-adv-x="404" 
d="M189 666q0 -33 -15 -69t-36 -66t-42 -49.5t-33 -19.5q-15 0 -27 5q-6 2 -12 5q22 40 33 67.5t15.5 51.5t4 48.5t-1.5 59.5q11 2 23 5q11 2 23 3.5t24 1.5q22 0 33 -8.5t11 -34.5zM357 666q0 -33 -15 -69t-36 -66t-42 -49.5t-33 -19.5q-15 0 -27 5q-6 2 -12 5
q22 40 33 67.5t15.5 51.5t4 48.5t-1.5 59.5q11 2 23 5q11 2 23 3.5t24 1.5q22 0 33 -8.5t11 -34.5z" />
    <glyph glyph-name="quotedblbase" unicode="&#x201e;" horiz-adv-x="404" 
d="M189 72q0 -33 -15 -69t-36 -66t-42 -49.5t-33 -19.5q-15 0 -27 5q-6 2 -12 5q22 40 33 67.5t15.5 51.5t4 48.5t-1.5 59.5q11 2 23 5q11 2 23 3.5t24 1.5q22 0 33 -8.5t11 -34.5zM357 72q0 -33 -15 -69t-36 -66t-42 -49.5t-33 -19.5q-15 0 -27 5q-6 2 -12 5q22 40 33 67.5
t15.5 51.5t4 48.5t-1.5 59.5q11 2 23 5q11 2 23 3.5t24 1.5q22 0 33 -8.5t11 -34.5z" />
    <glyph glyph-name="dagger" unicode="&#x2020;" horiz-adv-x="569" 
d="M40 363q-1 9 -2 19q-1 8 -1.5 17t-0.5 17q0 18 8 26t28 8q31 0 73.5 -1t89.5 -2v89q0 12 -1.5 29.5t-3.5 36t-5.5 36t-7.5 30.5q12 1 23 3q10 1 20.5 2t18.5 1q35 0 45.5 -7t10.5 -29q0 -13 -0.5 -34t-1 -46.5t-1 -54t-1.5 -56.5h53t55 1.5t50.5 4.5t38.5 8q1 -10 2 -21
q1 -9 2 -19.5t1 -19.5q0 -18 -5.5 -27.5t-19 -14.5t-35 -6t-54.5 -1h-90v-32q0 -69 -0.5 -138t-0.5 -138q0 -83 2 -132.5t5 -69.5q-18 -5 -35.5 -7.5t-34.5 -2.5q-20 0 -26.5 9t-6.5 26q0 41 0.5 92l1 102t1 97.5t0.5 79.5v115q-39 2 -74.5 3t-62.5 3q-32 2 -58 4z" />
    <glyph glyph-name="daggerdbl" unicode="&#x2021;" horiz-adv-x="569" 
d="M40 363q-1 9 -2 19q-1 8 -1.5 16.5t-0.5 16.5q0 18 8 26.5t28 8.5q42 0 79.5 -1.5t83.5 -2.5v45t-1 46q0 11 -1 28.5t-3 36t-5.5 36.5t-7.5 30q12 1 23 3q10 1 20.5 2t18.5 1q35 0 45.5 -7t10.5 -29q0 -19 -1 -43t-1.5 -50t-1.5 -52t-1 -47q28 0 56.5 0.5t55 2.5t49 4.5
t37.5 7.5q1 -10 2 -21q1 -9 2 -20t1 -20q0 -34 -16 -42t-54 -8h-28t-38 0.5t-38.5 0.5h-29.5v-30q0 -46 -0.5 -91t-0.5 -91q48 0 95.5 1t104.5 5l2 -16t2 -16.5t1 -18.5q0 -30 -16 -39.5t-60 -9.5h-129q0 -76 2 -130t5 -73q-18 -5 -35.5 -7.5t-34.5 -2.5q-20 0 -26.5 9
t-6.5 26q0 27 1.5 74.5t1.5 104.5q-42 1 -77 3t-61 4q-31 2 -57 4q-1 9 -2 19q-1 8 -1.5 16.5t-0.5 16.5q0 18 8 26.5t28 8.5q41 0 79.5 -1t83.5 -3v212q-41 1 -76.5 3t-61.5 4q-31 2 -57 4z" />
    <glyph glyph-name="bullet" unicode="&#x2022;" horiz-adv-x="360" 
d="M79 274q0 44 30 71.5t74 27.5q43 0 70.5 -28t27.5 -74q0 -44 -28 -72.5t-73 -28.5q-46 0 -73.5 31t-27.5 73z" />
    <glyph glyph-name="ellipsis" unicode="&#x2026;" horiz-adv-x="683" 
d="M50 54q0 13 1 24.5t3 19.5q2 10 4 18q3 2 22.5 6.5t37.5 4.5q30 0 45 -16t15 -54q0 -21 -3.5 -37t-5.5 -17q-1 -2 -19 -6t-36 -4q-11 0 -25 3t-24 13q-8 8 -11.5 20.5t-3.5 24.5zM276 54q0 13 1 24.5t3 19.5q2 10 4 18q3 2 22.5 6.5t37.5 4.5q30 0 45 -16t15 -54
q0 -21 -3.5 -37t-5.5 -17q-1 -2 -19 -6t-36 -4q-11 0 -25 3t-24 13q-8 8 -11.5 20.5t-3.5 24.5zM501 54q0 13 1 24.5t3 19.5q2 10 4 18q3 2 22.5 6.5t37.5 4.5q30 0 45 -16t15 -54q0 -21 -3.5 -37t-5.5 -17q-1 -2 -19 -6t-36 -4q-11 0 -25 3t-24 13q-8 8 -11.5 20.5
t-3.5 24.5z" />
    <glyph glyph-name="perthousand" unicode="&#x2030;" horiz-adv-x="1120" 
d="M190 403q27 0 46 25t19 70q0 46 -17.5 70t-49.5 24q-30 0 -47.5 -25t-17.5 -72t17.5 -69.5t49.5 -22.5zM187 327q-76 0 -112.5 44.5t-36.5 118.5q0 34 10 65.5t29.5 55.5t48 38.5t65.5 14.5q76 0 112.5 -44.5t36.5 -119.5q0 -34 -10 -65t-29.5 -55t-48 -38.5t-65.5 -14.5
zM595 67q28 0 46.5 25t18.5 71q0 45 -17.5 69t-48.5 24t-48.5 -25t-17.5 -71q0 -47 17.5 -70t49.5 -23zM593 -9q-77 0 -113.5 44.5t-36.5 119.5q0 34 10.5 65.5t30 55.5t48 38t64.5 14q76 0 112.5 -44.5t36.5 -118.5q0 -34 -10 -65.5t-29.5 -55.5t-47.5 -38.5t-65 -14.5z
M931 67q27 0 46 25t19 71q0 45 -17.5 69t-48.5 24t-48.5 -25t-17.5 -71q0 -47 17.5 -70t49.5 -23zM929 -9q-77 0 -113.5 44.5t-36.5 119.5q0 34 10 65.5t29.5 55.5t48 38t65.5 14q76 0 112.5 -44.5t36.5 -118.5q0 -34 -10 -65.5t-29.5 -55.5t-48 -38.5t-64.5 -14.5zM614 595
q-51 -80 -95 -146.5t-85.5 -129t-83 -125.5t-86.5 -136q-7 -11 -14 -24t-13 -24q-7 -13 -13 -26q-13 5 -28.5 11t-27.5 12q-15 10 -15 19t5 17q14 24 32.5 53t38.5 59t40 59.5t36 55.5q39 60 73.5 113t65 101.5t56.5 93t46 88.5q14 -6 22.5 -9.5t14.5 -6.5t11 -6t11 -7
q14 -8 15.5 -18.5t-6.5 -23.5z" />
    <glyph glyph-name="guilsinglleft" unicode="&#x2039;" horiz-adv-x="353" 
d="M28 258q61 57 115 112t102 111q7 -5 15 -9q7 -5 14.5 -10t15.5 -12q16 -16 18 -25t-15 -28q-29 -31 -64 -64.5t-81 -75.5q23 -21 44 -39.5t41.5 -37.5t43 -40t48.5 -46q-7 -8 -13 -15q-5 -7 -11 -14t-11 -12q-17 -17 -28 -18t-28 16q-29 30 -54.5 55t-49.5 49.5t-49 49
t-53 53.5z" />
    <glyph glyph-name="guilsinglright" unicode="&#x203a;" horiz-adv-x="353" 
d="M325 260l-53.5 -53.5t-48.5 -49t-49.5 -49.5t-54.5 -55q-17 -17 -27.5 -16t-27.5 18q-5 5 -11.5 12t-11.5 14q-6 7 -13 15q27 25 49 46.5t43 40.5t42 37.5t44 38.5q-47 42 -82 75.5t-64 64.5q-17 19 -15 28t19 25q7 7 15 12t15 10q8 4 15 9q47 -56 101.5 -111t114.5 -112
z" />
    <glyph glyph-name="fraction" unicode="&#x2044;" horiz-adv-x="284" 
d="M369 595q-51 -80 -95 -146.5t-85.5 -129t-83 -125.5t-86.5 -136q-7 -11 -14 -24t-13 -24q-7 -13 -13 -26q-13 5 -28.5 11t-27.5 12q-15 10 -15 19t5 17q14 24 32.5 53t38.5 59t40 59.5t36 55.5q39 60 73.5 113t65 101.5t56.5 93t46 88.5q14 -6 22.5 -9.5t14.5 -6.5t11 -6
t11 -7q14 -8 15.5 -18.5t-6.5 -23.5z" />
    <glyph glyph-name="Euro" unicode="&#x20ac;" horiz-adv-x="621" 
d="M222 366q-2 -10 -2 -20v-21v-17.5t1 -16.5h245q0 -15 -0.5 -28.5t-5 -23.5t-13.5 -16t-26 -6l-186 2q18 -64 62 -101t116 -37q27 0 49 5.5t39.5 13.5t31 17.5t22.5 18.5q12 -16 18 -35t6 -36q0 -16 -13.5 -30.5t-36.5 -25.5t-53.5 -17.5t-65.5 -6.5q-54 0 -102.5 14.5
t-86.5 43.5t-64.5 73t-38.5 104l-88 2q-1 6 -2 13q-1 6 -1.5 13t-0.5 15q0 15 8.5 21.5t29.5 6.5h45v23q0 28 3 57l-76 2l-2 10t-1.5 11.5t-0.5 14.5q0 29 38 29h54q13 50 37.5 93t59.5 74.5t80.5 49t101.5 17.5q30 0 53 -1.5t42.5 -3.5t36.5 -3.5t34 -1.5q0 -27 -2 -49
t-10 -36q-7 -11 -14.5 -13t-15.5 -2q-14 0 -26.5 2.5l-27.5 5.5t-33 5.5t-42 2.5q-57 0 -99.5 -37.5t-62.5 -103.5h133q14 0 33.5 0.5t39.5 1t40 2.5t35 5q0 -32 -8 -55t-37 -28q-7 -1 -33 -1.5t-52 -0.5z" />
    <glyph glyph-name="uni20BD" unicode="&#x20bd;" horiz-adv-x="655" 
d="M607 467q0 -60 -20.5 -102t-57.5 -69t-90 -39.5t-117 -11.5l-77 1l2 -65h275q0 -43 -8.5 -58.5t-28.5 -15.5l-237 3q0 -18 1 -31t2.5 -24t4 -22.5t6.5 -25.5q-23 -10 -45.5 -13t-42.5 -3t-26 10t-6 30v29t1 51l-106 1q-2 6 -3 13q-1 6 -1.5 13t-0.5 15q0 29 38 29h73v66
l-107 2q-1 6 -2 13q-1 6 -1.5 13t-0.5 15q0 16 8.5 22.5t29.5 6.5l73 -1q0 26 -0.5 57.5t-1 61.5t-1.5 55.5t-2 40.5q-2 17 -5.5 34.5t-6.5 31.5q-4 16 -8 31q66 16 127.5 26t136.5 10q48 0 89 -13t71.5 -38t47.5 -62.5t17 -86.5zM360 575q-38 0 -65 -2t-49 -6v-161
q0 -43 1 -86q8 -1 16 -1h33q44 0 81 6.5t63.5 22t41.5 41.5t15 66q0 54 -32.5 87t-104.5 33z" />
    <glyph glyph-name="trademark" unicode="&#x2122;" horiz-adv-x="747" 
d="M403 687q14 0 20.5 -10.5t19.5 -30.5q17 -28 38.5 -63.5t43.5 -69.5q26 48 59.5 93t58.5 77q23 4 41 4q14 0 18.5 -4t4.5 -18q0 -39 -2 -88.5t-2 -121.5q0 -49 3 -70q1 -12 3 -19q-14 -5 -27 -6.5t-21 -1.5q-17 0 -23.5 5t-6.5 16q0 47 0.5 93t1.5 94q-18 -26 -38 -58
t-37 -65l-14 -2q-6 -1 -13 -1.5t-13 -0.5q-14 0 -20.5 2.5t-12.5 11.5q-14 20 -30 49.5t-36 66.5v-166v-13t1 -13q0 -7 1 -13q-13 -3 -25 -4t-16 -1q-33 0 -33 26q0 62 3.5 125t3.5 111q0 14 -4.5 29t-10.5 28q20 5 33.5 7t30.5 2zM25 626q-1 4 -2 9t-1 11v14q0 11 6 17
t22 6q29 0 68 -1.5t68 -1.5q24 0 56 2t56 10l2 -14q1 -6 1.5 -13.5t0.5 -12.5q0 -14 -5 -20.5t-22 -8.5q-16 -2 -40 -2.5t-39 -0.5v-145q0 -29 0.5 -49.5t1.5 -34.5q1 -16 3 -27q-12 -3 -25.5 -4t-19.5 -1q-33 0 -33 28v16.5t0.5 22.5t0.5 24.5v22.5v33v40.5t-0.5 40
t-0.5 33.5q-10 0 -23 1t-26.5 1.5t-26.5 1.5t-22 2z" />
    <glyph glyph-name="minus" unicode="&#x2212;" horiz-adv-x="586" 
d="M55 253q0 6 0.5 14t0.5 18q0 17 8 27.5t31 10.5q22 0 53.5 -0.5t81 -0.5t121 0.5t175.5 2.5q1 -6 2 -13q1 -6 2 -14t1 -18q0 -24 -9 -33.5t-37 -11.5q-12 0 -42.5 -0.5t-82.5 0t-127.5 2t-177.5 4.5v12z" />
    <glyph glyph-name="uni2215" unicode="&#x2215;" horiz-adv-x="284" 
d="M369 595q-51 -80 -95 -146.5t-85.5 -129t-83 -125.5t-86.5 -136q-7 -11 -14 -24t-13 -24q-7 -13 -13 -26q-13 5 -28.5 11t-27.5 12q-15 10 -15 19t5 17q14 24 32.5 53t38.5 59t40 59.5t36 55.5q39 60 73.5 113t65 101.5t56.5 93t46 88.5q14 -6 22.5 -9.5t14.5 -6.5t11 -6
t11 -7q14 -8 15.5 -18.5t-6.5 -23.5z" />
    <glyph glyph-name="fl" unicode="&#xfb02;" horiz-adv-x="0" 
 />
    <glyph glyph-name="f_f_l" unicode="&#xfb04;" 
 />
    <glyph glyph-name="D.swsh" 
 />
    <glyph glyph-name="O.swsh" 
 />
    <glyph glyph-name="Q.swsh" 
 />
    <glyph glyph-name="Eth.swsh" 
 />
    <glyph glyph-name="Schwa.swsh" horiz-adv-x="0" 
 />
    <glyph glyph-name="Dcaron.swsh" 
 />
    <glyph glyph-name="Dcroat.swsh" 
 />
    <glyph glyph-name="Oacute.swsh" horiz-adv-x="751" 
 />
    <glyph glyph-name="Ograve.swsh" horiz-adv-x="751" 
 />
    <glyph glyph-name="Oslash.swsh" horiz-adv-x="751" 
 />
    <glyph glyph-name="Otilde.swsh" horiz-adv-x="751" 
 />
    <glyph glyph-name="Omacron.swsh" horiz-adv-x="751" 
 />
    <glyph glyph-name="Odieresis.swsh" horiz-adv-x="751" 
 />
    <glyph glyph-name="Ocircumflex.swsh" horiz-adv-x="751" 
 />
    <glyph glyph-name="Ohungarumlaut.swsh" horiz-adv-x="751" 
 />
    <glyph glyph-name="W.swsh" 
 />
    <glyph glyph-name="Wcircumflex.swsh" 
 />
    <glyph glyph-name="V.swsh" 
 />
    <glyph glyph-name="afii10021.swsh" 
 />
    <glyph glyph-name="afii10040.swsh" 
 />
    <glyph glyph-name="afii10043.swsh" 
 />
    <glyph glyph-name="afii10022.swsh" 
 />
    <glyph glyph-name="afii10023.swsh" 
 />
    <glyph glyph-name="afii10028.swsh" 
 />
    <glyph glyph-name="afii10061.swsh" 
 />
    <glyph glyph-name="afii10039.swsh" 
 />
    <glyph glyph-name="afii10024.swsh" 
 />
    <glyph glyph-name="f_f_b" 
 />
    <glyph glyph-name="f_b" 
 />
    <glyph glyph-name="g.alt" 
 />
    <glyph glyph-name="f_h" 
 />
    <glyph glyph-name="f_f_h" 
 />
    <glyph glyph-name="afii10019.swsh" 
 />
    <glyph glyph-name="afii10025.swsh" 
 />
    <glyph glyph-name="afii10020.swsh" 
 />
    <glyph glyph-name="afii10050.swsh" 
 />
    <glyph glyph-name="afii10052.swsh" 
 />
    <glyph glyph-name="afii10032.swsh" 
 />
    <glyph glyph-name="afii10047.swsh" 
 />
    <glyph glyph-name="afii10048.swsh" 
 />
    <glyph glyph-name="i.dot" 
 />
    <glyph glyph-name="Q.swsh.001" 
 />
    <glyph glyph-name="Eth.swsh.001" 
 />
    </font>
</defs>
</svg>
